<svg width="22" height="23" viewBox="0 0 22 23" fill="none" xmlns="http://www.w3.org/2000/svg">
<path d="M7.10801e-05 19V4.37C-0.00619695 3.27169 0.402289 2.21147 1.14387 1.40129C1.88545 0.591114 2.90549 0.09067 4.00007 0M7.10801e-05 19L2.30622 21.4244C2.32171 21.4265 2.3372 21.4285 2.3527 21.4305M7.10801e-05 19C-0.00166474 19.4961 0.12218 19.9846 0.360071 20.42L7.10801e-05 19ZM4.00007 0V0.5H4.02137M4.00007 0L4.04135 0.498293C4.03469 0.498845 4.02803 0.499414 4.02137 0.5M4.00007 0H17.7401L3.72036 21.52M4.02137 0.5C3.05989 0.584669 2.16472 1.02655 1.51269 1.73889C0.856155 2.45615 0.494514 3.39479 0.500063 4.36715L0.500079 4.37H0.500071V19V19.0017C0.498627 19.4135 0.60141 19.8189 0.798843 20.1803L0.801856 20.1858L0.801821 20.1858C1.10674 20.7609 1.62395 21.1944 2.24349 21.3941L2.24819 21.3956L2.24818 21.3957L2.3527 21.4305M4.02137 0.5H17.7389C18.7333 0.504918 19.6858 0.901548 20.3899 1.60395C21.0938 2.30625 21.4927 3.25762 21.5001 4.25191V5.97427C21.4934 6.01941 21.4722 6.0613 21.4395 6.09346L21.4329 6.10001L21.4265 6.10681C21.4102 6.12404 21.3905 6.13768 21.3687 6.14686C21.3468 6.15603 21.3233 6.16054 21.2996 6.16009L21.2996 6.16H21.2901H18.5501H18.0501V6.66V19.02C18.0501 19.683 17.7867 20.3189 17.3178 20.7878C16.849 21.2566 16.2131 21.52 15.5501 21.52L3.72119 21.52C3.72091 21.52 3.72064 21.52 3.72036 21.52M2.3527 21.4305C2.80624 21.489 3.26303 21.5189 3.72036 21.52M2.3527 21.4305L3.72036 21.52M15.5501 21.12V21.12H2.95007H2.94231L2.93455 21.1198C2.38411 21.1027 1.86216 20.871 1.48016 20.4744C1.09858 20.0781 0.886855 19.5485 0.890071 18.9984M15.5501 21.12L1.39007 19M15.5501 21.12L15.5562 21.12C16.1143 21.1131 16.6474 20.8875 17.0409 20.4916C17.4343 20.0957 17.6567 19.5612 17.6601 19.003V19V6.7V6.2H17.1601H7.83007V6.19995L7.82293 6.20005C7.79642 6.20043 7.77011 6.19554 7.74551 6.18566C7.72092 6.17577 7.69853 6.1611 7.67966 6.14249C7.66078 6.12388 7.64579 6.10171 7.63556 6.07725C7.62533 6.0528 7.62007 6.02656 7.62007 6.00005V6V4.25166M15.5501 21.12L7.62007 4.25166M0.890071 18.9984C0.890075 18.9978 0.890078 18.9972 0.890082 18.9967L1.39007 19M0.890071 18.9984V19H1.39007M0.890071 18.9984V4.37584M1.39007 19V4.37M0.890071 4.37584C0.890118 4.37794 0.890168 4.38005 0.890219 4.38215L1.39007 4.37M0.890071 4.37584V4.37H1.39007M0.890071 4.37584L1.39007 4.37M4.24923 0.87C4.24892 0.870001 4.24862 0.870002 4.24831 0.870003L4.25007 1.37V0.87H4.24923ZM4.24923 0.87C4.69313 0.868558 5.13292 0.955091 5.54319 1.1246C5.95374 1.29423 6.32659 1.54359 6.64015 1.85824C6.95371 2.17289 7.20177 2.5466 7.36996 2.95774C7.53793 3.36831 7.62293 3.80808 7.62007 4.25166M4.24923 0.87L7.62007 4.25166M20.6101 5.75H21.1101V5.25L21.1101 4.25L21.1101 4.24827C21.107 3.3559 20.7511 2.50096 20.1201 1.86996C19.4891 1.23896 18.6342 0.883096 17.7418 0.88H17.7401H7.44007H6.43053L7.04236 1.68302L7.20236 1.89302L7.20227 1.89309L7.20872 1.90119C7.73983 2.56912 8.02931 3.3971 8.03007 4.25045V5.25V5.75H8.53007H20.6101Z" fill="#383641" stroke="white"/>
</svg>
