<svg width="24" height="24" viewBox="0 0 24 24" fill="none" xmlns="http://www.w3.org/2000/svg">
<g clip-path="url(#clip0_20_99)">
<path d="M2.50009 5.70238L0.730089 5.64M2.50009 5.70238L12.2801 21.82C12.1918 21.8585 12.0964 21.8784 12.0001 21.8784C11.9037 21.8784 11.8084 21.8585 11.7201 21.82C8.71453 20.5246 4.88465 20.3116 2.07533 20.1554C1.56644 20.1271 1.09104 20.1007 0.660089 20.07C0.479715 20.0597 0.310309 19.9801 0.187302 19.8477C0.0642949 19.7154 -0.00278614 19.5406 8.87301e-05 19.36V18.3676L0.500089 18.701M2.50009 5.70238V5.72H3.00009L3.0177 5.22031L3.00009 5.21969V2.82C2.99974 2.72018 3.02015 2.62138 3.06003 2.52987C3.09991 2.43836 3.15837 2.35614 3.23172 2.28844C3.30507 2.22073 3.3917 2.16902 3.4861 2.13658C3.5805 2.10414 3.68062 2.09168 3.78009 2.1L2.50009 5.70238ZM0.730089 5.64C0.634333 5.63729 0.53902 5.65399 0.449887 5.68909C0.360754 5.72418 0.279645 5.77695 0.211443 5.84422C0.143241 5.91149 0.0893563 5.99186 0.0530336 6.0805M0.730089 5.64L0.715952 6.1398C0.715552 6.13979 0.715152 6.13978 0.714752 6.13977M0.730089 5.64L0.712479 6.13969L0.714752 6.13977M0.0530336 6.0805C0.0167109 6.16914 -0.00129878 6.26422 8.87301e-05 6.36V18.1661L0.500089 18.1782M0.0530336 6.0805L0.515696 6.27009C0.526439 6.24387 0.542377 6.2201 0.562549 6.2002C0.582722 6.18031 0.606712 6.1647 0.633075 6.15432C0.659067 6.14408 0.686834 6.13914 0.714752 6.13977M0.0530336 6.0805L0.515696 6.27009C0.504953 6.29631 0.499626 6.32443 0.500036 6.35276L0.500141 6.36H0.500089V18.1782M0.500089 18.1782V18.701M0.500089 18.1782L0.930089 18.1885M0.500089 18.701V19.36V19.368L0.500025 19.368C0.499204 19.4196 0.518369 19.4695 0.553515 19.5073C0.588659 19.5451 0.637061 19.5679 0.688599 19.5708L0.69559 19.5712L0.695586 19.5713C1.06663 19.5977 1.47699 19.6211 1.91735 19.6457M0.500089 18.701L1.12275 19.116L1.15275 19.136L1.91735 19.6457M1.91735 19.6457L1.93009 19.6542V19.6464M1.91735 19.6457C1.92159 19.646 1.92584 19.6462 1.93009 19.6464M1.93009 19.6464V19.2161M1.93009 19.6464C1.98123 19.6493 2.03278 19.6522 2.08472 19.6551C3.24052 19.7194 4.58846 19.7944 5.96839 19.9494C7.95763 20.1728 10.0767 20.5672 11.918 21.3608L11.9201 21.3617C11.9453 21.3728 11.9726 21.3784 12.0001 21.3784C12.0276 21.3784 12.0549 21.3728 12.0801 21.3617L12.0822 21.3608C13.9235 20.5672 16.0425 20.1728 18.0318 19.9494C19.4117 19.7944 20.7597 19.7194 21.9155 19.6551C22.4195 19.627 22.8869 19.601 23.3046 19.5713L23.3116 19.5708L23.3116 19.5708C23.3631 19.5679 23.4115 19.5451 23.4467 19.5073C23.4818 19.4695 23.501 19.4196 23.5002 19.368L23.5 19.36H23.5001V6.36V6.35923C23.5002 6.30294 23.4787 6.24876 23.44 6.20783C23.4037 6.16931 23.3547 6.1453 23.3022 6.14M1.93009 19.2161L23.3401 20.07C23.5205 20.0597 23.6899 19.9801 23.8129 19.8477C23.9359 19.7154 24.003 19.5406 24.0001 19.36V6.36C24.0004 6.17578 23.93 5.99845 23.8035 5.86452C23.677 5.73059 23.504 5.65024 23.3201 5.64M1.93009 19.2161C1.74946 19.2096 1.56877 19.2042 1.38803 19.1999L1.39846 18.7674L1.39961 18.72H1.38676H0.930089V18.1885M1.93009 19.2161V18.72V18.7158C3.9582 18.7879 5.97912 18.9931 7.97982 19.3299C8.31083 19.5275 8.63386 19.7396 8.94792 19.9658L9.24009 19.56L9.33668 19.0694C8.94358 18.992 8.54959 18.9197 8.15482 18.8524C6.74425 18.0231 5.19621 17.4458 3.58009 17.15M1.93009 19.2161C4.35255 19.3032 6.76458 19.5822 9.1435 20.0506L9.53225 19.1542C7.78872 17.8988 5.788 17.0465 3.67478 16.659M1.93009 19.2161L12.0001 5.76C14.2363 3.62903 17.1401 2.33609 20.2201 2.1M23.3022 6.14H23.3201V5.64M23.3022 6.14C23.2989 6.13967 23.2956 6.13941 23.2923 6.13923L23.3201 5.64M23.3022 6.14H20.9901H20.4901V5.64V2.82V2.8188C20.4902 2.78857 20.484 2.75866 20.472 2.73092C20.46 2.70318 20.4424 2.67821 20.4203 2.65757C20.3983 2.63693 20.3722 2.62106 20.3437 2.61094C20.3156 2.60097 20.2858 2.59681 20.2561 2.59871M23.3201 5.64H21.4901H20.9901V5.14V2.82C20.9903 2.72109 20.9702 2.62319 20.9309 2.53241C20.8916 2.44163 20.8341 2.35991 20.7618 2.29236C20.6896 2.2248 20.6042 2.17286 20.511 2.13976C20.4178 2.10667 20.3188 2.09313 20.2201 2.1M20.2561 2.59871C20.2568 2.59865 20.2576 2.5986 20.2583 2.59854L20.2201 2.1M20.2561 2.59871C20.2557 2.59874 20.2552 2.59876 20.2548 2.59879L20.2201 2.1M20.2561 2.59871C17.2919 2.82644 14.4973 4.07102 12.345 6.12197L12.0001 6.45067L11.6552 6.12197C9.50236 4.07051 6.7069 2.82582 3.74187 2.59854L3.73842 2.59827C3.70802 2.59572 3.67743 2.59953 3.64859 2.60944C3.61974 2.61935 3.59327 2.63515 3.57086 2.65584C3.54845 2.67653 3.53059 2.70165 3.5184 2.72961C3.50622 2.75757 3.49998 2.78776 3.50009 2.81826L3.50009 2.82L3.50009 5.72V6.23793L2.98248 6.21969L0.714752 6.13977M0.930089 18.1885V7.09V6.57053L1.44918 6.59037L3.01918 6.65037L3.50009 6.66874V7.15V16.4472M0.930089 18.1885L1.41214 18.2001C1.41812 18.2003 1.42411 18.2004 1.43009 18.2006V7.59037L1.41099 7.58964L1.43009 7.09H1.93009V7.10911L3.00009 7.15V16.45M3.58009 17.15L3.67729 16.6595C3.67645 16.6594 3.67561 16.6592 3.67478 16.659M3.58009 17.15C3.41766 17.1178 3.27129 17.0306 3.16565 16.9031C3.06 16.7756 3.00153 16.6156 3.00009 16.45M3.58009 17.15L3.67011 16.6582C3.67167 16.6585 3.67322 16.6587 3.67478 16.659M3.67478 16.659C3.62615 16.6488 3.58239 16.6224 3.55066 16.5841C3.5187 16.5455 3.50087 16.4972 3.50009 16.4472M3.50009 16.4472V16.45H3.00009M3.50009 16.4472C3.50008 16.4467 3.50007 16.4462 3.50007 16.4457L3.00009 16.45M19.6754 16.3588L20.0701 16.2737V15.87V3.64V3.62V3.03422L19.4916 3.1262C17.0455 3.51512 13.9696 4.70839 12.3177 6.80011L12.2101 6.93637V7.11V19.4V20.5309L13.0466 19.7698C14.9168 18.0683 17.2037 16.8915 19.6754 16.3588ZM4.50456 3.14558L3.93009 3.05905V3.64V15.87V16.2737L4.32474 16.3588C6.79645 16.8915 9.08335 18.0683 10.9536 19.7698L11.7901 20.5309V19.4V7.11V6.93637L11.6825 6.80011C10.0304 4.70821 6.95418 3.51456 4.50456 3.14558ZM22.6222 19.2199L23.1101 19.208V18.72V18.7V7.07V6.57H22.6101H21.0101H20.5101V7.07V16.4672C20.5093 16.5172 20.4915 16.5655 20.4595 16.6041C20.4278 16.6424 20.384 16.6688 20.3354 16.679C18.2222 17.0665 16.2215 17.9188 14.4779 19.1742L14.8666 20.0706C17.423 19.5677 20.0176 19.2831 22.6222 19.2199Z" fill="#383641" stroke="white"/>
<path d="M6.55392 11.0339C7.24249 11.1684 7.90333 11.4146 8.51056 11.7618L8.88788 12.0483C8.93911 12.0871 8.97411 12.1436 8.98611 12.2068C8.99668 12.2624 8.98877 12.3198 8.96396 12.3702C8.92745 12.4111 8.87832 12.4391 8.82402 12.4494C8.76429 12.4608 8.70254 12.4499 8.6503 12.4191C7.9932 11.9779 7.25493 11.6721 6.47865 11.5194C6.43543 11.4964 6.39935 11.4616 6.37485 11.4188C6.34498 11.3665 6.33416 11.3055 6.34426 11.2461C6.35435 11.1868 6.38472 11.1328 6.4302 11.0933C6.46556 11.0627 6.50835 11.0423 6.55392 11.0339ZM6.55956 13.8021C7.14894 13.9346 7.71893 14.1385 8.25712 14.4085L8.22309 14.4298L8.87593 14.8581C8.93057 14.8939 8.9697 14.949 8.98555 15.0124C9.00027 15.0713 8.9939 15.1333 8.96783 15.1877C8.93476 15.2348 8.88574 15.2686 8.8296 15.2827C8.77219 15.297 8.71162 15.2896 8.65947 15.2621C8.00372 14.8348 7.28204 14.5183 6.52339 14.3254L6.50417 14.3205L6.48463 14.3172C6.45188 14.3116 6.42057 14.2995 6.39254 14.2816C6.36451 14.2638 6.34032 14.2405 6.32139 14.2132C6.30246 14.1859 6.28916 14.1551 6.28228 14.1226C6.27539 14.09 6.27506 14.0565 6.2813 14.0239L6.28149 14.0239L6.2837 14.0103C6.29434 13.9448 6.33051 13.8863 6.38426 13.8476C6.43506 13.811 6.49763 13.7948 6.55956 13.8021ZM6.55956 7.81208C7.14894 7.94461 7.71894 8.14849 8.25713 8.41854L8.2231 8.43981L8.87593 8.86807C8.93057 8.90391 8.9697 8.95902 8.98555 9.02241C9.00001 9.08024 8.99412 9.14111 8.96917 9.19488C8.93479 9.24146 8.88517 9.27482 8.82867 9.28894C8.77059 9.30346 8.70937 9.29663 8.65608 9.26993C8.00123 8.8437 7.28074 8.52797 6.52339 8.33542L6.50417 8.33053L6.48463 8.32718C6.45188 8.32157 6.42057 8.30948 6.39254 8.29163C6.36451 8.27377 6.34032 8.25051 6.32139 8.2232C6.30246 8.19589 6.28916 8.16507 6.28228 8.13256C6.27539 8.10005 6.27506 8.06649 6.2813 8.03385L6.28149 8.03389L6.2837 8.02026C6.29434 7.95485 6.33051 7.89634 6.38426 7.85759C6.43505 7.82097 6.49762 7.80482 6.55956 7.81208ZM17.418 11.5368L17.4105 11.538L17.4031 11.5395C16.7727 11.6643 16.1679 11.891 15.6123 12.2098L15.5572 12.1408L15.1728 12.4109C15.1457 12.4299 15.1151 12.4433 15.0828 12.4505C15.0505 12.4576 15.0171 12.4582 14.9845 12.4523C14.952 12.4464 14.9209 12.4341 14.8931 12.4161C14.8692 12.4006 14.848 12.3811 14.8307 12.3585C14.8025 12.3061 14.7931 12.2455 14.8043 12.1868C14.8157 12.1265 14.8482 12.0722 14.8957 12.0336C15.6295 11.5299 16.4607 11.1855 17.3357 11.0227C17.4028 11.0124 17.4712 11.0287 17.5265 11.0681C17.5827 11.1083 17.6206 11.1691 17.632 11.2372C17.6433 11.3053 17.6272 11.3751 17.587 11.4313C17.5469 11.4875 17.4861 11.5255 17.418 11.5368ZM17.4092 14.5584L17.3961 14.5608L17.3831 14.5639C16.6059 14.7512 15.8658 15.0678 15.1937 15.5005C15.1412 15.5276 15.0805 15.5344 15.0231 15.5195C14.9669 15.5049 14.9181 15.4705 14.8855 15.4228C14.8594 15.3668 14.8532 15.3034 14.8682 15.2433C14.8841 15.1798 14.9225 15.1242 14.9762 15.087C15.7076 14.6168 16.5151 14.2774 17.3626 14.084C17.4211 14.08 17.4794 14.0959 17.528 14.1294C17.5763 14.1628 17.6117 14.2114 17.6288 14.2673C17.6349 14.3312 17.618 14.3955 17.5808 14.4484C17.5401 14.506 17.4786 14.5455 17.4092 14.5584ZM17.4092 8.17835L17.3961 8.18078L17.3831 8.18391C16.6072 8.37085 15.8683 8.6867 15.1971 9.11825C15.1435 9.14454 15.0821 9.15085 15.0241 9.13576C14.9675 9.12105 14.9181 9.08704 14.8841 9.03989C14.8592 8.98464 14.8535 8.92241 14.8682 8.86326C14.8841 8.79976 14.9225 8.74423 14.9762 8.70695C15.7086 8.23614 16.5174 7.89649 17.3662 7.70316C17.4241 7.69812 17.482 7.71336 17.53 7.74649C17.578 7.77964 17.6128 7.82844 17.6285 7.8843C17.6354 7.94925 17.6186 8.0147 17.5808 8.06837C17.5401 8.12604 17.4786 8.16551 17.4092 8.17835Z" fill="#383641" stroke="white"/>
</g>
<defs>
<clipPath id="clip0_20_99">
<rect width="24" height="24" fill="white"/>
</clipPath>
</defs>
</svg>
