<svg width="24" height="24" viewBox="0 0 24 24" fill="none" xmlns="http://www.w3.org/2000/svg">
<g clip-path="url(#clip0_20_105)">
<path d="M23.284 19.7811L23.2863 19.7835C23.3541 19.8513 23.4079 19.9318 23.4445 20.0204C23.4812 20.109 23.5 20.2039 23.5 20.2998L23.5 20.3085L23.5003 20.3172C23.5064 20.4945 23.4511 20.6682 23.3441 20.8091L22.6955 21.4674C22.6952 21.4677 22.6949 21.468 22.6946 21.4683C22.6279 21.5351 22.5487 21.5882 22.4614 21.6245C22.3738 21.6609 22.2799 21.6797 22.185 21.6797C22.0901 21.6797 21.9962 21.6609 21.9086 21.6245C21.8212 21.5881 21.7418 21.5349 21.675 21.4679C21.6748 21.4677 21.6747 21.4676 21.6745 21.4674L19.5052 19.2781L19.223 18.9933L18.8838 19.2068C18.5357 19.4257 18.1327 19.5413 17.7215 19.54L17.7215 19.5399L17.7102 19.5401C17.4069 19.546 17.1055 19.4897 16.8247 19.3746C16.545 19.2599 16.2917 19.0893 16.0802 18.8732C16.0537 18.8448 16.0393 18.8073 16.0399 18.7684L16.0402 18.7552L16.0397 18.742C16.0392 18.7277 16.0417 18.7135 16.0472 18.7003C16.0527 18.687 16.0609 18.6751 16.0713 18.6654L16.0775 18.6596L16.0836 18.6536L17.0836 17.6536L17.4353 17.3019L17.0854 16.9483L12.3554 12.1683L11.9951 11.8042L11.6398 12.1732L6.99978 16.9932L6.65956 17.3467L7.00645 17.6936L8.00644 18.6936L8.00845 18.6955C8.02175 18.7087 8.03228 18.7244 8.03941 18.7417C8.04655 18.7589 8.05016 18.7775 8.05001 18.7962L8.05001 18.7974C8.04979 18.8392 8.03326 18.8792 8.00394 18.909L8.00156 18.9114C7.79013 19.1288 7.53621 19.3004 7.25562 19.4154C6.97502 19.5305 6.67376 19.5865 6.37056 19.5801L6.37057 19.58L6.35845 19.58C5.94731 19.5813 5.54426 19.4657 5.19624 19.2468L4.85696 19.0333L4.57483 19.3181L2.41141 21.5014C2.27099 21.6315 2.08658 21.7038 1.895 21.7038C1.70363 21.7038 1.51941 21.6316 1.37904 21.5019L0.718263 20.8312C0.717925 20.8309 0.717588 20.8305 0.717251 20.8302C0.579033 20.6877 0.501195 20.4973 0.5 20.2987C0.500098 20.2032 0.518942 20.1086 0.555468 20.0204C0.591865 19.9324 0.64511 19.8524 0.712201 19.7849C0.712686 19.7844 0.713171 19.7839 0.713658 19.7834L2.90028 17.6368L3.18077 17.3614L2.97941 17.0239C2.7177 16.5851 2.60882 16.072 2.66981 15.5648C2.7308 15.0575 2.95821 14.5848 3.31646 14.2206L3.31649 14.2207L3.32111 14.2158C3.33325 14.2032 3.34782 14.1931 3.36396 14.1862C3.38009 14.1793 3.39745 14.1757 3.415 14.1757C3.43255 14.1757 3.44991 14.1793 3.46604 14.1862C3.48218 14.1931 3.49675 14.2032 3.50889 14.2158L3.5088 14.2159L3.51645 14.2236L4.51645 15.2236L4.87186 15.579L5.22541 15.2217L9.95541 10.4417L10.3038 10.0897L9.95507 9.73796L4.29 4.02415V2.26H5.95099L8.10416 4.44126L8.10447 4.44156L11.6445 8.02156L12.0001 8.38124L12.3557 8.02144L18.0489 2.26H19.75V4.00442L17.0464 6.73645L17.0446 6.7383L14.0464 9.73645L13.6921 10.0907L14.0472 10.4443L18.8072 15.1843L19.1607 15.5364L19.5136 15.1836L20.51 14.1871C20.5104 14.1867 20.5108 14.1863 20.5112 14.1859C20.5391 14.1592 20.5763 14.1442 20.615 14.1442C20.6531 14.1442 20.6898 14.1587 20.7175 14.1847C21.0735 14.5484 21.2994 15.0194 21.3602 15.5248C21.3928 15.7956 21.3769 16.068 21.3152 16.33H21.0207C21.0282 16.3041 21.0352 16.2781 21.0417 16.2519C21.1291 15.8978 21.1169 15.5264 21.0066 15.1788L20.7566 14.3911L20.1749 14.978L16.8449 18.338L16.2804 18.9076L17.0402 19.1638C17.3849 19.28 17.7552 19.2975 18.1093 19.2144C18.4634 19.1312 18.7871 18.9506 19.044 18.6931L19.0459 18.6912L20.5359 17.1812L21.2941 16.4128C21.2393 16.612 21.1578 16.8042 21.0506 16.9839L20.8526 17.3159L21.124 17.5911L23.284 19.7811ZM3.48332 17.1804L3.4841 17.1812L4.97409 18.6912L4.97599 18.6931C5.23285 18.9506 5.55663 19.1312 5.91072 19.2144C6.26481 19.2975 6.63512 19.28 6.97978 19.1638L7.73956 18.9076L7.17514 18.338L3.84514 14.978L3.2704 14.3981L3.01508 15.1736C2.90141 15.5189 2.88497 15.8888 2.96757 16.2427C3.05016 16.5967 3.2286 16.9211 3.48332 17.1804ZM4.31269 19.1844L4.65912 18.8397L4.32235 18.4855L3.74235 17.8755L3.38645 17.5012L3.02389 17.869L0.973888 19.949L0.628469 20.2995L0.973386 20.6505L1.54339 21.2305L1.89605 21.5893L2.25269 21.2344L4.31269 19.1844ZM11.4366 8.94047L11.7822 8.58887L11.4355 8.23838L5.97548 2.71838L5.82871 2.57H5.62H5.09H4.59V3.07V3.68V3.88479L4.73365 4.03074L7.23365 6.57074L7.23464 6.57174L10.1546 9.52174L10.5113 9.88204L10.8666 9.52047L11.4366 8.94047ZM6.00339 16.7205L6.35888 17.0822L6.71551 16.7216L19.2655 4.03159L19.41 3.88548V3.68V3.07V2.57H18.91H18.38H18.1708L18.024 2.71895L15.2148 5.56807L15.214 5.56895L5.43483 15.4381L5.08754 15.7886L5.43339 16.1405L6.00339 16.7205ZM17.2846 16.7217L17.6412 17.0821L17.9966 16.7205L18.5666 16.1405L18.9122 15.7888L18.5654 15.4383L13.8454 10.6683L13.4888 10.3079L13.1334 10.6695L12.5634 11.2495L12.2178 11.6012L12.5646 11.9517L17.2846 16.7217ZM20.9961 17.869L20.6595 17.5275L20.3042 17.8495L19.6642 18.4295L19.2713 18.7856L19.6498 19.1569L21.7698 21.2369L22.1264 21.5868L22.4766 21.2305L23.0466 20.6505L23.3915 20.2995L23.0461 19.949L20.9961 17.869Z" fill="#383641" stroke="white"/>
</g>
<defs>
<clipPath id="clip0_20_105">
<rect width="24" height="24" fill="white"/>
</clipPath>
</defs>
</svg>
