<svg width="58" height="59" viewBox="0 0 58 59" fill="none" xmlns="http://www.w3.org/2000/svg">
<path fill-rule="evenodd" clip-rule="evenodd" d="M31.9587 58.3574C32.2421 58.2344 33.2944 58.1523 33.6587 57.9882C31.9183 58.1113 31.9183 58.0703 31.9587 58.3574Z" fill="#FFB142"/>
<path fill-rule="evenodd" clip-rule="evenodd" d="M1.27822 27.7941C1.07586 28.9018 1.19728 29.6813 1.27822 30.3377C1.15681 29.5992 1.39964 28.4505 1.27822 27.7941Z" fill="#FFB142"/>
<path fill-rule="evenodd" clip-rule="evenodd" d="M28.7612 58.3164C28.8017 58.3574 28.9636 58.3985 29.0851 58.3985C29.2065 58.3985 29.3684 58.3985 29.5303 58.3574C29.3684 58.3164 29.2874 58.3164 29.2065 58.2754C28.9231 58.2754 28.7612 58.2754 28.7612 58.3164Z" fill="#FFB142"/>
<path fill-rule="evenodd" clip-rule="evenodd" d="M30.4583 58.3164C30.3773 58.3574 30.3773 58.3574 30.2964 58.3985C30.3773 58.3985 30.5392 58.4395 30.6606 58.4395C30.6606 58.3985 30.8225 58.3985 30.7416 58.3574C30.7011 58.3574 30.5392 58.3574 30.4583 58.3164Z" fill="#FFB142"/>
<path fill-rule="evenodd" clip-rule="evenodd" d="M33.2522 0.553808C34.2236 0.758931 35.3165 1.00508 36.2878 1.25123C36.6521 1.3743 37.0569 1.49737 37.4211 1.62045C38.2711 1.74352 39.0806 2.27684 39.8496 2.52299L39.8092 2.48196C40.2139 2.68709 40.5782 2.81016 40.9829 3.01528C41.3472 3.13836 41.7924 3.42553 42.1162 3.5486C42.7638 3.91782 43.4114 4.24602 43.9376 4.61524C44.2614 4.82036 44.4637 4.98446 44.6661 5.06651C45.1518 5.39471 45.597 5.7229 46.1232 6.09212C46.3256 6.17417 46.6089 6.46135 46.7708 6.5434C46.9327 6.62544 47.0541 6.70749 47.1351 6.74852C46.9327 6.46135 46.5684 6.17417 46.2042 5.92803L44.4637 4.73831C43.9376 4.36909 43.4519 3.99987 42.9662 3.8768C42.5614 3.67168 42.1972 3.46655 41.8329 3.26143C41.2258 3.01528 40.4972 2.56401 39.8496 2.39991C39.6068 2.27684 39.3234 2.19479 39.1211 2.07172C38.6759 1.90762 38.2306 1.66147 37.8663 1.62045C37.7044 1.57942 37.5426 1.49737 37.4211 1.45635C37.2997 1.41532 37.1783 1.3743 37.0164 1.33327C36.895 1.29225 36.7735 1.25123 36.6521 1.25123C35.5188 0.84098 34.345 0.553808 33.2118 0.38971C32.888 0.348685 32.7261 0.348685 32.7261 0.430734C32.7261 0.430734 32.9284 0.512783 33.2522 0.553808ZM44.0995 4.61524C44.2209 4.65627 44.3423 4.77934 44.5042 4.90241C44.3423 4.77934 44.2209 4.69729 44.0995 4.61524Z" fill="#FFB142"/>
<path fill-rule="evenodd" clip-rule="evenodd" d="M53.6533 46.6244C53.6128 46.6654 53.6128 46.7064 53.6128 46.7064L53.6533 46.6244Z" fill="#FFB142"/>
<path fill-rule="evenodd" clip-rule="evenodd" d="M57.538 34.3581V34.317C57.6594 33.5786 57.7809 32.7991 57.6999 31.9786C57.6594 32.0197 57.6595 32.1017 57.619 32.1838C57.619 32.0197 57.619 31.8556 57.619 31.6915L57.5785 31.5684V31.4453C57.5785 30.83 57.5785 30.1736 57.619 29.5172C57.619 29.3941 57.5785 29.312 57.538 29.1479C57.3761 27.3429 57.0523 25.4557 56.5666 23.6917C56.5261 23.5686 56.4452 23.4045 56.4047 23.2814C55.9595 21.7635 55.4738 20.3687 54.8667 18.8508C54.8262 18.7687 54.7048 18.6046 54.6643 18.5226C54.5834 18.3585 54.5429 18.2354 54.5024 18.1123C54.4619 17.8662 54.3405 17.62 54.1381 17.3739C53.6524 16.4303 53.2477 15.4047 52.6001 14.7483C51.7501 13.6817 50.7787 12.2868 49.7669 11.2612C49.2812 10.7279 48.9574 10.1536 48.4717 9.66127C47.986 9.21 47.905 9.3741 47.1765 8.79976C46.4075 8.22541 45.6789 7.528 44.829 6.95365L44.7885 7.0357C44.7885 6.99468 44.748 6.91263 44.829 6.95365L44.5052 6.7075L44.4647 6.78955C44.1004 6.54341 43.7766 6.29726 43.4528 6.09214C43.3719 6.05111 43.21 6.01009 43.0885 5.92804L42.9671 5.88701L42.8862 5.80496C42.6028 5.55882 42.1981 5.43574 42.0362 5.23062C42.2386 5.23062 42.8457 5.59984 42.9266 5.51779C41.7933 4.77935 41.0648 4.5332 40.5791 4.5332C40.3363 4.41013 40.0125 4.24603 40.0529 4.20501C40.2553 4.04091 39.7291 3.87681 39.0815 3.67169C38.5554 3.50759 38.3935 3.54861 38.3935 3.67169C38.2316 3.58964 38.1506 3.58964 38.0292 3.50759C37.8673 3.42554 37.7459 3.38451 37.6245 3.34349L37.6649 3.38451C37.503 3.30246 37.3816 3.26144 37.2602 3.22042C36.815 3.05632 36.0864 2.85119 36.3293 2.72812C36.5316 2.64607 36.2078 2.523 35.6817 2.3589C35.2365 2.23583 34.7912 2.0307 34.3055 2.07173C34.8317 2.23583 35.4793 2.56402 35.2769 2.6871C35.0341 2.64607 34.7912 2.56402 34.5079 2.523C34.346 2.3589 34.2246 2.23583 33.9817 2.07173C33.9413 1.98968 33.8603 1.94865 33.6175 1.8666C33.577 1.70251 33.4556 1.49738 33.1722 1.33329C33.4151 1.33329 33.6984 1.37431 33.9817 1.41533C34.8317 1.57943 35.6412 1.82558 36.3698 2.15378C36.815 2.39992 37.3816 2.56402 37.9482 2.64607C38.6768 2.97427 39.4053 3.26144 40.1339 3.58964C41.9553 4.45115 43.6552 5.43574 45.2742 6.42033H45.2337C46.1646 6.99468 46.9741 7.85619 47.8646 8.55361C48.2288 8.75873 48.6336 9.21 49.0383 9.62025C49.1598 9.74332 49.3217 9.8664 49.4431 10.0305C49.7264 10.2766 50.0097 10.6048 50.293 10.933C51.143 11.9997 51.9525 12.9432 52.6811 13.9689C52.6406 13.8868 52.6406 13.8868 52.6001 13.8048C52.6001 13.8048 52.6001 13.8048 52.6406 13.8458L52.6811 13.9689C52.9239 14.2971 53.1667 14.7483 53.4096 14.9534L53.531 15.1175L53.612 15.2816C53.9762 15.938 54.2596 16.6765 54.6238 17.1277C54.7048 17.2918 54.7453 17.2918 54.8262 17.4559C55.0286 17.9072 55.231 18.3585 55.4333 18.6867C55.4738 18.7687 55.4738 18.7687 55.5143 18.7687C55.5548 18.8098 55.5548 18.7687 55.5143 18.6457C55.2714 17.579 54.7857 16.5124 54.0572 15.3637C53.8548 15.0765 53.612 14.6663 53.4096 14.3381C52.1549 11.9997 50.5359 10.3177 48.755 8.84078C48.5122 8.59464 48.3098 8.38951 48.1074 8.30746C47.8646 8.10234 47.6217 7.89722 47.4598 7.85619C47.217 7.65107 47.0146 7.48697 46.8527 7.3639C46.5289 7.07673 46.2051 6.78955 45.8813 6.50238C44.4647 5.23062 42.8052 4.28705 41.1053 3.50759C40.3363 3.13837 39.4863 2.89222 38.6768 2.44095C38.0697 2.11275 37.3007 1.78456 37.5435 2.1948C37.584 2.27685 37.0578 2.11275 36.734 2.0307C36.1269 1.8666 35.3984 1.57943 34.7508 1.45636C34.6698 1.45636 34.5484 1.41533 34.5079 1.37431C34.3865 1.33329 34.2651 1.29226 34.0627 1.29226C33.9817 1.29226 33.9008 1.29226 33.7794 1.21021C33.2127 1.00509 32.6056 0.84099 32.039 0.717917C31.8366 0.676892 31.5937 0.594843 31.2699 0.553818C31.2294 0.471769 31.108 0.430745 30.8247 0.38972C30.6628 0.348695 30.5818 0.348695 30.3795 0.307671H30.2581C30.2176 0.307671 30.2176 0.307671 30.2176 0.307671C30.2581 0.307671 30.2985 0.307671 30.339 0.307671C30.2581 0.225622 30.1366 0.184597 29.7724 0.184597H29.7319C29.6914 0.0615234 29.57 0.0615234 29.2867 0.0615234C29.2057 0.0615234 29.0438 0.102548 29.0033 0.0615234C28.3558 0.102548 27.6677 0.225622 27.0201 0.307671C26.6558 0.266646 26.2511 0.307671 25.8868 0.348695C24.3083 0.430745 22.7702 0.676892 21.1917 1.04611V1.00509C20.5037 1.00509 19.6132 1.37431 18.8037 1.57943C18.4394 1.57943 17.9942 1.74353 17.6299 1.90763C17.3871 1.94865 17.0633 2.0307 16.699 2.1948C16.2943 2.3589 16.4562 2.39992 16.2133 2.523C16.0109 2.60505 15.849 2.72812 15.8086 2.81017C15.6871 2.89222 15.161 3.13837 15.3229 3.17939C15.3634 3.22042 15.4848 3.22042 15.7681 3.17939C15.8895 3.26144 16.1729 3.22042 16.6586 3.09734L16.7395 3.05632C16.699 3.05632 16.6586 3.09734 16.6586 3.09734C16.9824 3.13837 17.3061 3.22042 17.6299 3.26144C17.6704 3.38451 17.7918 3.42554 18.1966 3.34349C17.9537 3.46656 17.7514 3.63066 17.549 3.79476C16.9419 4.16398 16.1324 4.45115 15.8086 4.90242C14.9991 5.51779 14.0277 6.09214 13.3801 6.78955L13.4206 6.74853C13.0563 7.15877 12.4087 7.528 12.1254 7.93824C11.9635 8.10234 11.6397 8.34849 11.4778 8.59464L11.4373 8.67668L11.3159 8.75873C10.9516 9.12795 10.5873 9.49718 10.1826 9.8664C9.69691 10.2766 9.2112 10.6869 8.80645 11.2612C8.28028 11.9587 7.3089 13.0663 6.74225 13.9689C6.1756 14.9124 5.28517 15.815 5.00184 16.8406L5.04231 16.7995C5.00183 16.8406 5.00184 16.8406 5.00184 16.8406C4.4352 17.8662 3.90901 18.9328 3.46378 19.9995C3.13999 20.6559 2.89715 21.3533 2.69478 22.1738C2.6543 22.3789 2.57334 22.543 2.53287 22.7481C2.0067 24.184 1.60196 25.7429 1.48054 27.3429C1.39959 28.1634 1.27815 28.9018 1.44005 29.5992C1.44005 29.7223 1.44005 29.8043 1.44005 29.8454C1.3591 30.0505 1.35912 30.2966 1.35912 30.5838C1.19722 31.3222 1.35911 32.1427 1.39958 32.9222L1.44005 32.9632C1.44005 32.9632 1.44006 32.9632 1.39958 32.9222C1.31863 33.2504 1.39959 33.7427 1.48054 34.1529C1.44006 34.4401 1.60196 34.9734 1.60196 35.3837C1.64243 35.4657 1.64242 35.5478 1.64242 35.6298C1.60195 35.7939 1.64243 36.0811 1.72338 36.4093C1.76385 36.9016 1.92575 37.4349 2.12812 37.8041C2.20907 38.1734 2.29002 38.5016 2.45192 38.7887C2.57334 39.24 2.69477 39.6092 2.8162 40.0195C3.05905 40.6348 3.26143 41.4963 3.58523 42.0297C3.70665 42.2758 3.78758 42.563 3.86853 42.7681C4.0709 43.2194 4.19234 43.6706 4.43519 43.9578C4.51614 44.1219 4.59709 44.286 4.63756 44.4091C4.67804 44.5322 4.75899 44.6552 4.83993 44.7783C4.92088 44.9014 4.96136 44.9834 5.04231 45.1065C5.56848 46.2142 6.17559 47.2398 6.90413 48.1833C7.10651 48.4295 7.22794 48.5526 7.26842 48.5115C7.30889 48.4705 7.22794 48.2654 7.06604 48.0193C6.53987 47.1577 5.93276 46.2142 5.40659 45.3937C5.24469 45.0655 5.04231 44.6963 4.83993 44.327C4.31376 43.6296 4.15186 42.6861 3.74711 41.9476V42.0297C3.58521 41.6194 3.4638 41.2502 3.3019 40.84C3.14 40.5118 3.01856 39.9784 2.85666 39.6092C2.81619 39.4041 2.73525 39.24 2.69478 39.0349C2.69478 39.0759 2.73524 39.1169 2.73524 39.1169C2.77572 39.199 2.81619 39.24 2.85666 39.322C2.85666 39.24 2.8162 39.1579 2.8162 39.0759V39.0349C2.8162 38.9528 2.81621 38.8297 2.77573 38.7067C2.81621 38.5426 2.73524 38.2554 2.65429 37.9272H2.69478C2.69478 37.8452 2.69478 37.7631 2.69478 37.6811C2.93763 38.5836 3.22094 39.4451 3.54474 40.3066C3.82806 41.1271 4.23282 41.9066 4.51614 42.8091C4.71851 43.4655 5.04231 44.286 5.12326 43.7937C5.16374 43.7117 5.40658 44.204 5.56847 44.4911C5.89227 45.0655 6.21607 45.7219 6.58034 46.3372C6.62082 46.3783 6.70176 46.5013 6.70176 46.5834C6.74224 46.7065 6.8232 46.8295 6.94462 46.9936C6.9851 47.0347 7.06603 47.1167 7.10651 47.2398C7.916 48.8808 8.92789 50.3987 10.4659 51.6294C10.6683 51.7935 10.9112 52.0807 11.0731 52.2448C11.3159 52.655 11.7206 53.0242 12.1254 53.3524C13.3396 54.4191 14.5539 55.3626 15.93 56.2242V56.2652C16.4157 56.7575 17.3061 57.1267 17.9942 57.578C18.2371 57.8241 18.6823 58.0292 19.0466 58.1933C19.2489 58.3574 19.5323 58.4805 19.8965 58.6446C20.3013 58.8497 20.2203 58.6856 20.4632 58.7677C20.6655 58.8497 20.8679 58.8908 20.9489 58.8497C21.0703 58.8497 21.6369 59.0549 21.556 58.9318C21.556 58.8497 21.475 58.7677 21.2322 58.6446C21.1917 58.5215 20.9489 58.3164 20.5441 58.0703L20.4632 58.0292C20.5036 58.0292 20.5441 58.0703 20.5441 58.0703C20.3822 57.8241 20.1799 57.5369 19.9775 57.2498C20.018 57.1267 19.9775 56.9626 19.4108 56.6344C19.3704 56.5113 19.2489 56.3883 19.2085 56.2652C19.6132 56.4703 20.0584 56.6344 20.4632 56.7985C20.8679 56.9626 21.1512 56.9216 21.1512 56.8395C21.2727 56.7575 20.787 56.5934 20.5037 56.4293C20.1799 56.2652 19.8965 56.0601 19.8965 55.978C19.8561 55.8549 20.3418 56.0601 20.5846 56.1011C21.4346 56.3062 22.5274 56.8806 23.4988 57.0036C23.944 57.1267 24.5106 57.3729 24.9154 57.3318C25.563 57.4549 26.2511 57.701 26.8177 57.66C26.7772 57.619 26.6963 57.619 26.6558 57.578C26.6963 57.578 26.6963 57.578 26.6963 57.578L26.8177 57.619C27.4248 57.7011 28.1534 57.8652 28.6796 57.7831L28.5986 57.7421H28.6796C29.6509 57.7831 30.6628 58.0703 31.7556 57.8651C32.6056 57.7421 34.1032 57.66 35.115 57.4549C36.1674 57.2088 37.4221 57.1677 38.353 56.6754H38.272C38.3125 56.6344 38.3125 56.6754 38.3125 56.6754C40.3363 56.1421 42.3195 55.3626 44.1814 54.296C45.3956 53.7217 46.6099 53.0243 47.7027 52.1627C47.7431 52.2038 47.8646 52.2038 48.0669 52.0397L48.1884 51.9166C48.1884 51.9166 48.1074 51.9986 48.0669 52.0397C48.1884 52.0397 48.3098 52.0397 48.4312 51.9576C48.1479 52.1627 47.8645 52.4499 47.5812 52.614H47.6217C47.3384 52.7781 46.8932 53.1063 46.6098 53.2294C45.9623 53.4755 45.2742 54.0909 44.5456 54.4601C44.3837 54.5422 44.1409 54.6652 43.9385 54.7473C43.5338 54.8704 43.0076 55.2396 42.5624 55.3627C42.3195 55.4447 42.1576 55.5267 41.9957 55.6088C41.2672 55.978 40.5386 56.3062 39.7291 56.4703L39.6077 56.5113L39.5268 56.5524C37.2197 57.1267 35.5198 57.7421 33.7389 58.1523C37.1388 57.7831 40.4172 56.7575 43.4528 55.2806C43.6552 55.1575 43.8576 55.0755 44.1004 54.9524C44.6671 54.8293 45.2742 54.4191 45.8408 54.0088C46.1646 53.8037 46.4479 53.6396 46.7717 53.4345C47.0955 53.2704 47.4598 52.9832 47.7431 52.8191C47.8646 52.7371 47.9455 52.655 48.0265 52.614C48.3098 52.4909 48.674 52.2038 48.9978 51.9166C49.0788 51.8345 49.2407 51.7525 49.2812 51.6704C49.4026 51.5884 49.605 51.5063 49.6859 51.4243C49.8478 51.2602 49.9693 51.1371 50.1312 51.014C50.2121 50.973 50.3335 50.891 50.5359 50.6858H50.5764C50.6168 50.6858 50.7383 50.6038 50.9407 50.4397C50.9811 50.3577 51.1026 50.2346 51.143 50.2346C52.0739 49.1269 52.8842 47.8551 53.6533 46.6244C53.9366 46.1731 54.2191 45.7219 54.4215 45.2706C54.6238 44.9834 54.8262 44.6552 54.9476 44.3681C55.0286 44.245 55.15 44.1219 55.231 43.9988C55.7976 42.4809 56.4452 40.881 56.688 39.4041C56.8904 38.7067 57.2547 37.9272 57.1737 37.3529C57.3356 36.3272 57.619 35.2196 57.5785 34.276L57.538 34.3581ZM52.1144 12.6971C52.0739 12.6971 52.0739 12.6971 52.1144 12.6971V12.6971ZM16.6586 2.64607C16.6586 2.64607 16.6181 2.60505 16.699 2.56402C16.7395 2.523 16.78 2.523 16.8204 2.523C16.7395 2.56402 16.6586 2.64607 16.6586 2.64607ZM20.1799 58.4395C20.1799 58.4395 20.1799 58.4805 20.0989 58.4805C20.0584 58.4805 20.018 58.4395 19.9775 58.4395C20.0584 58.4395 20.1799 58.4395 20.1799 58.4395ZM55.5952 33.0453C55.6357 32.4299 55.6762 31.8145 55.5952 31.2402C55.7167 31.7325 55.6357 32.3889 55.5952 33.0453ZM55.6762 21.3123C55.6357 21.2712 55.5952 21.1071 55.5547 21.1071C55.5547 21.0251 55.5143 20.943 55.5143 20.861C55.5548 21.0251 55.6357 21.1892 55.6762 21.3123ZM55.4333 24.8814C55.4333 24.9224 55.4333 25.0045 55.3929 24.9634C55.3929 24.9634 55.4333 24.9224 55.4333 24.8814ZM54.2191 28.5326C54.2191 28.6557 54.2596 28.7377 54.2596 28.8197C54.2596 29.0659 54.2191 28.7787 54.1786 28.6557C54.1786 28.6557 54.2191 28.6557 54.2191 28.5326ZM53.8548 32.8812V32.9632C53.8548 33.0043 53.8548 32.8812 53.8548 32.8812ZM48.0265 48.1423C48.0669 48.0603 48.1074 47.9782 48.1884 47.8962C48.2288 47.4859 48.755 46.7065 49.1598 45.8449C48.9979 46.4603 48.5931 47.1988 48.1884 47.8962C48.1884 47.9372 48.1479 47.9782 48.1884 48.0193C48.1074 48.0193 48.0669 48.0603 48.0265 48.1423ZM12.0849 47.7321C12.0444 47.7321 12.004 47.65 11.9635 47.65V47.609C11.8825 47.527 11.923 47.568 11.8825 47.527C11.8825 47.527 11.923 47.527 11.9635 47.609C12.004 47.609 12.004 47.609 12.004 47.609L12.0444 47.65C12.0849 47.6911 12.0849 47.6911 12.0849 47.7321ZM7.18746 46.2552C7.18746 46.2142 7.147 46.2142 7.147 46.2142C7.18747 46.2552 7.22794 46.2142 7.18746 46.1731C7.18746 46.1731 7.18746 46.1731 7.18746 46.1321C7.18746 46.1321 7.18748 46.1321 7.22795 46.1731C6.9851 45.6809 6.74224 44.9834 6.98509 45.0655C7.22794 45.4347 7.51128 46.009 7.83507 46.3783C7.99697 46.5834 8.15885 46.8295 8.32075 47.0757C8.5636 47.6911 8.60408 47.8141 8.48266 48.0193C8.32076 47.7321 8.07791 47.4859 7.87554 47.1167C7.75411 46.8295 7.4708 46.5013 7.22795 46.1731C7.22795 46.2142 7.22794 46.2142 7.18746 46.2552ZM7.59221 38.7477C7.55174 38.7067 7.51127 38.7067 7.47079 38.7067C7.43032 38.8708 7.38985 39.0349 7.34937 39.1169C7.38985 38.9528 7.38984 38.7067 7.47079 38.7067C7.47079 38.5836 7.51126 38.5015 7.51126 38.3785C7.55173 38.5015 7.55174 38.5426 7.59221 38.7477ZM6.70176 43.7117C6.70176 43.7117 6.70177 43.6706 6.6613 43.6706C6.74225 43.7937 6.86368 43.9988 6.94462 44.1219H6.90413C6.86366 43.9988 6.82319 43.8758 6.70176 43.7117ZM6.25655 41.0451C6.1756 40.922 6.1756 40.881 6.13513 40.84C6.13513 40.7989 6.09464 40.7169 6.09464 40.6759C6.13512 40.7989 6.21607 40.922 6.25655 41.0451ZM5.40659 37.3529C5.36612 37.3529 5.32562 37.3118 5.28515 37.2298C5.28515 37.2298 5.28515 37.2298 5.28515 37.1477C5.28515 37.2708 5.36612 37.3939 5.40659 37.3529ZM2.85666 35.0145C2.85666 34.9734 2.8162 34.8914 2.8162 34.8914C2.8162 34.9734 2.81619 34.9734 2.85666 35.0145ZM3.58523 37.7221C3.54475 37.7221 3.54474 37.9272 3.62569 38.1323C3.54474 38.0093 3.50426 37.8452 3.46378 37.6811C3.46378 37.599 3.54475 37.6811 3.58523 37.7221ZM4.92089 36.1632C4.83994 36.0401 4.79946 35.917 4.71851 35.5888C4.79946 35.835 4.83994 35.9991 4.92089 36.1632ZM5.12326 37.6811C5.12326 37.4759 5.08278 37.3529 5.16373 37.3118C5.08278 37.3118 5.08279 37.4759 5.12326 37.6811ZM2.29003 29.9274C2.29003 29.9684 2.29003 29.9684 2.29003 29.9684C2.29003 30.1325 2.24954 30.2556 2.24954 30.3787C2.24954 30.4197 2.24954 30.4607 2.24954 30.5018C2.24954 30.4607 2.24954 30.4607 2.24954 30.4607C2.24954 30.4197 2.24954 30.4197 2.24954 30.4197C2.24954 30.2556 2.29003 30.1325 2.29003 30.0095C2.29003 29.9274 2.29003 29.9274 2.29003 29.9274ZM1.84479 34.4401C1.88527 34.4401 1.88527 34.4401 1.92575 34.3991C1.92575 34.4811 1.92576 34.5632 1.96624 34.6452C1.88529 34.5632 1.88527 34.4811 1.84479 34.4401C1.76385 34.4401 1.68291 34.317 1.60196 34.1529C1.68291 34.194 1.76385 34.317 1.84479 34.4401ZM5.44705 42.1527C5.528 42.3168 5.52801 42.3989 5.60896 42.522C5.64944 42.6861 5.73037 42.8502 5.77085 42.9322V42.8502C5.81132 43.0143 5.85181 43.1373 5.93276 43.2604C6.13513 43.7117 6.53987 44.3681 6.25655 44.286C6.1756 44.245 6.17559 44.286 6.17559 44.327C6.09465 44.1629 6.01371 43.9988 5.93276 43.8758C5.93276 43.6706 5.64942 43.3014 5.48752 42.9322C5.44704 42.6861 5.36611 42.3989 5.24468 42.1117C5.36611 42.1938 5.40658 42.1938 5.44705 42.1527ZM31.5532 4.3691C31.5532 4.45115 31.3913 4.41013 31.3913 4.45115C31.3913 4.41013 31.5532 4.41013 31.5532 4.3691ZM29.6914 4.12296C29.6509 4.12296 29.7319 4.12296 29.6914 4.12296C29.6509 4.12296 29.5295 4.12296 29.5295 4.12296H29.6105C29.7319 4.08193 29.9343 4.08193 30.1366 4.08193C30.0152 4.12296 29.7724 4.08193 29.6914 4.12296ZM30.0962 4.41013C30.0962 4.41013 30.0557 4.41013 30.0152 4.41013C29.9747 4.41013 29.9747 4.41013 29.9747 4.41013H29.8938C29.8533 4.41013 29.8533 4.41013 29.8128 4.41013C29.8533 4.41013 29.8938 4.41013 29.9343 4.41013H29.9747C30.0961 4.41013 30.0557 4.41013 30.0962 4.41013ZM50.0907 40.7989C50.0907 40.7579 50.1716 40.6758 50.1716 40.6348C50.1311 40.7169 50.0502 40.881 50.0907 40.7989ZM50.1312 41.0041C50.0907 41.0041 50.0907 41.0041 50.0907 41.0451C50.0907 41.0041 50.1312 41.0041 50.1312 41.0041C50.1312 40.963 50.1312 40.963 50.1312 41.0041ZM53.0048 32.6761C53.0048 32.7581 53.0049 32.7991 52.9644 32.9222C52.9644 32.7991 52.9644 32.7991 52.9239 32.7581C52.9644 32.6761 53.0048 32.7171 53.0048 32.6761ZM52.4787 18.3995C52.4787 18.3585 52.4382 18.3585 52.4382 18.3175C52.4382 18.2354 52.3977 18.2354 52.3977 18.2354C52.3977 18.2764 52.4382 18.3175 52.4787 18.3995ZM52.3573 15.6098C52.3573 15.6509 52.3573 15.6509 52.3573 15.6098C52.3168 15.5688 52.3168 15.6098 52.3573 15.6098ZM43.5338 7.73312C43.3314 7.61005 43.129 7.528 43.0076 7.44595C43.129 7.48697 43.2909 7.56902 43.5338 7.73312ZM41.8743 6.95365C41.9148 6.95365 41.9552 6.95365 41.9957 6.99468C41.9957 6.99468 41.9957 6.99468 42.0362 7.0357C41.9957 6.95365 41.9148 6.95365 41.8743 6.95365ZM42.0362 6.83058C42.0767 6.78955 41.9552 6.66648 41.7933 6.54341C41.9552 6.66648 42.0767 6.74853 42.0362 6.83058ZM38.8792 5.0255C38.9196 5.06652 39.0006 5.06652 39.0006 5.10755C38.9197 5.06652 38.7578 5.0255 38.6363 4.98447C38.7578 4.98447 38.8387 5.0255 38.8792 5.0255ZM36.0055 3.30246C36.1269 3.34349 36.2483 3.34349 36.4507 3.38451H36.4912C36.3697 3.34349 36.1674 3.30246 36.0055 3.30246ZM30.7033 0.307671C30.6628 0.307671 30.6628 0.307671 30.6223 0.348695L30.7033 0.307671ZM25.9677 0.471769C25.9677 0.471769 25.9677 0.471769 26.0487 0.471769C25.9677 0.471769 25.8463 0.471769 25.7654 0.471769H25.9677ZM6.82321 14.5022C6.82321 14.5432 6.82321 14.5842 6.82321 14.6252C6.78273 14.5842 6.78273 14.5432 6.82321 14.5022ZM6.78272 14.6663C6.74224 14.6663 6.74224 14.6663 6.78272 14.6663C6.74224 14.7073 6.70177 14.7073 6.6613 14.7073C6.70177 14.7073 6.74224 14.6663 6.78272 14.6663ZM1.48054 32.1017C1.48054 32.1427 1.44005 32.1838 1.44005 32.1427C1.44005 32.1427 1.44005 32.1427 1.44005 32.0607C1.48052 32.1427 1.48054 32.1427 1.48054 32.1017ZM5.08277 43.1784C5.00182 42.9732 4.92088 42.8091 4.83993 42.604C4.88041 42.645 4.92089 42.6861 4.92089 42.7271C4.96136 42.8502 5.04231 43.0963 5.12326 43.2604C5.12326 43.2604 5.12325 43.2194 5.08277 43.1784ZM6.98509 46.9116C6.49939 46.2142 6.09465 45.4347 5.8518 44.6963C5.81133 44.6142 5.77086 44.4911 5.73038 44.4091C5.81133 44.5322 5.89228 44.6963 5.93276 44.8193C6.01371 45.0245 6.21607 45.3527 6.37797 45.5988C6.41844 45.6398 6.45891 45.6809 6.49939 45.7219C7.10651 46.5424 7.63268 47.4039 8.4017 48.1423C8.4017 48.1833 8.36124 48.1833 8.36124 48.2244C8.11839 48.3064 7.55174 47.609 6.98509 46.9116ZM8.64457 41.4143C8.80647 41.4143 8.84694 41.2092 8.76599 40.84C8.80646 41.0861 8.84693 41.2912 8.88741 41.4963C9.00883 41.9066 8.80647 41.5784 8.64457 41.4143ZM8.96836 46.5013C9.00884 46.5013 8.92788 46.3783 9.00883 46.4603C9.08978 46.5424 9.00884 46.5424 9.04931 46.6244C9.04931 46.6244 9.00884 46.5834 8.96836 46.5013ZM10.8707 46.5424C10.9112 46.5013 11.0326 46.6244 11.0326 46.6244C10.9921 46.6244 10.8707 46.5013 10.8707 46.5424ZM11.6802 47.7731C11.7611 47.8141 11.923 48.0193 12.004 48.0193C12.0444 48.0603 12.004 48.0193 12.004 48.0603C12.0444 48.1013 12.1254 48.1833 12.1254 48.1833L12.0849 48.1423C11.9635 48.0603 11.8016 47.9372 11.6802 47.7731ZM12.0849 53.3114C12.0849 53.3114 12.0849 53.3114 12.0444 53.2704C12.0849 53.3114 12.2063 53.3935 12.2468 53.4345L12.0849 53.3114ZM13.2182 52.8601C13.2182 52.8191 13.2182 52.8191 13.2182 52.8601C13.0158 52.614 12.8944 52.4499 12.7325 52.2448L12.692 52.2038C12.7325 52.2448 12.7325 52.2448 12.7325 52.2448C13.1777 52.573 13.2182 52.6961 13.2182 52.8601C13.2587 52.8601 13.2587 52.9012 13.2992 52.9422C13.2587 52.9012 13.2587 52.9012 13.2182 52.8601ZM15.2015 49.4551C15.3229 49.4961 15.3229 49.4961 15.4443 49.5372C15.4038 49.5372 15.4443 49.6192 15.4443 49.6602C15.3634 49.5782 15.2824 49.5372 15.2015 49.4551ZM19.6537 52.9832C19.7751 53.0242 19.8156 53.0243 19.8965 53.0653C19.8156 53.0243 19.8156 53.0653 19.6537 52.9832ZM21.1108 53.7627C21.1512 53.8037 21.1512 53.8037 21.1108 53.7627H21.0703C20.9489 53.8037 20.706 53.7627 20.4632 53.6806C20.3417 53.6396 20.2203 53.5986 20.0989 53.5165H20.0584C19.937 53.4755 19.937 53.4755 19.856 53.4345C19.937 53.4755 20.018 53.5165 20.0989 53.5165C20.2203 53.5576 20.3417 53.6396 20.4632 53.6806C20.6655 53.7217 20.8679 53.7217 21.0703 53.7627H21.1108C20.9894 53.6396 20.9489 53.5576 20.8679 53.4755C20.8679 53.4755 20.8274 53.4755 20.8274 53.4345C20.8679 53.4345 20.8679 53.4345 20.8679 53.4345C20.8679 53.4345 20.8275 53.3935 20.787 53.3524C20.5037 53.1473 20.2203 52.9832 20.018 52.7781C19.7346 52.614 19.4108 52.3679 19.4108 52.3679C19.4108 52.3679 19.7346 52.573 19.9775 52.6961C20.018 52.7371 20.0179 52.7371 20.0584 52.7371C20.4632 52.9422 20.6655 53.1473 20.8274 53.3114C20.8679 53.3524 20.9084 53.3524 20.9489 53.3935C20.9489 53.3935 20.9489 53.3935 20.9084 53.3524C21.0703 53.5986 21.2322 53.7217 21.1108 53.7627ZM21.8393 53.8858L21.5155 53.7627C21.6369 53.8037 21.7584 53.8858 21.8798 53.9268C21.9203 53.9268 21.8798 53.9268 21.8393 53.8858ZM24.9963 55.2806C25.0368 55.2806 24.9154 55.2396 24.9154 55.1985C24.9559 55.2396 24.9963 55.2396 25.0773 55.2806C24.9963 55.2806 24.9963 55.2806 24.9963 55.2806ZM28.4772 55.978C28.3558 55.896 28.1938 55.8139 28.0319 55.7729C28.1534 55.7729 28.3557 55.7729 28.5581 55.8139C28.6795 55.8549 28.7605 55.937 28.4772 55.978ZM30.7033 54.214C30.7438 54.255 30.8247 54.255 30.9057 54.255C30.7842 54.214 30.7033 54.214 30.6223 54.214C30.7033 54.214 30.7033 54.214 30.7033 54.214ZM30.9866 54.6242C31.0271 54.6242 31.0271 54.6242 30.9866 54.6242C30.9866 54.6652 30.9057 54.6652 30.8247 54.6652C30.9057 54.6652 30.9461 54.6652 30.9866 54.6242ZM35.5198 57.0447C35.4793 57.0857 35.4793 57.1267 35.3983 57.1267C35.4388 57.1267 35.4793 57.0857 35.5198 57.0447C35.5198 57.0447 35.6007 57.0857 35.6817 57.0857C35.6412 57.0857 35.6007 57.0447 35.5198 57.0447ZM37.9078 54.214C37.7864 54.255 37.6649 54.296 37.6245 54.255C37.584 54.255 37.6245 54.255 37.5435 54.255C37.584 54.255 37.584 54.255 37.6245 54.214V54.255H37.7864C37.8268 54.214 37.8673 54.214 37.9078 54.214H37.9482C37.9482 54.214 37.9483 54.214 37.9078 54.214ZM43.4123 51.6704C43.0481 51.8345 42.7243 51.9986 42.6028 51.9166C42.4005 51.8756 42.8052 51.6294 43.129 51.4243C43.2504 51.3422 43.4528 51.2192 43.3314 51.1781C43.129 51.2192 42.8052 51.4653 42.6433 51.4243C42.9267 51.2192 43.2909 51.0961 43.5742 50.8499C43.4933 50.8499 43.4528 50.891 43.4528 50.8499H43.4123C43.4528 50.8499 43.4528 50.8499 43.4528 50.8499C43.5338 50.8089 43.5742 50.8089 43.5742 50.8499C43.6147 50.8089 43.6957 50.7679 43.7361 50.7269C44.1004 50.5628 44.5052 50.1936 44.9099 50.0295C45.4766 49.7423 45.8813 49.332 46.367 48.8808H46.4075L46.4479 48.8397C46.4075 48.8397 46.4075 48.8397 46.4075 48.8397C46.7313 48.3475 46.286 48.7577 46.0027 48.9628L45.8813 49.0449L45.8004 49.0859C45.5575 49.1269 45.1932 49.4961 44.9504 49.5782C45.8813 48.7987 46.8527 48.0603 47.7027 47.1577C47.7431 47.1167 47.8241 47.0347 47.905 46.9936V47.0347C47.8646 47.1577 47.9455 47.0757 48.0265 46.9526C48.0669 46.8706 48.1479 46.7885 48.1479 46.7885C48.3098 46.6244 48.4312 46.4603 48.4312 46.3783C48.4312 46.2142 48.5122 46.0501 48.6336 45.886C48.836 45.7629 49.1598 45.4347 49.3217 45.4757C49.2002 45.6809 49.1598 45.8039 49.1598 45.886C48.7145 46.5424 48.5526 46.8706 48.3098 47.3218C48.0669 47.7731 47.986 48.0603 47.5812 48.5936C47.3384 48.8397 47.136 49.1269 46.9336 49.3731C46.8932 49.4141 46.8122 49.4551 46.7717 49.4961C45.6789 50.3166 44.5456 51.014 43.4123 51.6704ZM44.6266 51.4243C44.6671 51.4243 44.748 51.3422 44.748 51.3422C44.7885 51.3422 44.829 51.3012 44.8694 51.3012C44.9099 51.2602 44.9909 51.2602 45.0313 51.2192C44.9909 51.2192 44.9504 51.2602 44.8694 51.3012C44.7885 51.3422 44.7075 51.4243 44.6266 51.4243Z" fill="#FFB142"/>
<path fill-rule="evenodd" clip-rule="evenodd" d="M8.39919 11.1382C8.31824 11.4254 7.58969 12.2048 7.46826 12.6151C8.60157 11.3023 8.64204 11.3433 8.39919 11.1382Z" fill="#FFB142"/>
<path fill-rule="evenodd" clip-rule="evenodd" d="M1.27743 26.3993C1.35838 26.0711 1.43934 25.5378 1.56076 25.2506C1.88456 24.5942 1.88456 23.6507 2.16788 22.9122C2.20836 22.7481 2.28931 22.502 2.37026 22.2558C2.57263 21.8456 2.65358 21.2302 2.89643 20.82C2.97737 20.5738 3.05831 20.4097 3.13926 20.2456C3.42259 19.4662 3.70592 18.6867 4.11067 18.0303L4.15113 17.9072L4.19162 17.8252C4.92017 16.6355 5.48682 15.5688 6.01299 14.5842L6.4582 13.8868C6.6201 13.6407 6.70105 13.4355 6.66058 13.3945C6.82248 13.1073 6.98438 12.8202 7.14628 12.574C5.24397 14.9535 3.74638 17.7021 2.65356 20.5328C2.61309 20.4507 2.53214 20.6148 2.45119 20.861C2.28929 21.4353 2.04644 21.9687 1.92502 22.543C1.72265 23.0353 1.56076 23.6096 1.47981 24.184C1.39886 24.5532 1.31789 24.8814 1.23694 25.2506C1.11552 25.5788 1.07505 26.0301 0.994104 26.3993C0.994104 26.5634 0.953639 26.6455 0.953639 26.7275C0.832214 27.0147 0.791739 27.466 0.751265 27.9172C0.751265 28.0403 0.710775 28.2044 0.710775 28.2864C0.6703 28.4505 0.62983 28.6146 0.589355 28.7377C0.589355 29.23 0.589355 29.6403 0.589355 30.1325C0.589355 30.1736 0.62982 30.2146 0.62982 30.2146C0.670295 30.2556 0.67031 30.2556 0.67031 30.1325C0.710785 30.0505 0.751265 29.9274 0.751265 29.7633C0.832214 29.5582 0.79172 29.189 0.832195 28.9018C0.832195 28.8198 0.832195 28.6967 0.832195 28.6146C0.913144 28.4095 0.953629 28.1634 0.994104 27.7941C0.953629 27.9172 0.953624 27.9993 0.913149 28.0813C0.913149 28.1223 0.872684 28.1634 0.872684 28.2044C0.872684 28.2044 0.872684 28.2044 0.872684 28.1634C0.872684 28.1223 0.913149 28.1223 0.913149 28.0813C0.953624 27.9993 0.953629 27.8762 0.994104 27.7941C1.156 27.507 1.11553 26.8096 1.27743 26.3993Z" fill="#FFB142"/>
<path fill-rule="evenodd" clip-rule="evenodd" d="M51.4249 10.7689C50.8178 9.82535 50.1702 9.37408 49.644 8.96384C50.2512 9.41511 50.8583 10.3587 51.4249 10.7689Z" fill="#FFB142"/>
<path fill-rule="evenodd" clip-rule="evenodd" d="M54.5437 15.2817C54.7461 15.6099 54.9484 16.0201 55.1508 16.4303C55.2722 16.5944 55.3532 16.8406 55.4341 16.9226C55.596 17.1278 55.5556 16.8816 55.3937 16.6355C54.9889 15.856 54.6651 15.0355 54.1795 14.4612C54.139 14.3791 54.058 14.2971 53.9771 14.174C53.8152 13.9278 53.6533 13.7227 53.5724 13.7227C53.4914 13.6817 53.6533 13.9278 53.7342 14.133C54.058 14.5022 54.3009 14.9535 54.5437 15.2817Z" fill="#FFB142"/>
<path fill-rule="evenodd" clip-rule="evenodd" d="M10.6676 8.8408C10.5867 8.8408 10.5057 8.92284 10.3843 9.00489C10.3034 9.08694 10.1819 9.21002 10.101 9.33309C10.2224 9.25104 10.3034 9.21002 10.3843 9.12797C10.5867 9.04592 10.7081 8.88182 10.6676 8.8408Z" fill="#FFB142"/>
<path fill-rule="evenodd" clip-rule="evenodd" d="M9.49178 10.1126C9.53226 10.0715 9.53226 10.0305 9.57274 9.94846C9.49179 9.98948 9.37035 10.1126 9.2894 10.1536C9.2894 10.1536 9.20844 10.3177 9.2894 10.2767C9.2894 10.2767 9.41083 10.1536 9.49178 10.1126Z" fill="#FFB142"/>
<path fill-rule="evenodd" clip-rule="evenodd" d="M55.3534 43.9168C55.2724 43.9989 55.2724 43.8348 55.151 44.163C55.1105 44.245 55.1105 44.3271 55.151 44.3271C55.1914 44.286 55.2724 44.163 55.3534 44.0399C55.4343 43.9168 55.4343 43.7938 55.3534 43.9168Z" fill="#FFB142"/>
<path fill-rule="evenodd" clip-rule="evenodd" d="M57.6166 24.8404C57.6976 24.8814 57.6166 24.5122 57.5761 24.307L57.3333 23.0353C57.2119 22.7891 57.1714 22.8302 57.1714 23.0763L57.4143 24.307C57.4952 24.6352 57.5762 24.8404 57.6166 24.8404Z" fill="#FFB142"/>
<path fill-rule="evenodd" clip-rule="evenodd" d="M44.4644 6.58441L44.5858 6.70749L44.5048 6.58441H44.4644Z" fill="#FFB142"/>
<path d="M42.5632 20.2867C41.8751 20.4918 41.349 20.4508 41.349 20.4508L41.3894 20.3277C42.037 19.7944 43.6155 18.2355 43.8179 17.497C43.8989 17.1688 43.8179 17.0868 43.8179 17.0458L41.7537 17.9073L40.0538 18.6867C38.88 17.415 37.0991 16.5945 35.0754 16.5945C31.5136 16.5945 28.6399 19.138 28.6399 22.2969C28.6399 22.8712 28.7208 23.9379 28.9232 24.4302C28.9232 24.2661 28.9232 24.5943 28.9232 24.4302C26.6161 24.3481 23.702 23.4046 21.0711 22.0508C15.8903 19.5072 15.5665 17.6611 15.5665 17.6611C14.757 18.5226 14.3523 21.4354 15.1618 23.6917C15.688 25.1276 17.5093 26.4404 17.5093 26.4404C17.5093 26.4404 16.6998 26.4404 15.8499 26.1532C14.9999 25.866 14.6761 25.5789 14.6761 25.5789C14.1904 26.8096 15.2023 29.0249 16.9427 30.6249C17.9546 31.5685 19.8164 32.1428 19.8164 32.1428L16.9022 32.2249C16.7403 35.0966 22.8115 36.7786 22.8115 36.7786C21.0306 38.1734 18.9664 38.9939 16.7403 38.9939C15.607 38.9939 14.4737 38.8298 13.4214 38.5016C16.3356 40.9631 20.0997 42.6451 24.1877 42.3989C35.0349 41.8246 41.1871 32.3479 41.4704 23.0764C41.4704 23.0764 41.9966 22.8302 43.0489 21.7226C44.1417 20.6149 44.8298 19.3431 44.8298 19.3431C44.8298 19.3431 43.2513 20.1226 42.5632 20.2867Z" fill="white"/>
</svg>
