<svg width="24" height="24" viewBox="0 0 24 24" fill="none" xmlns="http://www.w3.org/2000/svg">
<path d="M11.9423 1.66449L23.3204 5.59311L23.3171 5.61269C23.3412 5.62099 23.3632 5.6343 23.3818 5.65175C23.4003 5.66919 23.4149 5.69037 23.4247 5.71389C23.4345 5.7374 23.4391 5.76271 23.4384 5.78817C23.4376 5.81289 23.4318 5.83718 23.4213 5.85954C23.3976 5.90576 23.3577 5.94159 23.3092 5.9601L20.9132 6.80869L20.5801 6.92665V7.28V7.45732V7.46L20.5108 13.9345C20.4011 14.3317 20.1145 14.7115 19.6319 15.0654C19.1283 15.4347 18.4422 15.752 17.6228 16.0092C15.985 16.5234 13.906 16.77 11.9401 16.77L11.9392 16.77C10.6511 16.7723 9.36537 16.661 8.09682 16.4376L8.09682 16.4376L8.09228 16.4368L7.79228 16.3868L7.21008 16.2898V16.88V18.06V18.3586L7.47303 18.5002L7.60303 18.5702L7.60324 18.5703C7.79512 18.6735 7.95557 18.8266 8.06766 19.0135C8.17962 19.2001 8.23919 19.4134 8.24008 19.631V21.0993C8.21284 21.3993 8.07552 21.6789 7.85424 21.8839C7.62869 22.0928 7.33256 22.2089 7.02508 22.2089C6.71761 22.2089 6.42148 22.0928 6.19593 21.8839C5.97465 21.6789 5.83732 21.3993 5.81008 21.0993V19.6H5.81017L5.80999 19.5905C5.80583 19.3714 5.86277 19.1555 5.97442 18.9669C6.08607 18.7783 6.24802 18.6246 6.44214 18.5229L6.45743 18.5149L6.47213 18.5058L6.60213 18.4258L6.84008 18.2794V18V16.48V16.1196L6.4982 16.0057L6.3182 15.9457L6.3182 15.9456L6.31488 15.9446C5.68826 15.7406 4.99071 15.4593 4.42143 15.0867C3.86613 14.7231 3.49673 14.3151 3.37008 13.8664V7.42V7.05817L3.02639 6.94506L0.656392 6.16506L0.590575 6.1434C0.587332 6.1405 0.584202 6.13747 0.581194 6.13431C0.564841 6.11712 0.552517 6.09651 0.545113 6.07397L0.538778 6.05468L0.5309 6.03597C0.522108 6.01509 0.517578 5.99266 0.517578 5.97C0.517578 5.9521 0.520404 5.93435 0.525925 5.91739C0.536168 5.90009 0.549108 5.88451 0.564283 5.87123C0.583189 5.85469 0.605188 5.84206 0.629006 5.83407L0.637098 5.83136L0.645093 5.82837L11.7923 1.66315C11.8413 1.64886 11.8935 1.64931 11.9423 1.66449ZM6.21439 15.5442L6.90008 15.8185V15.08V8.61V8.24962L6.5582 8.13566L4.3982 7.41566L3.74008 7.19629V7.89V13.47C3.74008 13.9436 4.00945 14.3245 4.37229 14.6193C4.73224 14.9118 5.24078 15.1689 5.86897 15.4061L6.21439 15.5442ZM20.2659 13.6145L20.2699 13.5837L20.2701 13.5526L20.3001 7.75259L20.3038 7.03809L19.6312 7.27937L12.2117 9.94126C12.207 9.94108 12.2022 9.94052 12.1975 9.93959L12.0744 9.91511L11.9971 9.93867L7.95785 8.59554L7.30008 8.37682V9.07V15.49V15.99H7.80008H7.95014C9.23392 16.2474 10.5399 16.378 11.8493 16.38H11.8501H12.0001C14.3593 16.38 16.325 16.0416 17.7333 15.5635C18.4355 15.3251 19.017 15.0459 19.4422 14.7433C19.8437 14.4576 20.2054 14.0796 20.2659 13.6145ZM11.9259 9.53563L12.0877 9.58808L12.2479 9.531L21.3979 6.271L22.7499 5.78928L21.3912 5.32668L12.0512 2.14668L11.8829 2.08936L11.7162 2.15123L2.60616 5.53123L1.26245 6.02977L2.62467 6.47524L6.84467 7.85524L7.04474 7.92066L7.23137 7.82329L10.6814 6.02329L10.6888 6.01944L10.696 6.01533C10.729 5.99668 10.7669 5.98833 10.8047 5.99137C10.8425 5.99441 10.8785 6.0087 10.9082 6.0324C10.9378 6.05609 10.9596 6.08811 10.9709 6.12433C10.9822 6.16055 10.9823 6.19931 10.9714 6.23563L10.9713 6.23561L10.9691 6.24327C10.9631 6.26466 10.9526 6.28454 10.9384 6.30165C10.9242 6.31877 10.9066 6.33274 10.8867 6.34267L10.8867 6.34257L10.8773 6.3475L8.57729 7.5575L7.52741 8.10983L8.6559 8.47564L11.9259 9.53563Z" fill="#383641" stroke="white"/>
</svg>
