<svg width="58" height="60" viewBox="0 0 58 60" fill="none" xmlns="http://www.w3.org/2000/svg">
<path fill-rule="evenodd" clip-rule="evenodd" d="M31.6824 58.2959C31.9657 58.1729 33.018 58.0908 33.3823 57.9267C31.6419 58.0498 31.6419 58.0088 31.6824 58.2959Z" fill="#FFB142"/>
<path fill-rule="evenodd" clip-rule="evenodd" d="M0.962801 27.7326C0.760427 28.8403 0.881851 29.6197 0.962801 30.2761C0.881851 29.5377 1.08422 28.389 0.962801 27.7326Z" fill="#FFB142"/>
<path fill-rule="evenodd" clip-rule="evenodd" d="M28.4458 58.2549C28.4863 58.2959 28.6482 58.3369 28.7696 58.3369C28.891 58.3369 29.0529 58.3369 29.2148 58.2959C29.0529 58.2549 28.972 58.2549 28.891 58.2139C28.6482 58.2139 28.4458 58.2139 28.4458 58.2549Z" fill="#FFB142"/>
<path fill-rule="evenodd" clip-rule="evenodd" d="M30.1858 58.2549C30.1049 58.2959 30.1049 58.2959 30.0239 58.3369C30.1049 58.3369 30.2668 58.378 30.3882 58.378C30.3882 58.3369 30.5501 58.3369 30.4691 58.2959C30.4287 58.2959 30.2668 58.2959 30.1858 58.2549Z" fill="#FFB142"/>
<path fill-rule="evenodd" clip-rule="evenodd" d="M32.9368 0.492324C33.9082 0.697447 35.001 0.943594 35.9724 1.18974C36.3367 1.27179 36.7414 1.39486 37.1057 1.51794C37.9557 1.64101 38.7652 2.21536 39.5342 2.42048L39.4937 2.37945C39.8985 2.58458 40.2627 2.70765 40.6675 2.91277C41.0318 3.03585 41.477 3.32302 41.8008 3.44609C42.4484 3.81531 43.096 4.14351 43.6221 4.51273C43.9459 4.71786 44.1483 4.88195 44.3507 4.964C44.8364 5.2922 45.2816 5.6204 45.8078 5.98962C46.0102 6.07167 46.2935 6.35884 46.4554 6.44089C46.6173 6.52294 46.7387 6.60499 46.8197 6.64601C46.6173 6.35884 46.253 6.07167 45.8887 5.82552L44.1483 4.63581C43.6221 4.26659 43.1769 3.89736 42.6508 3.77429C42.246 3.56917 41.8817 3.36404 41.5175 3.15892C40.9103 2.91277 40.1818 2.4615 39.5342 2.29741C39.2914 2.17433 39.008 2.09228 38.8057 1.96921C38.3604 1.80511 37.9152 1.55896 37.5509 1.51794C37.389 1.47691 37.2271 1.39486 37.1057 1.35384C36.9843 1.31282 36.8629 1.27179 36.701 1.23077C36.5795 1.18974 36.4581 1.14872 36.3367 1.14872C35.2034 0.738471 34.0296 0.451299 32.8963 0.287201C32.5725 0.246176 32.4106 0.246177 32.4106 0.328226C32.4511 0.36925 32.6535 0.451299 32.9368 0.492324ZM43.8245 4.55376C43.9459 4.59478 44.0674 4.71786 44.2293 4.84093C44.0674 4.71786 43.9055 4.63581 43.8245 4.55376Z" fill="#FFB142"/>
<path fill-rule="evenodd" clip-rule="evenodd" d="M53.3769 46.5629C53.3364 46.6039 53.3364 46.6449 53.3364 46.6449L53.3769 46.5629Z" fill="#FFB142"/>
<path fill-rule="evenodd" clip-rule="evenodd" d="M57.2645 34.2555C57.3859 33.5171 57.5074 32.7376 57.4264 31.9171C57.3859 31.9581 57.3859 32.0402 57.3454 32.1222C57.3454 31.9581 57.3454 31.794 57.3454 31.6299L57.305 31.5069V31.3838C57.305 30.7684 57.305 30.112 57.3454 29.4556C57.3454 29.3326 57.305 29.2505 57.2645 29.0864C57.1026 27.2813 56.7788 25.3942 56.2931 23.6302C56.2526 23.5071 56.1717 23.343 56.1312 23.2199C55.686 21.702 55.2003 20.3072 54.5932 18.7893C54.5527 18.7072 54.4313 18.5431 54.3908 18.4611C54.3098 18.297 54.2694 18.1739 54.2289 18.0508C54.1884 17.8047 54.067 17.5585 53.8646 17.3124C53.3789 16.3688 52.9742 15.3432 52.3266 14.6868C51.4766 13.6202 50.5052 12.2253 49.4934 11.1997C49.0077 10.6664 48.6839 10.092 48.1982 9.59975C47.7125 9.14848 47.6315 9.31258 46.903 8.73823C46.1339 8.16389 45.4054 7.46647 44.5554 6.89213L44.515 6.97418C44.515 6.93315 44.4745 6.8511 44.5554 6.89213L44.2316 6.64598L44.1912 6.72803C43.8269 6.48188 43.5031 6.23574 43.1793 6.03061C43.0983 5.98959 42.9364 5.94856 42.815 5.86651L42.6936 5.82549L42.6126 5.74344C42.3293 5.49729 41.9246 5.37422 41.7627 5.1691C41.9651 5.1691 42.5722 5.53832 42.6531 5.45627C41.5198 4.71783 40.7913 4.47168 40.3056 4.47168C40.0627 4.34861 39.7389 4.18451 39.7794 4.14348C39.9818 3.97938 39.4556 3.81529 38.808 3.61016C38.2819 3.44606 38.12 3.48709 38.12 3.61016C37.9581 3.52811 37.8771 3.52811 37.7557 3.44606C37.5938 3.36402 37.4724 3.32299 37.3509 3.28197H37.4724C37.3105 3.19992 37.189 3.15889 37.0676 3.11787C36.6224 2.95377 35.8938 2.74865 36.1367 2.62557C36.3391 2.54352 36.0153 2.42045 35.4891 2.25635C35.0439 2.13328 34.5987 1.92816 34.113 1.96918C34.6391 2.13328 35.2867 2.46147 35.0844 2.58455C34.8415 2.54352 34.5987 2.46147 34.3153 2.42045C34.1534 2.25635 34.032 2.13328 33.7892 1.96918C33.7487 1.88713 33.6677 1.84611 33.4249 1.76406C33.3844 1.59996 33.263 1.39484 32.9797 1.23074C33.2225 1.23074 33.5058 1.27176 33.7892 1.31279C34.6391 1.47688 35.4486 1.72303 36.1772 2.05123C36.6224 2.29738 37.189 2.46147 37.7557 2.54352C38.4842 2.87172 39.2128 3.15889 39.9413 3.48709C41.7627 4.34861 43.4626 5.33319 45.0816 6.31778H45.0411C45.972 6.89213 46.7815 7.75365 47.672 8.45106C48.0363 8.65619 48.441 9.10746 48.8458 9.5177C48.9672 9.64078 49.1291 9.76385 49.2505 9.92795C49.5338 10.1741 49.8172 10.5023 50.1005 10.8305C50.9504 11.8971 51.7599 12.8407 52.4885 13.8663C52.448 13.7843 52.448 13.7843 52.4075 13.7022C52.4075 13.7022 52.4075 13.7022 52.448 13.7432L52.4885 13.8663C52.7313 14.1945 52.9742 14.6458 53.217 14.8509L53.3385 15.015L53.4194 15.1791C53.7837 15.8355 54.067 16.5739 54.4313 17.0252C54.5122 17.1893 54.5527 17.1893 54.6336 17.3534C54.836 17.8047 55.0384 18.2559 55.2408 18.5841C55.2812 18.6662 55.2812 18.6662 55.3217 18.6662C55.3622 18.7072 55.3622 18.6662 55.3217 18.5431C55.0789 17.4765 54.5932 16.4098 53.8646 15.2611C53.6623 14.974 53.4194 14.5637 53.217 14.2355C51.9623 11.8971 50.3433 10.2151 48.5624 8.73823C48.3196 8.49209 48.1172 8.28696 47.9148 8.20492C47.672 7.99979 47.4291 7.79467 47.2672 7.75364C47.0244 7.54852 46.822 7.38442 46.6601 7.26135C46.3363 6.97418 46.0125 6.68701 45.6887 6.39983C44.2721 5.12807 42.6126 4.18451 40.9127 3.40504C40.1437 3.03582 39.2937 2.78967 38.4842 2.3384C37.8771 2.0102 37.1081 1.68201 37.3509 2.09225C37.3914 2.1743 36.8652 2.0102 36.5414 1.92816C35.9343 1.76406 35.2058 1.47688 34.5582 1.35381C34.4772 1.35381 34.3558 1.31279 34.3153 1.27176C34.1939 1.23074 34.0725 1.18971 33.8701 1.18971C33.7892 1.18971 33.7082 1.18971 33.5868 1.10766C33.0201 0.902541 32.413 0.738442 31.8464 0.615369C31.4821 0.492295 31.2392 0.45127 30.9155 0.410246C30.875 0.328197 30.7536 0.287172 30.4702 0.246147C30.3083 0.205123 30.2274 0.205123 30.025 0.164098H29.9036C29.8631 0.164098 29.8631 0.164098 29.8631 0.164098C29.9036 0.164098 29.9441 0.164098 29.9845 0.164098C29.9036 0.0820492 29.7822 0.0410246 29.4179 0.0410246H29.3774C29.4179 0 29.256 0 29.0131 0C28.9322 0 28.7703 0.0410246 28.7298 0C28.0822 0.0410246 27.3941 0.164098 26.7466 0.246147C26.3823 0.205123 25.9775 0.246147 25.6133 0.287172C24.0347 0.410246 22.4967 0.656393 20.9182 0.98459V0.943565C20.2301 0.943565 19.3397 1.31279 18.5302 1.51791C18.1659 1.51791 17.7207 1.68201 17.3564 1.84611C17.1136 1.88713 16.7898 1.96918 16.4255 2.13328C16.0207 2.29738 16.1826 2.3384 15.9398 2.46147C15.7374 2.54352 15.5755 2.6666 15.5351 2.74865C15.4136 2.87172 14.8875 3.07684 15.0089 3.15889C15.0494 3.19992 15.1708 3.19992 15.4541 3.15889C15.5755 3.24094 15.8588 3.19992 16.3445 3.07684L16.4255 3.03582C16.385 3.03582 16.3445 3.07684 16.3445 3.07684C16.6683 3.11787 16.9921 3.19992 17.3159 3.24094C17.3564 3.36402 17.4778 3.40504 17.8826 3.32299C17.6397 3.44606 17.4374 3.61016 17.235 3.77426C16.6279 4.14348 15.8184 4.43065 15.4946 4.88192C14.6851 5.49729 13.7137 6.07164 13.0661 6.76906L13.1066 6.72803C12.7423 7.13828 12.0947 7.5075 11.8114 7.91774C11.6495 8.08184 11.3257 8.32799 11.1638 8.57414L11.1233 8.65619L11.0019 8.73823C10.6376 9.10746 10.2733 9.47668 9.86859 9.8459C9.38289 10.2561 8.8972 10.6664 8.49245 11.2407C7.96628 11.9382 6.99488 13.0458 6.42824 13.9484C5.86159 14.8919 4.97115 15.7945 4.68782 16.8201L4.7283 16.7791C4.68782 16.8201 4.68782 16.8201 4.68782 16.8201C4.12118 17.8457 3.59501 18.9123 3.14978 19.979C2.82599 20.6354 2.58314 21.3328 2.38076 22.1533C2.34029 22.3584 2.25934 22.5225 2.21887 22.7276C1.69269 24.0814 1.28795 25.6404 1.12605 27.2403C1.0451 28.0608 0.923674 28.7993 1.08557 29.4967C1.08557 29.6197 1.08557 29.7018 1.08557 29.7428C1.00462 29.9479 1.00462 30.1941 1.00462 30.4813C0.842725 31.2197 1.00462 32.0402 1.0451 32.8197L1.08557 32.8607C1.08557 32.8607 1.08557 32.8607 1.0451 32.8197C0.964149 33.1479 1.0451 33.6402 1.12605 34.0504C1.08557 34.3376 1.24747 34.8709 1.24747 35.2811C1.28795 35.3632 1.28795 35.4452 1.28795 35.5273C1.24747 35.6914 1.28795 35.9786 1.3689 36.3068C1.40937 36.799 1.57127 37.3324 1.77364 37.7016C1.85459 38.0708 1.93554 38.399 2.09744 38.6862C2.21887 39.1374 2.34029 39.5067 2.46171 39.9169C2.70456 40.5323 2.90694 41.3938 3.23073 41.9271C3.35216 42.1733 3.43311 42.4604 3.51406 42.6656C3.71643 43.1168 3.83785 43.5681 4.0807 43.8553C4.16165 44.0194 4.2426 44.1835 4.28308 44.3065C4.32355 44.4296 4.4045 44.5527 4.48545 44.6758C4.5664 44.7988 4.60687 44.8809 4.68782 45.004C5.214 46.1116 5.82112 47.1372 6.54966 48.0808C6.75204 48.327 6.87346 48.45 6.91393 48.409C6.95441 48.368 6.87346 48.1629 6.71156 47.9167C6.18539 47.0552 5.57827 46.1116 5.0521 45.2911C4.8902 44.9629 4.68782 44.5937 4.48545 44.2245C3.95928 43.5271 3.79738 42.5835 3.39263 41.8451V41.9271C3.23073 41.5169 3.10931 41.1477 2.94741 40.7374C2.78551 40.4092 2.66409 39.8759 2.50219 39.5067C2.46171 39.3015 2.38076 39.1374 2.34029 38.9323C2.34029 38.9734 2.38076 39.0144 2.38076 39.0144C2.42124 39.0964 2.46171 39.1374 2.50219 39.2195C2.50219 39.1374 2.46171 39.0554 2.46171 38.9734V38.9323C2.46171 38.8503 2.46171 38.7272 2.42124 38.6041C2.46171 38.5631 2.42124 38.2759 2.34029 37.9888H2.38076C2.38076 37.9067 2.38076 37.8247 2.38076 37.7426C2.62361 38.6452 2.90694 39.5067 3.23073 40.3682C3.51406 41.1887 3.9188 41.9681 4.20213 42.8707C4.4045 43.5271 4.7283 44.3476 4.80925 43.8553C4.84972 43.7732 5.09257 44.2655 5.25447 44.5527C5.57827 45.127 5.90207 45.7834 6.26634 46.3988C6.30681 46.4398 6.38776 46.5629 6.38776 46.6449C6.42824 46.768 6.50919 46.8911 6.63061 47.0552C6.67109 47.0962 6.75204 47.1783 6.79251 47.3013C7.602 48.9423 8.61387 50.4602 10.1519 51.691C10.3543 51.8551 10.5971 52.1422 10.759 52.3063C11.0019 52.7166 11.4066 53.0858 11.8114 53.414C13.0256 54.4806 14.2399 55.4242 15.616 56.2857V56.3267C16.1017 56.819 16.9921 57.1883 17.6802 57.6395C17.9231 57.8857 18.3683 58.0908 18.7326 58.2549C18.9349 58.419 19.2183 58.5421 19.5825 58.7062C19.9873 58.9113 19.9063 58.7472 20.1492 58.8292C20.3515 58.9113 20.5539 58.9523 20.6349 58.9113C20.7563 58.9113 21.3229 59.1164 21.242 58.9933C21.242 58.9113 21.161 58.8292 20.9182 58.7062C20.8777 58.5831 20.6349 58.378 20.2301 58.1318L20.1492 58.0908C20.1896 58.0908 20.2301 58.1318 20.2301 58.1318C20.0682 57.8857 19.8658 57.5985 19.6635 57.3113C19.7039 57.1883 19.6635 57.0242 19.0968 56.696C19.0564 56.5729 18.9349 56.4498 18.8945 56.3267C19.2992 56.5319 19.7444 56.696 20.1492 56.8601C20.5539 57.0242 20.8372 56.9831 20.8372 56.9011C20.9587 56.819 20.473 56.6549 20.1896 56.4908C19.8658 56.3267 19.5825 56.1216 19.5825 56.0396C19.542 55.9165 20.0277 56.1216 20.2706 56.1626C21.1206 56.3678 22.2134 56.9421 23.1848 57.0652C23.63 57.1883 24.1966 57.4344 24.6014 57.3934C25.249 57.5165 25.9371 57.7626 26.5037 57.7216C26.4632 57.6806 26.3823 57.6806 26.3418 57.6395C26.3823 57.6395 26.3823 57.6395 26.3823 57.6395L26.5037 57.6806C27.1108 57.7626 27.8394 57.9267 28.3655 57.8447L28.2846 57.8036H28.3655C29.3369 57.8447 30.3488 58.1318 31.4416 57.9267C32.2916 57.8036 33.7892 57.7216 34.801 57.5165C35.8534 57.2703 37.1081 57.2293 38.039 56.737H37.9581C37.9985 56.696 37.9985 56.737 37.9985 56.737C40.0223 56.2037 42.0055 55.4242 43.8674 54.3576C45.0816 53.7832 46.2958 53.0858 47.3887 52.2243C47.4291 52.2653 47.5506 52.2653 47.7529 52.1012L47.8744 51.9781C47.8744 51.9781 47.7934 52.0602 47.7529 52.1012C47.8744 52.1012 47.9958 52.1012 48.1172 52.0192C47.8339 52.2243 47.5506 52.5115 47.2672 52.6756H47.3077C47.0244 52.8397 46.5792 53.1679 46.2958 53.2909C45.6483 53.5371 44.9602 54.1524 44.2316 54.5217C44.0697 54.6037 43.8269 54.7268 43.6245 54.8088C43.2198 54.9319 42.6936 55.3011 42.2484 55.4242C42.0055 55.5063 41.8436 55.5883 41.6817 55.6703C40.9532 56.0396 40.2246 56.3678 39.4151 56.5319L39.2937 56.5729L39.2128 56.6139C36.9057 57.1883 35.2058 57.8036 33.4249 58.2139C36.8248 57.8447 40.1032 56.819 43.1388 55.3422C43.3412 55.2191 43.5436 55.137 43.7864 55.014C44.3531 54.8909 44.9602 54.4806 45.5268 54.0704C45.8506 53.8653 46.1339 53.7012 46.4577 53.496C46.7815 53.3319 47.1458 53.0448 47.4291 52.8807C47.5506 52.7986 47.6315 52.7166 47.7125 52.6756C47.9958 52.5525 48.3601 52.2653 48.6839 51.9781C48.7648 51.8961 48.9267 51.814 48.9672 51.732C49.0886 51.6499 49.291 51.5679 49.3719 51.4858C49.5338 51.3217 49.6553 51.1987 49.8172 51.0756C49.8981 51.0346 50.0195 50.9525 50.2219 50.7474H50.2624C50.3028 50.7474 50.4243 50.6654 50.6266 50.5013C50.6671 50.4192 50.7885 50.2961 50.829 50.2961C51.7599 49.1885 52.5694 47.9167 53.3385 46.686C53.6218 46.2347 53.9051 45.7834 54.1075 45.3322C54.3098 45.045 54.5122 44.7168 54.6336 44.4296C54.7146 44.3065 54.836 44.1835 54.917 44.0604C55.4836 42.5425 56.1312 40.9425 56.3741 39.4656C56.5764 38.7682 56.9407 37.9888 56.8598 37.4144C57.0217 36.3888 57.305 35.2811 57.2645 34.3376V34.2555ZM16.385 2.58455C16.385 2.58455 16.3445 2.54352 16.4255 2.5025C16.466 2.5025 16.5064 2.46147 16.5469 2.46147C16.466 2.5025 16.385 2.58455 16.385 2.58455ZM19.9063 58.378C19.9063 58.378 19.9063 58.419 19.8254 58.419C19.7849 58.419 19.7444 58.378 19.7039 58.378C19.7849 58.378 19.9063 58.378 19.9063 58.378ZM55.3217 32.9838C55.3622 32.3684 55.4027 31.753 55.3217 31.1787C55.4431 31.671 55.3622 32.3274 55.3217 32.9838ZM55.3622 21.2507C55.3217 21.2097 55.2812 21.0456 55.2408 21.0456C55.2408 20.9636 55.2003 20.8815 55.2003 20.7995C55.2408 20.9636 55.3217 21.1277 55.3622 21.2507ZM55.1193 24.8199C55.1193 24.8609 55.1193 24.9429 55.0789 24.9019C55.1193 24.9019 55.1193 24.8609 55.1193 24.8199ZM53.9456 28.4711C53.9456 28.5941 53.986 28.6762 53.986 28.7582C53.986 29.0044 53.9456 28.7172 53.9051 28.5941C53.9051 28.5941 53.9456 28.5941 53.9456 28.4711ZM53.5813 32.8197V32.9017C53.5813 32.9427 53.5813 32.8197 53.5813 32.8197ZM47.7125 48.0808C47.7529 47.9988 47.7934 47.9167 47.8744 47.8347C47.9148 47.4244 48.441 46.6449 48.8458 45.7834C48.6839 46.3988 48.2791 47.1372 47.8744 47.8347C47.8744 47.8757 47.8339 47.9167 47.8744 47.9577C47.8339 47.9577 47.7934 47.9988 47.7125 48.0808ZM11.8114 47.6706C11.7709 47.6706 11.7304 47.5885 11.69 47.5885V47.5475C11.609 47.4654 11.6495 47.5065 11.609 47.4654C11.609 47.4654 11.6495 47.4654 11.69 47.5475C11.7304 47.5475 11.7304 47.5475 11.7304 47.5475L11.7709 47.5885C11.7709 47.6295 11.8114 47.6295 11.8114 47.6706ZM6.91393 46.1937C6.91393 46.1526 6.87346 46.1526 6.87346 46.1526C6.91393 46.1937 6.95441 46.1526 6.91393 46.1116C6.91393 46.1116 6.91393 46.1116 6.91393 46.0706C6.91393 46.0706 6.91393 46.0706 6.95441 46.1116C6.71156 45.6193 6.46871 44.9219 6.71156 45.004C6.95441 45.3732 7.23773 45.9475 7.56153 46.3167C7.72343 46.5219 7.88533 46.768 8.04723 47.0142C8.29008 47.6295 8.33055 47.7526 8.20913 47.9577C8.04723 47.6706 7.80438 47.4244 7.602 47.0552C7.48058 46.768 7.19726 46.4398 6.95441 46.1116C6.95441 46.1526 6.91393 46.1526 6.91393 46.1937ZM7.31868 38.6862C7.27821 38.6452 7.23773 38.6451 7.19726 38.6451C7.15678 38.8092 7.11631 38.9733 7.07583 39.0554C7.11631 38.8913 7.11631 38.6451 7.19726 38.6451C7.19726 38.5221 7.23773 38.44 7.23773 38.317C7.27821 38.44 7.23773 38.4811 7.31868 38.6862ZM6.42824 43.6502C6.42824 43.6502 6.42824 43.6091 6.38776 43.6091C6.46871 43.7322 6.59014 43.9373 6.67109 44.0604H6.63061C6.59014 43.9373 6.50919 43.8143 6.42824 43.6502ZM5.98302 40.9836C5.90207 40.8605 5.90207 40.8195 5.86159 40.7784C5.86159 40.7374 5.82112 40.6554 5.82112 40.6143C5.86159 40.7374 5.90207 40.8605 5.98302 40.9836ZM5.09257 37.2913C5.0521 37.2913 5.01162 37.2503 4.97115 37.1683C4.97115 37.1683 4.97115 37.1683 4.97115 37.0862C5.01162 37.2093 5.0521 37.3324 5.09257 37.2913ZM2.54266 34.9529C2.54266 34.9119 2.50219 34.8299 2.50219 34.8299C2.54266 34.9119 2.54266 34.9119 2.54266 34.9529ZM3.27121 37.6606C3.23073 37.6606 3.23073 37.8657 3.31168 38.0708C3.23073 37.9477 3.19026 37.7836 3.14978 37.6195C3.19026 37.5375 3.23073 37.6195 3.27121 37.6606ZM4.60687 36.1016C4.52593 35.9786 4.48545 35.8555 4.4045 35.5273C4.48545 35.7734 4.5664 35.9375 4.60687 36.1016ZM4.80925 37.6195C4.80925 37.4144 4.76877 37.2913 4.84972 37.2503C4.80925 37.2503 4.80925 37.4144 4.80925 37.6195ZM2.01649 29.8659C2.01649 29.9069 2.01649 29.9069 2.01649 29.9069C2.01649 30.071 1.97602 30.1941 1.97602 30.3172C1.97602 30.3582 1.97602 30.3992 1.97602 30.4402C1.97602 30.3992 1.97602 30.3992 1.97602 30.3992C1.93554 30.3582 1.93554 30.3582 1.93554 30.3172C1.93554 30.1531 1.97602 30.03 1.97602 29.9069C2.01649 29.8659 2.01649 29.8659 2.01649 29.8659ZM1.5308 34.3786C1.57127 34.3786 1.57127 34.3786 1.61174 34.3376C1.61174 34.4196 1.61174 34.5017 1.65222 34.5837C1.61174 34.5017 1.57127 34.4196 1.5308 34.3786C1.44985 34.3786 1.3689 34.2555 1.28795 34.0914C1.40937 34.1324 1.49032 34.2555 1.5308 34.3786ZM5.17352 42.0912C5.25447 42.2553 5.25447 42.3374 5.33542 42.4604C5.37589 42.6245 5.45684 42.7886 5.49732 42.8707V42.7886C5.53779 42.9527 5.57827 43.0758 5.65922 43.1989C5.86159 43.6502 6.26634 44.3065 5.98302 44.2245C5.90207 44.1835 5.90207 44.2245 5.90207 44.2655C5.82112 44.1014 5.74017 43.9373 5.65922 43.8143C5.65922 43.6091 5.37589 43.2399 5.214 42.8707C5.17352 42.6245 5.09257 42.3374 4.97115 42.0502C5.0521 42.1322 5.13305 42.1322 5.17352 42.0912ZM12.2971 10.2561C12.3375 10.2561 12.3375 10.2561 12.2971 10.2561V10.2561ZM31.2797 4.30758C31.2797 4.38963 31.1178 4.34861 31.1178 4.38963C31.1178 4.34861 31.2797 4.34861 31.2797 4.30758ZM29.4179 4.06143C29.3774 4.06143 29.256 4.06143 29.256 4.06143H29.3369C29.4584 4.02041 29.6607 4.02041 29.8631 4.02041C29.7417 4.06143 29.4988 4.02041 29.4179 4.06143ZM29.8226 4.34861C29.8226 4.34861 29.7822 4.34861 29.7417 4.34861C29.7012 4.34861 29.7012 4.34861 29.7012 4.34861H29.6203C29.5798 4.34861 29.5798 4.34861 29.5393 4.34861C29.5798 4.34861 29.6203 4.34861 29.6607 4.34861H29.7012C29.8226 4.34861 29.7822 4.34861 29.8226 4.34861ZM49.7767 40.7374C49.7767 40.6964 49.8576 40.6143 49.8576 40.5733C49.8576 40.6554 49.7767 40.8195 49.7767 40.7374ZM49.8576 40.9425C49.8576 40.9015 49.8576 40.9015 49.8576 40.9425V40.9425ZM52.7313 32.6145C52.7313 32.6966 52.7313 32.7376 52.6909 32.8607C52.6909 32.7376 52.6909 32.7376 52.6504 32.6966C52.6909 32.6145 52.7313 32.6556 52.7313 32.6145ZM52.1647 18.338C52.2052 18.338 52.2052 18.338 52.1647 18.338C52.1647 18.297 52.1242 18.297 52.1242 18.2559C52.1242 18.1739 52.0837 18.1739 52.0837 18.1739C52.1242 18.2149 52.1647 18.2559 52.1647 18.338ZM52.0433 15.5483C52.0837 15.5893 52.0837 15.5893 52.0433 15.5483V15.5483ZM51.679 15.2201C51.6385 15.2201 51.6385 15.2201 51.679 15.2201V15.2201ZM43.2602 7.6716C43.0579 7.54852 42.8555 7.46647 42.7341 7.38442C42.8555 7.42545 43.0174 7.5075 43.2602 7.6716ZM41.6008 6.89213C41.6413 6.89213 41.6817 6.89213 41.7222 6.93315C41.7222 6.93315 41.7222 6.93315 41.7627 6.97418C41.7222 6.89213 41.6413 6.89213 41.6008 6.89213ZM41.7627 6.76906C41.8032 6.72803 41.6817 6.60496 41.5198 6.48188C41.6817 6.60496 41.8032 6.68701 41.7627 6.76906ZM38.5652 4.96397C38.6056 5.005 38.6866 5.005 38.6866 5.04602C38.6057 5.005 38.4438 4.96397 38.3223 4.92295C38.4842 4.92295 38.5247 4.96397 38.5652 4.96397ZM35.7319 3.24094C35.8534 3.28197 35.9748 3.28197 36.1772 3.32299H36.2176C36.0962 3.28197 35.8534 3.24094 35.7319 3.24094ZM30.4298 0.246147C30.3893 0.246147 30.3893 0.246147 30.3488 0.287172L30.4298 0.246147ZM25.6537 0.410246C25.6537 0.410246 25.6537 0.410246 25.7347 0.410246C25.6537 0.410246 25.5323 0.410246 25.4514 0.410246H25.6537ZM6.46871 14.6047C6.42824 14.6458 6.38776 14.6458 6.34729 14.6458C6.38776 14.6458 6.42824 14.6047 6.46871 14.6047ZM1.207 32.0402C1.207 32.0812 1.16652 32.1222 1.16652 32.0812C1.16652 32.0812 1.16652 32.0812 1.16652 31.9992C1.16652 32.0812 1.207 32.0812 1.207 32.0402ZM4.80925 43.1168C4.7283 42.9117 4.64735 42.7476 4.5664 42.5425C4.60687 42.5835 4.64735 42.6245 4.64735 42.6656C4.68782 42.7886 4.76877 43.0348 4.84972 43.1989C4.84972 43.1989 4.80925 43.1579 4.80925 43.1168ZM6.71156 46.8501C6.22586 46.1526 5.82112 45.3732 5.57827 44.6347C5.53779 44.5527 5.49732 44.4296 5.45684 44.3476C5.53779 44.4706 5.61874 44.6347 5.65922 44.7578C5.74017 44.9629 5.94254 45.2911 6.10444 45.5373C6.14491 45.5783 6.18539 45.6193 6.22586 45.6604C6.83298 46.4808 7.35916 47.3424 8.12818 48.0808C8.12818 48.1218 8.0877 48.1218 8.0877 48.1629C7.84485 48.2449 7.23773 47.5475 6.71156 46.8501ZM8.37102 41.3528C8.53292 41.3528 8.5734 41.1477 8.49245 40.7784C8.53292 41.0246 8.5734 41.2297 8.61387 41.4348C8.69482 41.8451 8.49245 41.5169 8.37102 41.3528ZM8.69482 46.4398C8.7353 46.4398 8.65435 46.3167 8.7353 46.3988C8.81625 46.4808 8.7353 46.4808 8.77577 46.5629C8.77577 46.5629 8.7353 46.5219 8.69482 46.4398ZM11.4066 47.7116C11.4876 47.7526 11.6495 47.9577 11.7304 47.9577C11.7709 47.9988 11.7304 47.9577 11.7304 47.9988C11.7709 48.0398 11.8519 48.1218 11.8519 48.1218L11.8114 48.0808C11.69 47.9988 11.5281 47.8757 11.4066 47.7116ZM11.8114 53.2499C11.8114 53.2499 11.8114 53.2499 11.7709 53.2089C11.8114 53.2499 11.9328 53.332 11.9733 53.373L11.8114 53.2499ZM12.9447 52.7986C12.9042 52.7576 12.9447 52.7576 12.9447 52.7986C12.7423 52.5525 12.6209 52.3884 12.459 52.1833L12.4185 52.1422C12.459 52.1833 12.459 52.1833 12.459 52.1833C12.8637 52.5115 12.9447 52.6345 12.9447 52.7986C12.9851 52.7986 12.9851 52.8397 13.0256 52.8807C12.9851 52.8397 12.9851 52.8397 12.9447 52.7986ZM14.9279 49.3936C15.0494 49.4346 15.0494 49.4346 15.1708 49.4756C15.1303 49.4756 15.1708 49.5577 15.1708 49.5987C15.0898 49.5167 15.0089 49.4756 14.9279 49.3936ZM19.3801 52.9217C19.5016 52.9627 19.5421 52.9627 19.623 53.0038C19.5421 52.9627 19.542 53.0038 19.3801 52.9217ZM20.8372 53.7012C20.8777 53.7422 20.8777 53.7422 20.8372 53.7012H20.7968C20.6753 53.7422 20.4325 53.7012 20.1896 53.6191C20.0682 53.5781 19.9468 53.5371 19.8254 53.455H19.7849C19.6635 53.414 19.6635 53.414 19.5825 53.373C19.6635 53.414 19.7444 53.455 19.8254 53.455C19.9468 53.4961 20.0682 53.5781 20.1896 53.6191C20.392 53.6601 20.5944 53.6601 20.7968 53.7012C20.7968 53.7012 20.7968 53.7012 20.8372 53.7012C20.7158 53.5781 20.6753 53.496 20.5944 53.414C20.5944 53.414 20.5539 53.414 20.5539 53.373C20.5944 53.373 20.5944 53.373 20.5944 53.373C20.5944 53.373 20.5539 53.3319 20.5134 53.2909C20.2301 53.0858 19.9468 52.9217 19.7444 52.7166C19.4611 52.5525 19.1373 52.3063 19.1373 52.3063C19.1373 52.3063 19.4611 52.5115 19.7039 52.6345C19.7444 52.6756 19.7444 52.6756 19.7849 52.6756C20.1896 52.8807 20.392 53.0858 20.5539 53.2499C20.5944 53.2909 20.6349 53.2909 20.6753 53.332C20.6753 53.332 20.6753 53.3319 20.6349 53.2909C20.7563 53.5371 20.9587 53.6601 20.8372 53.7012ZM21.5658 53.8242L21.242 53.7012C21.3634 53.7422 21.4848 53.8242 21.6063 53.8653C21.6063 53.8653 21.6063 53.8653 21.5658 53.8242ZM24.6823 55.2191C24.7228 55.2191 24.6014 55.1781 24.6014 55.137C24.6419 55.1781 24.6823 55.1781 24.7633 55.2191C24.7228 55.2191 24.7228 55.2191 24.6823 55.2191ZM28.2036 55.9165C28.0822 55.8344 27.9203 55.7524 27.7584 55.7114C27.8798 55.7114 28.0822 55.7114 28.2846 55.7524C28.406 55.7934 28.487 55.8755 28.2036 55.9165ZM30.4298 54.1524C30.4702 54.1935 30.5512 54.1935 30.6321 54.1935C30.5107 54.1524 30.4298 54.1524 30.3488 54.1524C30.4298 54.1524 30.4298 54.1524 30.4298 54.1524ZM30.7131 54.5627C30.7131 54.6037 30.6321 54.6037 30.5512 54.6037C30.6321 54.6037 30.6321 54.6037 30.7131 54.5627ZM35.2463 56.9831C35.2058 57.0242 35.2058 57.0652 35.1248 57.0652C35.1653 57.0652 35.2058 57.0242 35.2463 56.9831C35.2463 56.9831 35.3272 57.0242 35.4081 57.0242C35.3272 57.0242 35.2867 56.9831 35.2463 56.9831ZM37.6343 54.1524C37.5128 54.1935 37.3914 54.2345 37.3509 54.1935C37.3105 54.1935 37.3509 54.1935 37.27 54.1935C37.3105 54.1935 37.3105 54.1935 37.3509 54.1524V54.1935H37.5128C37.5533 54.1524 37.5938 54.1524 37.6343 54.1524ZM43.1388 51.6089C42.7745 51.773 42.4508 51.9371 42.3293 51.8551C42.127 51.814 42.5317 51.5679 42.8555 51.3628C42.9769 51.2807 43.1793 51.1576 43.0579 51.1166C42.8555 51.1576 42.5317 51.4038 42.3698 51.3628C42.6531 51.1576 43.0174 51.0346 43.3007 50.7884C43.2198 50.7884 43.1793 50.8295 43.1793 50.7884H43.1388C43.1793 50.7884 43.1793 50.7884 43.1793 50.7884C43.2602 50.7474 43.3007 50.7474 43.3007 50.7884C43.3412 50.7474 43.4221 50.7064 43.4626 50.6654C43.8269 50.5013 44.2316 50.132 44.6364 49.9679C45.203 49.6808 45.6078 49.2705 46.0935 48.8192H46.1339L46.1744 48.7782C46.1339 48.7782 46.1339 48.7782 46.1339 48.7782C46.4577 48.2859 46.0125 48.6962 45.7292 48.9013L45.6078 48.9833L45.5268 49.0244C45.284 49.0654 44.9197 49.4346 44.6769 49.5167C45.6078 48.7372 46.5792 47.9988 47.4291 47.0962C47.4696 47.0552 47.5506 46.9731 47.6315 46.9321V46.9731C47.591 47.0962 47.672 47.0142 47.7529 46.8911C47.7934 46.809 47.8744 46.727 47.8744 46.727C48.0363 46.5629 48.1577 46.3988 48.1577 46.3167C48.1577 46.1526 48.2386 45.9886 48.3601 45.8245C48.5624 45.7014 48.8862 45.3732 49.0481 45.4142C48.9267 45.6193 48.8862 45.7424 48.8862 45.8245C48.441 46.4808 48.2791 46.809 48.0363 47.2603C47.7934 47.7116 47.7125 47.9988 47.3077 48.5321C47.0649 48.7782 46.8625 49.0654 46.6601 49.3115C46.6196 49.3526 46.5387 49.3936 46.4982 49.4346C45.3649 50.2551 44.2721 50.9525 43.1388 51.6089ZM44.3531 51.3628C44.3935 51.3628 44.4745 51.2807 44.4745 51.2807C44.515 51.2807 44.5554 51.2397 44.5959 51.2397C44.6364 51.1987 44.7173 51.1987 44.7578 51.1576C44.7173 51.1576 44.6769 51.1987 44.5959 51.2397C44.515 51.2807 44.434 51.3628 44.3531 51.3628Z" fill="#FFB142"/>
<path fill-rule="evenodd" clip-rule="evenodd" d="M8.08375 11.0767C8.0028 11.3638 7.27426 12.1433 7.15283 12.5535C8.28612 11.2408 8.3266 11.2818 8.08375 11.0767Z" fill="#FFB142"/>
<path fill-rule="evenodd" clip-rule="evenodd" d="M0.961996 26.3378C1.04295 26.0096 1.1239 25.4763 1.24532 25.1891C1.56912 24.5327 1.56912 23.5891 1.85244 22.8507C1.89292 22.6866 1.97386 22.4405 2.05481 22.1943C2.25719 21.7841 2.33814 21.1687 2.58099 20.7584C2.66194 20.5123 2.74288 20.3482 2.82383 20.1841C3.10716 19.4046 3.39048 18.6252 3.79523 17.9688L3.8357 17.8457L3.87618 17.7637C4.60472 16.5739 5.17137 15.5073 5.69754 14.5227L6.14276 13.8253C6.30466 13.5791 6.38561 13.374 6.34514 13.333C6.50703 13.0458 6.66893 12.7587 6.83083 12.5125C4.92852 14.8919 3.43095 17.6406 2.33814 20.4713C2.29766 20.3892 2.21671 20.5533 2.13576 20.7995C1.97386 21.3738 1.73102 21.9071 1.60959 22.4815C1.40722 22.9738 1.24532 23.5481 1.16437 24.1225C1.08342 24.4917 1.00247 24.8199 0.921522 25.1891C0.800097 25.5173 0.759623 25.9686 0.678673 26.3378C0.678673 26.5019 0.638198 26.5839 0.638198 26.666C0.516774 26.9532 0.476299 27.4044 0.435825 27.8557C0.435825 27.9788 0.39535 28.1429 0.39535 28.2249C0.354875 28.389 0.314401 28.5531 0.273926 28.6762C0.273926 29.1685 0.273926 29.5787 0.273926 30.071C0.273926 30.112 0.314401 30.1531 0.314401 30.1531C0.354875 30.1941 0.354875 30.1941 0.354875 30.071C0.39535 29.989 0.435825 29.8659 0.435825 29.7018C0.516774 29.4967 0.476299 29.1275 0.516774 28.8403C0.516774 28.7582 0.516774 28.6352 0.516774 28.5531C0.597724 28.348 0.638198 28.1018 0.678673 27.7326C0.719148 27.8967 0.678673 27.9788 0.638198 28.0608C0.638198 28.1018 0.597724 28.1429 0.597724 28.1839C0.597724 28.1839 0.597724 28.1839 0.597724 28.1429C0.597724 28.1018 0.638198 28.1018 0.638198 28.0608C0.678673 27.9788 0.719148 27.8967 0.719148 27.7736C0.881047 27.4454 0.840572 26.748 0.961996 26.3378Z" fill="#FFB142"/>
<path fill-rule="evenodd" clip-rule="evenodd" d="M51.1525 10.7074C50.5453 9.76383 49.8978 9.31256 49.3716 8.90231C49.9382 9.35358 50.5858 10.2971 51.1525 10.7074Z" fill="#FFB142"/>
<path fill-rule="evenodd" clip-rule="evenodd" d="M54.2674 15.2201C54.4697 15.5483 54.6721 15.9586 54.8745 16.3688C54.9959 16.5329 55.0769 16.7791 55.1578 16.8611C55.3197 17.0662 55.2792 16.8201 55.1173 16.5739C54.7126 15.7945 54.3888 14.974 53.9031 14.3996C53.8626 14.3176 53.7817 14.2355 53.7007 14.1125C53.5388 13.8663 53.3769 13.6612 53.296 13.6612C53.215 13.6202 53.3769 13.8663 53.4579 14.0714C53.7412 14.4407 54.0245 14.8919 54.2674 15.2201Z" fill="#FFB142"/>
<path fill-rule="evenodd" clip-rule="evenodd" d="M10.3914 8.77927C10.3104 8.77927 10.2295 8.86131 10.108 8.94336C10.0271 9.02541 9.90566 9.14849 9.82471 9.27156C9.94613 9.18951 10.0271 9.14849 10.108 9.06644C10.3104 8.98439 10.4318 8.82029 10.3914 8.77927Z" fill="#FFB142"/>
<path fill-rule="evenodd" clip-rule="evenodd" d="M9.17634 10.051C9.21681 10.01 9.21681 9.96898 9.25729 9.88693C9.17634 9.92796 9.05492 10.051 8.97397 10.0921C8.97397 10.0921 8.89302 10.2562 8.97397 10.2151C8.97397 10.2151 9.09539 10.0921 9.17634 10.051Z" fill="#FFB142"/>
<path fill-rule="evenodd" clip-rule="evenodd" d="M55.0769 43.8553C54.996 43.9373 54.996 43.7732 54.8745 44.1014C54.8341 44.1835 54.8341 44.2655 54.8745 44.2655C54.915 44.2245 54.996 44.1014 55.0769 43.9783C55.1174 43.8553 55.1579 43.7322 55.0769 43.8553Z" fill="#FFB142"/>
<path fill-rule="evenodd" clip-rule="evenodd" d="M57.3441 24.7788C57.4251 24.8199 57.3441 24.4506 57.3037 24.2455L57.0608 22.9738C56.9394 22.7276 56.8989 22.7686 56.8989 23.0148L57.1418 24.2455C57.2227 24.5737 57.3037 24.7788 57.3441 24.7788Z" fill="#FFB142"/>
<path fill-rule="evenodd" clip-rule="evenodd" d="M44.1489 6.52289L44.2704 6.64596L44.2299 6.52289H44.1489Z" fill="#FFB142"/>
<path d="M31.7639 48.4091V31.1788H37.4709L38.3208 24.4508H31.7639V20.1432C31.7639 18.215 32.2901 16.8612 35.0424 16.8612H38.5637V10.8306C37.9565 10.7486 35.8519 10.5845 33.4234 10.5845C28.364 10.5845 24.8832 13.7023 24.8832 19.4868V24.4508H19.1763V31.1788H24.9237V48.4091H31.7639Z" fill="white"/>
</svg>
