<svg width="160" height="46" viewBox="0 0 160 46" fill="none" xmlns="http://www.w3.org/2000/svg">
<g clip-path="url(#clip0_20_89)">
<path d="M33.6 17.1333C34.5172 19.2561 35.0178 21.5353 35.0745 23.8471C35.3213 28.4517 33.5609 32.9373 30.2483 36.1451C27.0141 39.4911 22.5406 41.3512 17.8875 41.285C13.2382 41.3558 8.76655 39.5012 5.53198 36.1608C2.16121 32.8954 0.211468 28.4343 0.104528 23.7425C-0.144364 19.1375 1.61629 14.651 4.93067 11.4444C8.16632 8.10059 12.6389 6.24082 17.2915 6.30458C21.9407 6.23379 26.4124 8.08832 29.647 11.4288L29.8771 11.6693L38.1071 3.43922L40.983 6.31503L17.8875 29.4837L8.31891 19.915L10.7607 17.4784L17.4065 24.1399L27.3568 14.1582C27.2784 14.0797 27.2104 13.9961 27.1267 13.9176C24.6232 11.3233 21.129 9.92449 17.5267 10.0745C13.8723 10.1174 10.3878 11.6242 7.85355 14.2575C5.26466 16.7572 3.86153 20.2403 3.99472 23.8366C4.04013 27.489 5.54667 30.9709 8.17773 33.5046C10.6834 36.0953 14.1767 37.4918 17.7777 37.3425C19.98 37.3162 22.1433 36.7583 24.0836 35.7163L19.5817 31.2092L22.0183 28.7725L26.9176 33.6667C27.1058 33.515 27.2784 33.3686 27.4405 33.2065C30.0266 30.6935 31.422 27.1992 31.2784 23.5961C31.2571 22.3728 31.0814 21.1571 30.7555 19.9778L33.6 17.1333ZM52.1045 16.2497C53.3273 14.9887 55.0176 14.2903 56.7738 14.3203C58.541 14.293 60.2481 14.9616 61.5267 16.1817C62.8205 17.343 63.5472 19.0081 63.5189 20.7464C63.553 22.5085 62.8565 24.2061 61.5947 25.4366C60.3728 26.6919 58.6875 27.388 56.9359 27.3608C55.1649 27.3919 53.4532 26.723 52.1725 25.4993C50.8732 24.3332 50.1459 22.6592 50.1803 20.9137C50.1523 19.1604 50.8484 17.4732 52.1045 16.2497ZM62.0026 20.715C62.015 19.3519 61.4442 18.0485 60.4339 17.1333C59.4599 16.172 58.1423 15.6394 56.7738 15.6536C55.4134 15.6267 54.1064 16.1823 53.1817 17.1804C52.2198 18.1657 51.6925 19.4952 51.7176 20.8719C51.6931 22.2277 52.2463 23.53 53.2392 24.4536C54.2316 25.4164 55.5693 25.9401 56.9516 25.9072C58.309 25.929 59.6115 25.3719 60.5333 24.3752C61.4898 23.3987 62.0184 22.0818 62.0026 20.715ZM74.7555 14.7229C75.5756 14.8008 76.349 15.1399 76.962 15.6902C77.5498 16.2089 77.8772 16.9615 77.8562 17.7451V18.1791C77.8711 18.9969 77.5738 19.7897 77.0248 20.3961C76.4588 21.0111 75.6783 21.3854 74.8444 21.4418H72.2718V27.0105H70.7555V14.6706L74.7555 14.7229ZM75.8901 19.3817C76.1629 18.9909 76.3073 18.5249 76.3032 18.0484C76.3102 17.6565 76.2069 17.2706 76.0052 16.9346C75.7915 16.5908 75.4696 16.3278 75.0901 16.1869C74.8235 16.0944 74.5486 16.0279 74.2692 15.9882H72.2718V20.2078H74.7555C75.2176 20.0714 75.6184 19.7796 75.8901 19.3817ZM98.4261 20.7464C98.4571 22.4997 97.7649 24.1885 96.5124 25.4157C95.2966 26.676 93.6151 27.3796 91.864 27.3608C90.093 27.3919 88.3813 26.723 87.1006 25.4993C85.7935 24.3371 85.0584 22.6626 85.0875 20.9137C85.059 19.1593 85.7573 17.4712 87.0169 16.2497C88.2358 14.9893 89.9227 14.2906 91.6758 14.3203C93.4448 14.2917 95.1539 14.9603 96.4339 16.1817C97.7277 17.343 98.4544 19.0081 98.4261 20.7464ZM91.8431 25.9229C93.1955 25.9306 94.4877 25.3643 95.3986 24.3647C96.3551 23.3883 96.8838 22.0714 96.8679 20.7046C96.8907 19.3439 96.3337 18.0378 95.3359 17.1124C94.3588 16.1569 93.0423 15.6284 91.6758 15.6431C90.3156 15.6205 89.0105 16.1798 88.0888 17.1804C87.127 18.1657 86.5997 19.4952 86.6248 20.8719C86.6003 22.2277 87.1535 23.53 88.1464 24.4536C89.1324 25.4182 90.4639 25.9474 91.8431 25.9229ZM112.115 26.4091C111.349 26.9489 110.432 27.2342 109.495 27.2248C108.656 27.2334 107.831 27.0089 107.111 26.5765C106.751 26.3137 106.446 25.9812 106.217 25.5987C105.98 25.1522 105.794 24.6803 105.663 24.1922L107.001 23.5072C106.986 24.1715 107.259 24.81 107.749 25.2588C108.224 25.7141 108.858 25.9656 109.516 25.9595C109.786 25.9589 110.054 25.9166 110.311 25.834C110.588 25.7419 110.848 25.6041 111.08 25.4261C111.338 25.2244 111.543 24.9623 111.676 24.6627C111.83 24.3502 111.912 24.0072 111.916 23.6588C111.951 23.2358 111.824 22.8152 111.561 22.4824C111.391 22.2867 111.2 22.1113 110.991 21.9595C110.719 21.804 110.438 21.6661 110.149 21.5464L108.016 20.7935C107.409 20.5235 106.879 20.1066 106.473 19.5804C106.086 19.0755 105.879 18.4548 105.888 17.8183C105.905 17.5139 105.947 17.2115 106.013 16.9137C106.147 16.385 106.421 15.9025 106.808 15.5176C107.185 15.0709 107.697 14.7589 108.267 14.6288C108.729 14.5312 109.2 14.4786 109.673 14.4719C109.851 14.4719 109.992 14.4614 110.091 14.4719C110.191 14.4824 110.447 14.5294 110.865 14.6131C111.363 14.7383 111.822 14.9864 112.199 15.3346C112.67 15.7261 113.019 16.2454 113.203 16.8301L111.885 17.4471C111.763 16.9347 111.446 16.4902 111.001 16.2078C110.552 15.8951 110.017 15.7289 109.469 15.732C109.093 15.7232 108.719 15.8057 108.382 15.9725C108.052 16.1536 107.786 16.4308 107.618 16.7673C107.485 17.0539 107.415 17.3661 107.414 17.6824C107.398 18.4012 107.809 19.0616 108.46 19.366L111.629 20.532C112.186 20.8339 112.646 21.2871 112.957 21.8392C113.255 22.3713 113.411 22.9707 113.412 23.5804C113.415 24.1085 113.305 24.6311 113.088 25.1124C112.864 25.6119 112.532 26.055 112.115 26.4091ZM120.648 14.6706H122.097V27.0105H120.648V14.6706ZM132.884 27.0105V15.9725H129.328V14.6706H137.966V15.9725H134.416V27.0105H132.884ZM145.203 27.0105L150.62 14.3203H151.017L156.554 27.0105H154.823L153.255 23.1778H148.34L146.771 27.0105H145.203ZM152.821 22.0588L150.75 16.7307L148.748 22.0588H152.821ZM77.5529 33.8863V32.5895H86.1908V33.8863H82.6405V44.9242H81.1084V33.8863H77.5529ZM93.6784 44.9242V32.5895H100.376V33.9229H95.1581V37.5725H100.376V38.8379H95.1581V43.5908H100.376V44.9242H93.6784ZM113.835 38.4405C114.382 38.7432 114.832 39.1946 115.132 39.7425C115.436 40.2779 115.595 40.8836 115.592 41.4993C115.593 42.0254 115.482 42.5457 115.268 43.0261C115.041 43.5263 114.707 43.9706 114.29 44.3281C113.525 44.8653 112.611 45.1487 111.676 45.1386C110.85 45.1479 110.036 44.9329 109.323 44.5163C108.962 44.258 108.659 43.9267 108.434 43.5438C108.193 43.0967 108.005 42.6229 107.874 42.132L109.223 41.4471C109.208 42.1126 109.483 42.752 109.976 43.1987C110.451 43.6554 111.085 43.9071 111.744 43.8993C112.012 43.899 112.278 43.8567 112.533 43.7739C112.81 43.6818 113.07 43.5439 113.302 43.366C113.563 43.1657 113.77 42.9033 113.903 42.6026C114.051 42.2848 114.128 41.9387 114.128 41.5882C114.162 41.1644 114.033 40.7436 113.767 40.4118C113.6 40.2158 113.411 40.0403 113.203 39.8889C112.931 39.7322 112.65 39.5925 112.361 39.4706L110.227 38.7176C109.622 38.4419 109.095 38.0217 108.69 37.4941C108.307 36.989 108.103 36.371 108.11 35.7373C108.128 35.4312 108.17 35.1269 108.235 34.8274C108.366 34.3002 108.639 33.819 109.025 33.4366C109.4 32.9867 109.912 32.6726 110.484 32.5425C110.948 32.4448 111.421 32.3922 111.895 32.3856C112.068 32.3856 112.209 32.3752 112.308 32.3856C112.408 32.3961 112.669 32.4431 113.088 32.5268C113.586 32.6544 114.044 32.9042 114.421 33.2536C114.887 33.6425 115.23 34.1584 115.409 34.7386L114.091 35.3556C113.97 34.8415 113.653 34.3951 113.208 34.1111C112.758 33.7984 112.223 33.6322 111.676 33.6353C111.298 33.6234 110.924 33.7023 110.583 33.8654C110.252 34.0497 109.986 34.3306 109.82 34.6706C109.691 34.9585 109.623 35.2701 109.621 35.5856C109.604 36.3048 110.014 36.9659 110.667 37.2693L113.835 38.4405ZM131.739 32.5895V33.8863H128.188V44.9242H126.651V33.8863H123.101V32.5895H131.739ZM52.4444 28.919V36.9974H77.5529V40.4902H52.4444V40.5268H49.4849V28.919H52.4444ZM156.847 36.9974V28.919H159.806V40.5268H156.847V40.4902H131.739V36.9974H156.847ZM156.847 4.77778H52.4444V12.8562H49.4849V1.24837H52.4444V1.28497H156.847V1.24837H159.806V12.8562H156.847V4.77778Z" fill="white"/>
</g>
<defs>
<clipPath id="clip0_20_89">
<rect width="160" height="44.4444" fill="white" transform="translate(0 0.777779)"/>
</clipPath>
</defs>
</svg>
