<svg width="1440" height="142" viewBox="0 0 1440 142" fill="none" xmlns="http://www.w3.org/2000/svg">
<g clip-path="url(#clip0_4_2884)">
<rect width="1449" height="142" transform="translate(-4.5)" fill="white"/>
<path d="M-4.5 -324V6.30371C-3.23709 6.40387 -1.97417 6.60422 -0.851585 6.60422C-0.851585 6.90466 -0.851585 7.10495 -0.851585 7.4054C1.53392 8.7074 6.58557 4.70129 7.28719 9.40848C6.1646 9.10803 5.04201 8.20663 4.05974 8.80756C2.79683 9.50864 4.62104 10.2097 4.76136 10.9108C5.04201 12.4131 4.62104 14.3159 8.12913 12.9138C10.9356 12.1126 13.7421 12.3129 16.4082 13.2143C18.5131 13.2143 20.6179 13.7151 22.4421 12.6134C24.968 12.4131 27.2131 11.9123 28.897 10.6103C29.5986 11.5117 30.3003 12.2128 31.9842 11.2112C32.9664 10.2097 33.9487 9.10803 34.931 8.10651C35.7729 7.50558 36.8955 7.4054 37.5971 6.80447L37.7374 6.70438C38.439 6.80453 39.0003 6.90463 39.5616 6.80447C44.1923 5.5025 44.7536 7.00482 44.052 9.70895C43.9117 10.3098 44.052 11.0109 44.1923 12.5132C48.2617 8.30679 49.244 11.4115 50.9278 13.1141C51.2085 13.3145 51.6295 13.4146 52.0504 13.4146C52.3311 14.1156 52.8924 14.4161 53.8746 14.1157C54.015 15.017 54.8569 15.8182 55.2779 16.6195C55.2779 16.8198 55.4182 17.1202 55.4182 17.3205C57.3827 17.1202 59.3473 17.0201 61.1715 16.8198C61.0312 19.6241 64.5392 20.5254 66.7844 22.1279C66.9247 21.9276 66.9248 21.7273 67.0651 21.5269C67.3457 20.5254 68.328 20.0247 69.4506 19.6241C70.1522 19.6241 70.9941 19.6241 71.6957 19.6241C72.5377 20.0247 73.3796 20.3251 74.2216 20.7258C73.2393 22.4283 75.9055 23.4299 76.0458 25.0323C75.2038 25.3328 73.9409 25.8335 74.3619 26.3343C75.2038 27.6363 77.0281 26.4344 78.4313 26.835C78.9926 26.4344 79.1329 26.134 78.9926 25.7334C80.2555 25.4329 80.2555 24.2311 81.0974 23.6302C81.3781 23.3297 81.7991 23.0293 82.0797 22.7288C82.3604 22.5285 82.5007 22.3282 82.5007 22.1279C85.8684 22.4283 86.1491 24.7319 87.6926 26.134C87.6926 26.2342 87.833 26.3343 87.9733 26.3343C87.5523 28.2372 86.1491 30.6409 91.2007 29.9398C91.3411 29.7395 91.4814 29.439 91.4814 29.2387C91.4814 28.6378 91.6217 28.137 91.6217 27.5361C93.4459 26.7349 94.2879 25.6332 94.1475 24.1309C94.5685 23.53 94.9895 23.0293 95.4104 22.4283C99.1992 22.228 99.1992 20.2249 99.1992 18.3221C99.3395 18.1217 99.4798 17.9214 99.6202 17.7212C101.725 18.1218 103.83 18.5224 105.373 16.9199C106.215 16.4192 107.057 15.8182 107.899 15.3175C109.162 14.2158 110.565 14.1156 112.67 13.9153C116.319 13.6149 116.319 16.2189 118.143 17.2204C117.441 17.8213 116.74 18.4222 116.599 19.2234C116.599 19.6241 116.599 20.0247 116.88 20.4253C119.406 21.9276 118.143 23.9306 118.564 25.7334C118.844 27.436 118.985 27.5361 121.23 26.2342C121.23 26.3343 121.37 26.4344 121.37 26.5346C121.651 26.7349 121.791 26.8351 121.932 27.0354C121.651 27.3358 121.511 27.6363 121.23 27.9367C120.248 28.9382 119.546 29.8396 121.511 30.3404V30.4406C122.212 31.7425 124.177 32.3434 125.299 33.3449C126.282 34.046 127.404 34.5468 128.948 34.2464C129.79 33.345 130.211 32.3434 131.474 31.7425C132.316 31.2418 133.158 30.6408 133.859 30.1401C134.14 29.9398 134.42 29.6393 134.561 29.439C136.245 29.5392 138.069 30.0399 139.753 29.3389C140.314 28.8381 140.875 28.4375 141.437 27.9367C142.7 26.6347 145.225 26.3343 145.787 24.6317C146.067 23.7303 145.646 22.9291 144.804 22.228C145.225 22.1279 145.506 21.9276 145.787 21.5269C145.927 21.3266 145.927 21.2265 145.927 21.0262C146.488 20.8259 147.05 20.7257 147.611 20.5254C150.558 21.4268 151.259 22.8289 149.716 24.832C150.838 24.9321 151.961 24.9322 153.083 25.0323C153.785 25.0323 154.627 25.0323 155.329 25.0323C155.609 25.0323 156.03 25.1325 156.311 25.1325C161.363 26.5346 166.555 27.9367 171.606 29.3389C172.027 29.2387 172.448 29.2387 172.869 29.1386C173.29 29.5392 173.711 29.9398 174.272 30.2403C171.606 36.1493 178.061 34.1462 181.709 34.5468C182.13 34.647 182.551 34.647 183.113 34.7471C184.656 33.9459 186.34 33.1447 187.884 32.3434C188.024 32.1431 188.164 31.8427 188.305 31.6424C189.427 31.3419 190.55 31.0414 191.672 30.8412C191.672 30.5407 191.672 30.3404 191.813 30.0399C193.076 29.7395 194.339 29.439 195.602 29.0384C197.005 29.439 198.829 29.439 198.829 30.9413C198.829 34.2463 201.635 32.4436 203.46 32.2433C204.161 32.9444 205.003 32.9443 205.845 32.3434C207.248 33.2448 208.792 34.046 210.195 34.9474C209.634 35.1477 208.652 35.4482 208.652 35.6485C208.792 36.8503 210.195 36.3496 211.177 36.4497C214.966 37.2509 215.528 34.5468 217.632 33.5453C217.773 33.5453 217.913 33.5453 218.053 33.5453C218.194 33.7456 218.474 33.8457 218.755 34.0461C219.316 34.1462 219.878 34.1462 220.299 33.9459C220.579 34.046 220.86 33.9459 221.14 33.8457C221.842 33.8457 222.544 33.7456 223.386 33.7456C224.368 32.5438 225.35 31.3419 226.473 30.0399C228.999 29.2387 231.384 28.7379 233.068 30.9413L232.928 31.3419L233.068 31.7425L232.928 32.043L233.068 32.3434C231.384 35.2479 231.524 38.1523 232.226 41.3572C234.752 40.1554 231.945 36.8503 236.576 36.9505C239.523 36.8503 241.908 35.8488 243.873 34.3465C244.154 34.0461 244.294 33.7456 244.434 33.4451C245.978 35.348 247.942 37.1508 249.626 38.9535C250.187 39.955 251.029 40.7563 252.573 41.1569C253.415 41.3572 254.397 41.3572 255.239 41.1569C256.642 40.8564 257.625 40.0552 258.747 39.3541C259.309 37.6515 262.115 37.3511 263.518 36.1493C263.659 36.1493 263.659 36.1493 263.799 36.1493C264.36 36.3495 264.781 36.7502 264.921 37.1508C265.062 37.4512 265.202 37.7517 265.342 38.0522C265.623 38.5529 265.904 38.9535 266.325 39.254C266.605 39.4543 266.886 39.7547 267.307 39.955C267.868 40.3557 268.009 40.7563 268.289 41.2571C268.71 42.3587 269.552 43.2601 270.394 44.2616C271.096 44.8625 271.657 45.6638 272.639 46.0644C273.201 46.2647 273.762 46.3648 274.323 46.465C276.568 46.465 278.393 45.6638 279.796 44.5621C280.497 43.6607 281.199 42.8595 281.48 41.858C283.444 42.4589 284.847 43.5605 286.251 44.6622C286.531 45.163 286.812 45.6638 287.093 46.0644C287.794 46.6653 288.636 46.8656 289.478 46.8656C289.478 46.9657 289.478 47.0659 289.338 47.1661C289.338 47.5667 289.478 47.9673 289.759 48.3679C293.968 51.3725 298.038 50.371 302.107 48.2678C302.949 47.767 303.791 47.1661 304.633 46.6653C307.159 44.0613 310.246 46.3648 313.052 46.2647L312.912 46.1646C313.614 45.8641 314.456 45.7639 314.877 45.163C317.543 45.2632 319.648 46.1646 321.191 47.767C322.594 49.1691 324.278 50.3709 326.944 50.1706C327.225 50.2708 327.646 50.3709 327.927 50.3709V50.7716L327.786 51.1721C328.207 51.4726 328.488 51.7731 328.909 52.0735C329.751 52.5743 330.593 52.5743 331.295 51.8732C332.136 51.1721 332.978 50.5713 333.68 49.8702C335.224 50.5713 337.048 50.2708 338.732 49.9703C339.012 49.9703 339.433 49.8702 339.714 49.8702C340.275 47.9673 340.837 45.9642 341.257 44.0613C343.082 44.0613 341.959 47.9673 345.046 45.2632C347.432 47.4665 349.677 49.6699 354.308 48.0674C355.851 46.7654 356.833 45.2632 359.219 44.6622C360.903 44.5621 362.727 44.6622 364.13 43.9612C364.13 44.5621 364.13 45.2631 364.13 45.864C365.113 46.1645 366.796 46.3649 367.077 46.7655C367.638 48.1676 364.832 47.4665 364.551 48.468C364.972 49.3694 365.534 50.1707 365.954 51.072C367.498 50.5713 367.498 48.7685 369.603 48.7685C369.603 49.5697 369.603 50.371 369.603 51.072C371.146 52.2739 372.971 52.8748 375.216 52.2738C378.163 51.7731 380.829 52.8748 383.635 53.1752C383.635 53.5758 383.495 53.9765 383.495 54.2769C385.179 54.1768 387.003 54.1768 388.687 54.0766L388.968 53.9764C392.756 51.6729 391.774 56.0797 394.019 55.8793C394.44 55.7792 394.721 55.5789 395.142 55.4787C393.879 51.3725 397.948 51.7731 401.456 51.5728C401.877 51.6729 402.298 51.7731 402.719 51.8732C402.719 52.1737 402.86 52.374 402.86 52.6745C402.719 53.4757 403.14 54.0766 404.403 54.377C405.385 54.2769 406.368 54.0766 407.21 53.9764C407.771 56.8809 409.876 59.2845 412.402 61.4879C412.963 61.0873 413.524 60.5865 414.085 60.1859C414.366 60.1859 414.647 60.1859 414.927 60.2861C415.348 60.7869 415.91 61.2876 416.331 61.8885C419.698 62.9902 420.961 64.6928 419.558 67.2968C418.716 68.6989 418.716 70.101 421.242 70.7019C422.084 70.7019 422.786 70.7019 423.628 70.7019C425.031 72.9053 421.663 75.8097 425.311 77.7126C424.89 78.3136 424.048 79.0146 425.311 79.6155C426.434 79.1148 427.557 78.5139 428.539 78.0131C429.381 79.8159 432.047 78.2134 433.45 78.9145C432.889 81.4183 440.747 81.6186 436.257 85.0238C439.063 85.5246 438.923 83.9221 440.045 83.221C439.624 81.8189 440.607 80.9175 441.87 80.1163H441.308C442.291 79.0146 443.273 77.913 444.255 76.8113C444.676 75.7096 445.237 74.6079 445.658 73.5062C445.799 73.2057 445.939 73.0055 446.22 72.705C448.886 70.6018 449.587 67.7975 451.412 65.3938C452.534 63.0903 456.884 65.2937 458.147 63.0903C458.147 62.9902 458.147 62.89 458.147 62.89C458.989 62.6897 459.831 62.3893 460.533 61.9886C460.392 63.1905 460.112 64.4925 462.778 64.7929C465.023 65.0934 467.408 65.7945 469.233 64.6928C469.654 65.6943 470.776 66.2952 472.18 66.8961C472.741 67.0964 473.302 67.1966 473.863 67.1966C478.634 67.4971 481.722 69.8006 485.23 71.6033C486.493 71.5032 487.475 71.0024 488.036 70.101C488.317 69.6003 488.457 68.9993 488.457 68.4986C489.86 68.098 490.422 66.8961 491.685 66.2952C493.228 65.5941 494.21 64.6928 494.21 63.3908C494.772 63.8916 495.333 64.3923 496.455 64.3923C497.438 64.0919 497.578 63.5911 497.157 62.9902C501.928 62.5896 506.559 62.189 511.33 61.6882C512.031 62.3893 512.733 63.0904 513.575 63.7914C515.259 63.491 515.82 64.0919 515.96 65.1935C516.241 65.1935 516.662 65.1936 516.943 65.0934C516.943 65.3939 517.083 65.5941 517.083 65.8946C523.398 64.8931 526.064 68.4986 529.712 71.0024C529.291 71.0024 528.87 71.0024 528.449 71.0024C524.801 72.0039 529.151 73.2058 528.169 74.3075C527.748 74.6079 527.327 74.9084 526.906 75.2088C527.186 77.0116 529.151 75.9099 530.273 76.2104C530.554 76.7111 530.835 77.2119 531.115 77.7126C534.062 76.1102 535.746 73.9068 536.869 71.5032C537.711 71.2027 538.553 71.0024 539.395 70.7019C540.377 70.2012 541.219 69.7004 542.341 69.8006C542.341 70.101 542.482 70.5016 542.622 70.9023C543.183 71.6033 543.183 72.705 545.007 72.5047C547.533 71.0024 547.533 73.3059 548.656 73.8067C549.357 73.8067 549.779 73.5062 549.779 73.1056C550.059 73.1056 550.199 73.0054 550.48 72.9053C551.462 72.2042 551.883 71.0024 553.287 70.5016C553.708 70.3013 553.988 70.0009 554.269 69.7004C555.672 68.1981 558.198 67.6974 559.741 66.2952C560.022 66.8961 560.443 67.1966 561.285 66.9963C565.074 69.9007 567.319 69.8006 569.985 66.5957C570.967 67.5972 571.809 68.5988 571.809 69.8006C573.072 72.4046 570.546 74.2073 568.862 76.1102C568.862 76.5108 568.862 76.9114 569.143 77.312C569.564 77.6125 570.125 77.8128 570.687 77.9129C571.809 78.0131 572.932 77.8128 573.914 77.4122C574.195 77.4122 574.616 77.312 574.896 77.1117C576.159 77.5123 577.282 77.4122 577.843 75.6094C577.843 75.5093 577.843 75.5093 577.984 75.4091C578.405 75.309 578.966 75.4091 579.667 75.6094C581.071 77.1117 582.614 78.3135 585.28 78.4137C586.684 78.0131 588.367 78.0131 589.771 77.6125C590.472 77.2119 590.613 76.7111 590.893 76.2104C590.753 76.01 590.893 75.8097 591.174 75.6094C592.297 74.2073 595.103 73.6064 594.682 71.5032C594.682 71.403 594.542 71.3029 594.542 71.2027C595.805 71.0024 596.506 70.2012 597.348 69.7004C597.348 68.8992 597.489 68.1981 597.489 67.3969C599.313 66.0949 601.137 64.6928 602.961 63.3908C603.382 62.89 603.803 62.3893 604.224 61.7884C605.066 62.6898 606.329 62.89 607.732 62.6897C611.521 62.2891 611.521 64.8931 613.205 66.1951C615.871 65.8946 617.134 64.4925 618.256 62.9902C618.256 62.7899 618.256 62.4894 618.397 62.2891C620.221 61.2876 622.326 60.5865 623.589 59.0842C623.589 58.9841 623.729 58.8839 623.729 58.7838C624.01 58.7838 624.29 58.7838 624.711 58.7838C625.273 58.5835 625.694 58.3832 625.974 58.0827C626.255 57.6821 626.676 57.1813 626.956 56.7807C627.518 56.4803 627.939 56.1798 628.5 55.8793C628.921 53.8763 630.324 52.2738 632.429 50.8717C633.131 51.7731 633.832 52.6744 634.534 53.4757C634.955 53.2754 635.516 52.9749 635.937 52.7746C636.498 52.4742 637.34 52.1737 637.2 51.6729H637.34C638.884 51.4726 640.007 50.8717 640.849 49.9703C640.989 50.0705 641.129 50.1707 641.129 50.2708C640.989 50.3709 640.849 50.5713 640.708 50.6714C640.428 53.4757 643.936 53.2754 646.181 53.9764C646.883 55.1783 648.286 55.7792 649.97 56.0797C652.355 57.8824 654.6 59.0842 655.863 55.4787C655.723 55.1783 655.723 54.7776 655.583 54.4772C658.67 51.8732 662.879 52.0735 666.387 54.978C666.387 55.1783 666.387 55.3786 666.387 55.5789C666.247 56.8809 665.125 58.7838 667.65 59.1844C670.597 59.6852 672.281 58.0827 672.842 56.0797C676.21 56.6805 674.526 60.887 679.017 60.6867C679.438 60.887 679.718 61.0873 680.139 61.1874C680.981 61.3878 681.823 61.3878 682.525 61.0873C682.805 60.9871 682.946 60.887 683.226 60.6867C683.788 60.7868 684.489 60.887 685.051 60.9871C686.173 60.887 687.296 60.887 688.418 60.7869C688.699 60.6867 688.839 60.4864 688.98 60.2861C689.401 60.1859 689.822 60.0857 690.242 59.8854C691.646 59.0842 692.067 57.8824 692.207 56.6806C692.207 56.3801 692.207 56.1798 692.207 55.8793C692.488 55.7792 692.768 55.5789 692.768 55.2784C694.172 54.6775 695.154 55.3786 696.136 55.8793C697.259 56.3801 698.241 56.7807 699.364 57.2815C698.802 60.4864 699.223 63.5911 700.907 66.5957C701.328 66.4955 701.749 66.4955 702.17 66.3954C704.977 64.6928 702.731 62.4894 703.152 60.5865C703.012 60.4864 702.872 60.2861 702.872 60.1859C703.573 59.8855 703.994 59.3847 703.994 58.6837C704.275 58.5835 704.415 58.4833 704.696 58.3831L704.836 58.4833C705.397 59.1844 705.678 59.9856 705.678 60.7869C705.818 63.6913 707.783 64.192 710.87 62.9902C710.87 63.3908 710.87 63.7914 710.87 64.192C711.151 64.7929 711.572 65.3939 711.852 65.9948C712.694 66.0949 713.817 66.0949 714.097 66.8961V66.9963C714.799 67.3969 715.501 67.6974 716.062 68.098C716.483 68.3984 716.904 68.6989 717.465 68.9993C722.938 69.5001 720.412 72.9053 721.815 74.9084V74.8082C722.657 75.2088 723.359 75.0085 724.06 74.7081C727.849 72.4046 729.954 74.4076 732.059 76.4106C732.48 77.2119 732.901 78.0131 733.322 78.8143C735.146 79.1148 735.567 77.5123 736.97 77.4122C736.97 78.2134 736.83 79.0146 736.83 79.8159C738.233 80.7172 740.478 80.3166 741.601 81.6186C743.706 82.1194 746.091 82.1194 747.214 83.822C747.214 83.9221 747.354 84.0222 747.635 84.1224C747.916 84.2226 748.196 84.2226 748.477 83.9221C750.582 83.4214 752.827 82.8205 753.949 81.3182C755.072 79.8159 756.475 78.5139 756.616 76.7111C756.616 76.5108 756.616 76.4106 756.616 76.2104C757.317 76.3105 758.019 76.1102 758.861 75.7096C759.001 75.5093 759.001 75.4091 759.141 75.2088C759.562 75.6094 759.843 76.1102 759.703 76.611L759.843 76.7111C759.843 76.8113 759.983 76.9114 760.264 77.0116C760.404 77.0116 760.404 77.0116 760.545 77.0116C760.825 78.8143 761.808 80.2165 764.754 80.6171C766.859 80.1163 767.14 78.614 768.122 77.4122C768.262 77.0116 768.543 76.7111 768.964 76.5108C770.788 76.1102 772.753 76.3105 774.437 75.6094C774.858 75.5093 774.998 75.309 774.858 75.1087C776.822 74.7081 776.963 76.9114 778.787 76.5108C778.927 76.3105 779.067 76.1102 779.208 75.8098C779.067 75.2088 779.067 74.5077 778.927 73.9068C779.348 73.7065 779.909 73.5062 780.33 73.3059C780.892 74.6079 780.751 76.2104 781.874 77.2119C785.382 80.3166 790.434 82.6201 791.977 86.9267C791.977 87.0268 792.258 87.127 792.398 87.2272C794.082 87.9282 795.485 87.4275 797.029 87.0268C794.503 91.6339 799.274 93.4366 803.063 95.5398V95.64C801.94 98.244 804.887 100.347 804.747 102.851C805.589 106.456 808.255 104.854 810.64 103.853C812.184 103.652 813.447 102.751 814.99 102.551C816.814 103.852 819.06 104.854 819.481 106.957C821.445 107.458 822.427 106.456 823.55 105.755C825.655 106.857 826.918 104.854 828.742 104.654C830.426 104.453 831.268 102.15 833.653 103.652C833.513 105.455 837.723 103.953 837.302 105.956C839.968 106.356 841.792 105.255 843.195 103.953C844.037 103.552 844.037 102.951 843.757 102.35C843.757 102.35 843.616 102.35 843.616 102.25C846.282 101.449 848.107 100.147 848.528 98.0436C848.528 97.8434 848.528 97.5429 848.808 97.3426C849.229 97.1423 849.369 96.7417 849.089 96.4412C848.948 96.4412 848.948 96.4412 848.808 96.3411C851.194 94.9389 854 94.0375 855.123 91.734C855.263 91.4336 855.403 91.2332 855.544 90.9328C856.245 90.6323 856.807 90.2317 857.508 89.9313C857.929 89.731 858.35 89.5307 858.911 89.3304C859.052 89.0299 859.052 88.7294 859.192 88.429C861.718 88.2287 864.104 88.2287 866.068 89.5306L866.208 89.6308C866.629 89.3304 866.629 88.9297 866.629 88.6293C867.752 88.7294 868.875 88.9297 869.997 89.2302C871.26 89.1301 871.821 88.5292 872.102 87.8281C872.242 87.0269 872.383 86.2256 872.523 85.5246C872.804 85.5246 872.944 85.5246 873.225 85.5246C876.873 86.1255 879.82 85.4244 882.205 83.3212C883.889 82.7203 884.31 84.3227 885.573 84.3227C886.275 84.0223 886.696 83.7218 886.976 83.4214C887.257 83.9221 887.678 84.3227 888.379 84.7233C888.66 85.3242 888.941 85.825 889.362 86.4259C890.625 87.0268 891.747 86.7264 892.87 86.2256C894.975 85.124 896.097 83.7218 895.676 81.9191C898.342 82.6201 901.009 82.6201 903.815 82.0192C904.096 82.3196 904.517 82.6201 904.797 82.9206C904.657 83.7218 904.657 84.523 904.517 85.3242C905.078 86.4259 903.955 87.8281 905.499 88.8296C906.341 88.8296 906.902 88.3288 907.604 88.0284C908.025 88.0284 908.305 88.1285 908.726 88.1285C909.989 88.8296 911.814 88.3288 913.076 89.0299C914.48 88.9297 915.181 89.8311 916.164 90.3319C916.164 90.6324 916.164 90.8327 916.164 91.1331C917.426 92.335 918.689 93.3365 920.794 91.9343C922.619 90.5322 926.969 92.0345 927.249 89.0299C927.249 88.8296 927.389 88.6293 927.389 88.5291C927.81 87.4274 927.951 86.2256 927.53 85.124C927.53 85.0238 927.53 85.0238 927.389 84.9236C927.67 84.523 927.951 84.1224 928.091 83.7218C928.372 83.3212 928.652 82.9206 928.793 82.52C930.617 83.3212 932.581 83.1209 934.546 82.4198C934.686 83.3212 936.23 83.221 936.931 83.6216C937.633 84.2226 938.475 84.8235 939.177 85.4244C941.282 84.9236 942.544 85.6247 943.386 86.7264C942.965 87.0269 942.544 87.2271 942.123 87.5276C942.123 88.2287 942.685 88.6293 943.527 88.8296C943.948 88.9298 944.228 89.0299 944.649 89.0299C945.491 89.6308 945.632 91.033 947.596 90.2318C947.877 89.9313 948.017 89.6308 948.298 89.4305C951.946 91.3334 955.735 93.5368 959.103 89.2302C959.243 88.9297 959.383 88.5291 959.524 88.2287C960.927 88.429 962.19 89.3304 963.733 89.2302C964.154 89.3304 964.435 89.3304 964.856 89.2302C968.364 89.8311 967.943 92.3349 969.346 93.9374C970.188 94.1377 971.451 94.7386 972.012 94.5383C977.345 92.4351 979.59 95.0391 981.835 97.643C982.396 97.5429 982.958 97.4427 983.519 97.1423C984.922 96.1407 985.203 94.9389 984.501 93.6369C984.361 93.5368 984.361 93.4366 984.221 93.3365C984.922 92.9359 985.624 92.5352 986.325 92.1346C987.869 91.3334 988.711 90.432 987.588 89.13C987.308 88.8296 987.027 88.6293 986.606 88.5291C986.606 88.3288 986.606 88.2287 986.606 88.0284C986.887 87.8281 987.027 87.6277 987.308 87.4274C987.448 88.1285 987.588 88.8296 988.29 89.4305C989.693 90.1316 990.535 89.6308 991.096 88.7295C992.359 87.9282 993.622 87.127 994.885 86.3258C995.446 85.4244 996.429 85.4244 997.551 85.7249C997.972 85.2241 998.393 84.7233 998.814 84.2226C999.516 84.2226 1000.08 84.2226 1000.78 84.3227C1000.92 84.8235 1001.06 85.3242 1001.2 85.825C1004.15 86.4259 1006.81 85.825 1009.34 84.6232C1009.34 84.8235 1009.48 85.124 1009.48 85.3242C1009.2 85.4244 1008.92 85.6247 1008.64 85.825C1008.5 87.2271 1008.92 88.6293 1010.74 88.9297C1014.25 89.6308 1014.11 91.6339 1014.53 93.4366C1014.81 93.7371 1015.23 94.0376 1015.51 94.338C1016.64 95.1393 1018.46 95.1392 1019.44 96.0406C1019.72 96.341 1020 96.6415 1020.28 96.8418C1024.21 95.64 1026.46 98.4442 1029.69 98.945C1030.81 99.3456 1032.35 99.0452 1033.05 100.047C1033.05 101.148 1034.46 101.249 1035.3 101.749C1036.28 101.249 1036.56 100.648 1036.7 99.9465C1036.98 99.8464 1037.12 99.6461 1037.4 99.5459C1038.1 99.1453 1038.67 98.7447 1039.23 98.3441C1039.93 97.643 1041.05 97.1423 1041.75 96.4412C1043.58 95.64 1045.26 94.7386 1047.23 94.0375C1048.49 93.2363 1050.17 92.6354 1050.31 91.2332C1050.31 90.8326 1050.17 90.5322 1049.89 90.2318C1050.03 90.2318 1050.03 90.2318 1050.17 90.2318C1050.45 90.0314 1050.73 89.8311 1051.01 89.5306C1051.44 90.2317 1052.14 90.6323 1053.12 90.9328C1055.79 91.4336 1058.31 91.4336 1060.98 90.9328C1062.66 90.2317 1064.21 89.5306 1064.35 88.0284C1064.21 87.9282 1064.2 87.8281 1064.06 87.7279C1066.17 87.127 1066.45 86.1255 1065.61 84.8235C1065.89 84.9236 1066.17 84.9236 1066.59 84.9236C1070.52 83.6216 1073.19 80.9175 1077.4 79.916C1077.54 79.916 1077.68 79.916 1077.68 79.916C1077.68 80.4167 1077.68 80.9175 1077.54 81.4183C1078.66 81.3181 1079.36 80.8174 1079.78 80.2165C1080.06 80.2165 1080.34 80.2165 1080.76 80.2165C1081.04 80.2165 1081.32 80.1163 1081.75 80.0161C1082.17 80.8174 1082.31 81.7188 1082.31 82.6201C1083.99 83.5215 1083.15 84.8235 1083.29 85.9251C1085.11 83.9221 1084.13 81.5184 1085.11 79.3151C1085.81 79.3151 1086.52 79.3151 1087.22 79.4152C1089.32 76.6109 1091.29 77.6125 1093.39 79.4152C1093.53 80.0161 1093.95 80.1163 1094.66 79.8159C1094.8 79.7157 1094.8 79.7157 1094.8 79.6155C1097.6 80.2165 1098.44 77.9129 1100.69 77.4122C1101.11 77.1117 1101.25 76.7111 1101.39 76.3105C1101.39 76.2104 1101.39 76.01 1101.25 75.9099C1101.95 75.2088 1102.09 74.5078 1101.53 73.7065C1101.67 73.6064 1101.67 73.6064 1101.81 73.5062C1102.23 73.0055 1102.37 72.4045 1102.37 71.8036C1102.37 71.5032 1102.23 71.3029 1102.09 71.0024C1103.78 71.2027 1105.46 70.4015 1107.14 70.5016C1111.49 73.5062 1114.44 71.7035 1117.39 69.7004C1117.11 70.5016 1117.95 71.1025 1119.07 71.7035C1119.49 71.8036 1120.05 71.9038 1120.47 72.0039C1120.47 73.0055 1119.77 73.9068 1119.91 74.9084C1121.18 75.5093 1122.3 76.7111 1124.26 75.8098C1126.93 73.6064 1130.72 73.9068 1134.09 73.3059C1134.23 73.8067 1134.23 74.2073 1134.37 74.7081C1138.44 74.6079 1141.66 73.0055 1145.03 71.7035C1145.73 72.3044 1146.43 72.9053 1147.14 73.4061C1148.12 72.5047 1148.82 71.2027 1151.07 72.0039C1151.35 72.0039 1151.77 72.0039 1152.05 72.1041C1152.47 72.9053 1153.45 73.0055 1154.43 73.1056C1156.96 73.8067 1158.78 70.2012 1161.73 72.4045C1162.01 72.705 1162.43 72.8052 1162.85 72.6049C1163.69 72.3044 1164.54 72.0039 1165.24 71.8036C1165.38 72.9053 1164.96 74.1071 1166.08 75.1087C1166.64 75.7096 1167.48 75.7096 1168.33 75.5093C1168.61 75.5093 1168.89 75.5093 1169.17 75.5093C1169.73 75.8097 1170.29 76.0101 1170.85 76.3105C1171.55 76.5108 1172.25 76.611 1172.96 76.2104C1172.96 76.01 1173.1 75.8097 1173.38 75.6094C1174.08 75.4091 1174.08 75.1087 1173.66 74.9084C1175.48 75.5093 1178.01 74.9084 1179.13 76.611C1179.41 76.9114 1179.83 77.312 1180.11 77.6125C1180.39 77.6125 1180.67 77.5123 1180.95 77.5123C1181.94 78.2134 1182.78 78.9145 1183.76 79.5154C1184.6 79.5154 1185.16 78.4137 1186.15 79.4152C1188.25 79.4152 1190.64 79.7157 1190.5 77.312C1190.36 75.2088 1191.9 76.01 1193.16 76.4106C1193.16 76.611 1193.3 76.8113 1193.44 77.0116C1192.74 77.913 1193.3 78.5139 1194.57 78.9145C1195.55 79.2149 1196.39 79.6155 1197.37 79.916C1197.23 80.0161 1196.95 80.1163 1196.81 80.2165C1194.71 82.1194 1195.55 84.1224 1196.25 86.2256C1196.67 88.1285 1197.51 89.8311 1200.6 90.3319C1202 91.2333 1202.7 92.7355 1205.09 92.5352C1206.21 93.4366 1206.77 94.6384 1208.46 95.0391C1209.72 94.8387 1210.84 94.4381 1211.26 93.5368C1212.39 93.1362 1212.25 92.4351 1212.39 91.734C1214.91 92.9359 1217.58 93.6369 1220.67 93.1362C1224.59 92.9359 1227.68 93.6369 1229.09 96.6415C1229.65 96.942 1230.21 97.2424 1230.63 97.5429C1231.33 97.7432 1232.03 97.643 1232.59 97.3426C1232.03 98.0437 1231.89 98.7447 1232.31 99.4458C1233.58 100.347 1234.42 101.849 1236.24 102.15C1236.24 102.951 1236.66 103.652 1236.94 104.453C1237.65 106.256 1239.05 107.558 1241.71 107.859H1241.85C1241.85 107.959 1242 108.059 1242 108.159C1244.38 110.362 1247.47 112.065 1250.98 113.167C1252.1 113.267 1252.94 113.267 1253.92 112.866C1253.92 112.866 1253.92 112.866 1254.06 112.966H1254.2C1254.2 113.768 1254.62 114.369 1255.47 114.869C1257.71 115.971 1261.08 114.869 1262.9 116.772C1264.59 117.473 1265.71 118.875 1267.95 118.875C1268.1 119.076 1268.1 119.176 1268.24 119.376C1269.22 120.177 1270.48 120.578 1271.74 120.979C1273.43 121.479 1275.95 120.478 1277.08 122.18C1277.36 122.481 1277.78 122.781 1278.2 122.982C1280.72 124.284 1283.67 124.885 1286.9 124.584C1286.76 125.586 1286.48 126.487 1288.16 127.088C1289.71 129.191 1292.65 128.089 1294.9 128.59C1295.88 128.59 1296.86 128.49 1297.7 128.19C1297.98 128.089 1298.26 128.089 1298.41 127.989C1298.97 128.089 1299.67 128.19 1300.23 128.29C1302.47 128.49 1304.86 128.891 1306.54 127.388C1306.68 127.489 1306.82 127.489 1306.96 127.589C1307.81 129.191 1310.61 129.191 1312.16 130.193C1312.72 130.293 1313.28 130.293 1313.84 130.393C1315.67 130.593 1317.63 131.294 1319.03 130.093C1319.17 130.093 1319.31 130.093 1319.59 129.992C1319.59 129.992 1319.59 130.093 1319.73 130.093C1320.16 130.393 1320.72 130.593 1321.42 130.693C1325.07 130.393 1328.72 130.693 1332.22 129.792C1334.47 129.191 1336.71 129.391 1339.1 129.391C1344.29 129.291 1349.34 130.493 1354.53 130.493C1355.1 130.493 1355.66 130.493 1356.22 130.493C1357.34 130.393 1358.32 130.693 1359.45 130.794C1360.01 130.794 1360.57 130.794 1361.13 130.794C1362.81 130.393 1365.06 130.894 1366.46 129.692C1368.15 131.695 1369.83 133.398 1373.48 131.194C1373.48 131.094 1373.48 130.894 1373.48 130.794L1373.62 130.894C1373.76 130.994 1373.9 130.994 1374.04 130.894C1374.18 131.094 1374.32 131.294 1374.6 131.395C1376.28 131.695 1378.11 131.995 1379.79 132.296C1380.21 132.496 1380.64 132.697 1381.06 132.897C1382.6 133.097 1384 133.698 1385.13 134.499C1386.11 134.9 1387.09 135.2 1387.93 135.701C1389.9 136.402 1391.72 137.404 1393.83 138.005C1394.25 138.105 1394.67 138.205 1395.09 138.405C1395.65 139.307 1396.77 139.507 1398.04 139.407C1398.18 139.407 1398.32 139.307 1398.46 139.307C1398.88 139.407 1399.16 139.507 1399.58 139.607C1400.14 141.109 1401.54 141.51 1403.79 141.009C1404.07 140.909 1404.21 140.709 1404.49 140.609C1406.03 139.106 1408.14 140.208 1409.96 140.208C1411.09 140.208 1412.63 140.809 1413.19 139.807C1416 134.7 1416.98 139.707 1418.66 140.308C1423.15 139.807 1427.5 139.407 1430.73 136.803C1431.29 137.203 1431.99 137.203 1432.69 137.203C1432.69 137.404 1432.84 137.504 1433.26 137.604C1433.54 137.604 1433.68 137.704 1433.96 137.704C1433.96 137.804 1433.82 137.804 1433.82 137.904C1433.4 141.41 1437.47 141.109 1440.41 141.81C1441.54 142.111 1442.52 142.011 1443.5 141.81V-324H-4.5ZM892.73 84.1224C892.589 83.9221 892.589 83.7218 892.589 83.5215C892.589 83.4214 892.73 83.4214 892.73 83.3212C893.291 83.1209 892.73 84.0222 892.73 84.1224ZM1379.37 130.393C1379.51 130.393 1379.51 130.393 1379.37 130.393C1379.51 130.293 1379.51 130.393 1379.51 130.393C1379.51 130.393 1379.51 130.393 1379.37 130.393Z" fill="#212121"/>
</g>
<defs>
<clipPath id="clip0_4_2884">
<rect width="1449" height="142" fill="white" transform="translate(-4.5)"/>
</clipPath>
</defs>
</svg>
