<svg width="58" height="59" viewBox="0 0 58 59" fill="none" xmlns="http://www.w3.org/2000/svg">
<path fill-rule="evenodd" clip-rule="evenodd" d="M31.822 58.3574C32.1053 58.2344 33.1576 58.1523 33.5219 57.9882C31.7815 58.1113 31.7815 58.0703 31.822 58.3574Z" fill="#FFB142"/>
<path fill-rule="evenodd" clip-rule="evenodd" d="M1.0985 27.7941C0.896116 28.9018 1.01755 29.6813 1.0985 30.3377C1.01755 29.5992 1.2604 28.4505 1.0985 27.7941Z" fill="#FFB142"/>
<path fill-rule="evenodd" clip-rule="evenodd" d="M28.5815 58.3164C28.622 58.3574 28.7839 58.3985 28.9053 58.3985C29.0267 58.3985 29.1886 58.3985 29.3505 58.3574C29.1886 58.3164 29.1077 58.3164 29.0267 58.2754C28.7839 58.2754 28.622 58.2754 28.5815 58.3164Z" fill="#FFB142"/>
<path fill-rule="evenodd" clip-rule="evenodd" d="M30.3215 58.3164C30.2406 58.3574 30.2406 58.3574 30.1596 58.3985C30.2406 58.3985 30.4025 58.4395 30.5239 58.4395C30.5239 58.3985 30.6858 58.3985 30.6048 58.3574C30.5644 58.3574 30.4025 58.3574 30.3215 58.3164Z" fill="#FFB142"/>
<path fill-rule="evenodd" clip-rule="evenodd" d="M33.1155 0.553808C34.0869 0.758931 35.1797 1.00508 36.1511 1.25123C36.5154 1.3743 36.9201 1.49737 37.2844 1.62045C38.1343 1.74352 38.9438 2.27684 39.7129 2.52299L39.6724 2.48196C40.0771 2.68709 40.4414 2.81016 40.8461 3.01528C41.2104 3.13836 41.6557 3.42553 41.9795 3.5486C42.627 3.91782 43.2746 4.24602 43.8008 4.61524C44.1246 4.82036 44.327 4.98446 44.5294 5.06651C45.0151 5.39471 45.4603 5.7229 45.9864 6.09212C46.1888 6.17417 46.4721 6.46135 46.634 6.5434C46.7959 6.62544 46.9174 6.70749 46.9983 6.74852C46.7959 6.46135 46.4317 6.17417 46.0674 5.92803L44.327 4.73831C43.8008 4.36909 43.3151 3.99987 42.8294 3.8768C42.4247 3.67168 42.0604 3.46655 41.6961 3.26143C41.089 3.01528 40.3605 2.56401 39.7129 2.39991C39.47 2.27684 39.1867 2.19479 38.9843 2.07172C38.5391 1.90762 38.0939 1.66147 37.7296 1.62045C37.5677 1.57942 37.4058 1.49737 37.2844 1.45635C37.163 1.41532 37.0415 1.3743 36.8796 1.33327C36.7582 1.29225 36.6368 1.25123 36.5154 1.25123C35.3821 0.84098 34.2083 0.553808 33.075 0.38971C32.7512 0.348685 32.5893 0.348685 32.5893 0.430734C32.5893 0.430734 32.7917 0.512783 33.1155 0.553808ZM43.9627 4.61524C44.0841 4.65627 44.2056 4.77934 44.3675 4.90241C44.2056 4.77934 44.0841 4.69729 43.9627 4.61524Z" fill="#FFB142"/>
<path fill-rule="evenodd" clip-rule="evenodd" d="M53.5165 46.6244C53.476 46.6654 53.476 46.7064 53.476 46.7064L53.5165 46.6244Z" fill="#FFB142"/>
<path fill-rule="evenodd" clip-rule="evenodd" d="M57.4013 34.3581V34.317C57.5227 33.5786 57.6441 32.7991 57.5632 31.9786C57.5227 32.0197 57.5227 32.1017 57.4822 32.1838C57.4822 32.0197 57.4822 31.8556 57.4822 31.6915L57.4417 31.5684V31.4453C57.4417 30.83 57.4417 30.1736 57.4822 29.5172C57.4822 29.3941 57.4417 29.312 57.4013 29.1479C57.2394 27.3429 56.9156 25.4557 56.4299 23.6917C56.3894 23.5686 56.3084 23.4045 56.268 23.2814C55.8227 21.7635 55.3371 20.3687 54.7299 18.8508C54.6895 18.7687 54.568 18.6046 54.5276 18.5226C54.4466 18.3585 54.4061 18.2354 54.3657 18.1123C54.3252 17.8662 54.2038 17.62 54.0014 17.3739C53.5157 16.4303 53.1109 15.4047 52.4633 14.7483C51.6134 13.6817 50.642 12.2868 49.6301 11.2612C49.1444 10.7279 48.8206 10.1536 48.3349 9.66127C47.8492 9.21 47.7683 9.3741 47.0397 8.79976C46.2707 8.22541 45.5422 7.528 44.6922 6.95365L44.6517 7.0357C44.6517 6.99468 44.6112 6.91263 44.6922 6.95365L44.3684 6.7075L44.3279 6.78955C43.9636 6.54341 43.6399 6.29726 43.3161 6.09214C43.2351 6.05111 43.0732 6.01009 42.9518 5.92804L42.8304 5.88701L42.7494 5.80496C42.4661 5.55882 42.0613 5.43574 41.8994 5.23062C42.1018 5.23062 42.7089 5.59984 42.7899 5.51779C41.6566 4.77935 40.928 4.5332 40.4423 4.5332C40.1995 4.41013 39.8757 4.24603 39.9162 4.20501C40.1186 4.04091 39.5924 3.87681 38.9448 3.67169C38.4186 3.50759 38.2567 3.54861 38.2567 3.67169C38.0948 3.58964 38.0139 3.58964 37.8924 3.50759C37.7305 3.42554 37.6091 3.38451 37.4877 3.34349L37.5282 3.38451C37.3663 3.30246 37.2449 3.26144 37.1234 3.22042C36.6782 3.05632 35.9497 2.85119 36.1925 2.72812C36.3949 2.64607 36.0711 2.523 35.5449 2.3589C35.0997 2.23583 34.6545 2.0307 34.1688 2.07173C34.6949 2.23583 35.3425 2.56402 35.1402 2.6871C34.8973 2.64607 34.6545 2.56402 34.3711 2.523C34.2092 2.3589 34.0878 2.23583 33.845 2.07173C33.8045 1.98968 33.7236 1.94865 33.4807 1.8666C33.4402 1.70251 33.3188 1.49738 33.0355 1.33329C33.2783 1.33329 33.5616 1.37431 33.845 1.41533C34.6949 1.57943 35.5044 1.82558 36.233 2.15378C36.6782 2.39992 37.2448 2.56402 37.8115 2.64607C38.54 2.97427 39.2686 3.26144 39.9971 3.58964C41.8185 4.45115 43.5184 5.43574 45.1374 6.42033H45.0969C46.0279 6.99468 46.8374 7.85619 47.7278 8.55361C48.0921 8.75873 48.4968 9.21 48.9016 9.62025C49.023 9.74332 49.1849 9.8664 49.3063 10.0305C49.5896 10.2766 49.873 10.6048 50.1563 10.933C51.0062 11.9997 51.8158 12.9432 52.5443 13.9689C52.5038 13.8868 52.5038 13.8868 52.4633 13.8048C52.4633 13.8048 52.4633 13.8048 52.5038 13.8458L52.5443 13.9689C52.7871 14.2971 53.03 14.7483 53.2728 14.9534L53.3943 15.1175L53.4752 15.2816C53.8395 15.938 54.1228 16.6765 54.4871 17.1277C54.568 17.2918 54.6085 17.2918 54.6895 17.4559C54.8918 17.9072 55.0942 18.3585 55.2966 18.6867C55.337 18.7687 55.3371 18.7687 55.3775 18.7687C55.418 18.8098 55.418 18.7687 55.3775 18.6457C55.1347 17.579 54.649 16.5124 53.9204 15.3637C53.7181 15.0765 53.4752 14.6663 53.2728 14.3381C52.0181 11.9997 50.3991 10.3177 48.6182 8.84078C48.3754 8.59464 48.173 8.38951 47.9706 8.30746C47.7278 8.10234 47.4849 7.89722 47.3231 7.85619C47.0802 7.65107 46.8778 7.48697 46.7159 7.3639C46.3921 7.07673 46.0683 6.78955 45.7445 6.50238C44.3279 5.23062 42.6685 4.28705 40.9685 3.50759C40.1995 3.13837 39.3495 2.89222 38.54 2.44095C37.9329 2.11275 37.1639 1.78456 37.4067 2.1948C37.4472 2.27685 36.921 2.11275 36.5972 2.0307C35.9901 1.8666 35.2616 1.57943 34.614 1.45636C34.533 1.45636 34.4116 1.41533 34.3711 1.37431C34.2497 1.33329 34.1283 1.29226 33.9259 1.29226C33.845 1.29226 33.764 1.29226 33.6426 1.21021C33.076 1.00509 32.4688 0.84099 31.9022 0.717917C31.6998 0.676892 31.457 0.594843 31.1332 0.553818C31.0927 0.471769 30.9713 0.430745 30.688 0.38972C30.5261 0.348695 30.4451 0.348695 30.2427 0.307671H30.1213C30.0808 0.307671 30.0808 0.307671 30.0808 0.307671C30.1213 0.307671 30.1618 0.307671 30.2022 0.307671C30.1213 0.225622 29.9999 0.184597 29.6356 0.184597H29.5951C29.5547 0.0615234 29.3928 0.0615234 29.1499 0.0615234C29.069 0.0615234 28.9071 0.102548 28.8666 0.0615234C28.219 0.102548 27.5309 0.225622 26.8833 0.307671C26.519 0.266646 26.1143 0.307671 25.75 0.348695C24.1715 0.430745 22.6335 0.676892 21.055 1.04611V1.00509C20.3669 1.00509 19.4764 1.37431 18.667 1.57943C18.3027 1.57943 17.8575 1.74353 17.4932 1.90763C17.2503 1.94865 16.9265 2.0307 16.5623 2.1948C16.1575 2.3589 16.3194 2.39992 16.0766 2.523C15.8742 2.60505 15.7123 2.72812 15.6718 2.81017C15.5504 2.89222 15.0242 3.13837 15.1861 3.17939C15.2266 3.22042 15.348 3.22042 15.6313 3.17939C15.7528 3.26144 16.0361 3.22042 16.5218 3.09734L16.6027 3.05632C16.5623 3.05632 16.5218 3.09734 16.5218 3.09734C16.8456 3.13837 17.1694 3.22042 17.4932 3.26144C17.5337 3.38451 17.6551 3.42554 18.0598 3.34349C17.817 3.46656 17.6146 3.63066 17.4122 3.79476C16.8051 4.16398 15.9956 4.45115 15.6718 4.90242C14.8623 5.51779 13.8909 6.09214 13.2433 6.78955L13.2838 6.74853C12.9195 7.15877 12.2719 7.528 11.9886 7.93824C11.8267 8.10234 11.5029 8.34849 11.341 8.59464L11.3005 8.67668L11.1791 8.75873C10.8149 9.12795 10.4506 9.49718 10.0458 9.8664C9.56015 10.2766 9.07444 10.6869 8.66969 11.2612C8.14352 11.9586 7.17214 13.0663 6.60549 13.9689C6.03885 14.9124 5.14839 15.815 4.86507 16.8406L4.90555 16.7995C4.86507 16.8406 4.86507 16.8406 4.86507 16.8406C4.29843 17.8662 3.77226 18.9328 3.32704 19.9995C3.00324 20.6559 2.76039 21.3533 2.55802 22.1738C2.51755 22.3789 2.43659 22.543 2.39611 22.7481C1.86994 24.184 1.4652 25.7429 1.34378 27.3429C1.26283 28.1634 1.1414 28.9018 1.3033 29.5992C1.3033 29.7223 1.3033 29.8043 1.3033 29.8454C1.22235 30.0505 1.22235 30.2966 1.22235 30.5838C1.06045 31.3223 1.22235 32.1427 1.26282 32.9222L1.3033 32.9632C1.3033 32.9632 1.3033 32.9632 1.26282 32.9222C1.18187 33.2504 1.26283 33.7427 1.34378 34.1529C1.3033 34.4401 1.4652 34.9734 1.4652 35.3837C1.50567 35.4657 1.50568 35.5478 1.50568 35.6298C1.4652 35.7939 1.50567 36.0811 1.58662 36.4093C1.62709 36.9016 1.78899 37.4349 1.99136 37.8041C2.07231 38.1734 2.15327 38.5015 2.31517 38.7887C2.43659 39.24 2.55802 39.6092 2.67944 40.0195C2.92229 40.6348 3.12466 41.4963 3.44846 42.0297C3.56988 42.2758 3.65084 42.563 3.73178 42.7681C3.93416 43.2194 4.05558 43.6706 4.29843 43.9578C4.37938 44.1219 4.46033 44.286 4.5008 44.4091C4.54128 44.5322 4.62223 44.6552 4.70318 44.7783C4.78412 44.9014 4.8246 44.9834 4.90555 45.1065C5.43172 46.2142 6.03884 47.2398 6.76739 48.1833C6.96976 48.4295 7.09118 48.5526 7.13166 48.5115C7.17213 48.4705 7.09118 48.2654 6.92928 48.0193C6.40311 47.1577 5.79599 46.2142 5.26982 45.3937C5.10792 45.0655 4.90555 44.6963 4.70318 44.327C4.177 43.6296 4.0151 42.6861 3.61035 41.9476V42.0297C3.44845 41.6194 3.32704 41.2502 3.16514 40.84C3.00324 40.5118 2.88182 39.9784 2.71992 39.6092C2.67944 39.4041 2.59849 39.24 2.55802 39.0349C2.55802 39.0759 2.59848 39.1169 2.59848 39.1169C2.63896 39.199 2.67944 39.24 2.71992 39.322C2.71992 39.24 2.67944 39.1579 2.67944 39.0759V39.0349C2.67944 38.9528 2.67944 38.8297 2.63896 38.7067C2.67944 38.5426 2.59849 38.2554 2.51754 37.9272H2.55802C2.55802 37.8452 2.55802 37.7631 2.55802 37.6811C2.80087 38.5836 3.08418 39.4451 3.40798 40.3066C3.6913 41.1271 4.09606 41.9066 4.37938 42.8091C4.58176 43.4655 4.90555 44.286 4.9865 43.7937C5.02698 43.7117 5.26982 44.204 5.43172 44.4911C5.75551 45.0655 6.07931 45.7219 6.44358 46.3372C6.48406 46.3783 6.56501 46.5013 6.56501 46.5834C6.60549 46.7065 6.68644 46.8295 6.80787 46.9936C6.84834 47.0347 6.92929 47.1167 6.96976 47.2398C7.77926 48.8808 8.79112 50.3987 10.3292 51.6294C10.5315 51.7935 10.7744 52.0807 10.9363 52.2448C11.1791 52.655 11.5839 53.0242 11.9886 53.3524C13.2029 54.4191 14.4171 55.3626 15.7932 56.2242V56.2652C16.2789 56.7575 17.1694 57.1267 17.8575 57.578C18.1003 57.8241 18.5455 58.0292 18.9098 58.1933C19.1122 58.3574 19.3955 58.4805 19.7598 58.6446C20.1645 58.8497 20.0836 58.6856 20.3264 58.7677C20.5288 58.8497 20.7312 58.8908 20.8121 58.8497C20.9335 58.8497 21.5002 59.0549 21.4192 58.9318C21.4192 58.8497 21.3383 58.7677 21.0954 58.6446C21.055 58.5215 20.8121 58.3164 20.4074 58.0703L20.3264 58.0292C20.3669 58.0292 20.4074 58.0703 20.4074 58.0703C20.2455 57.8241 20.0431 57.5369 19.8407 57.2498C19.8812 57.1267 19.8407 56.9626 19.2741 56.6344C19.2336 56.5113 19.1122 56.3883 19.0717 56.2652C19.4764 56.4703 19.9217 56.6344 20.3264 56.7985C20.7312 56.9626 21.0145 56.9216 21.0145 56.8395C21.1359 56.7575 20.6502 56.5934 20.3669 56.4293C20.0431 56.2652 19.7598 56.0601 19.7598 55.978C19.7193 55.8549 20.205 56.0601 20.4478 56.1011C21.2978 56.3062 22.3906 56.8806 23.362 57.0036C23.8072 57.1267 24.3739 57.3729 24.7786 57.3318C25.4262 57.4549 26.1143 57.701 26.6809 57.66C26.6405 57.619 26.5595 57.619 26.519 57.578C26.5595 57.578 26.5595 57.578 26.5595 57.578L26.6809 57.619C27.2881 57.7011 28.0166 57.8651 28.5428 57.7831L28.4618 57.7421H28.5428C29.5142 57.7831 30.526 58.0703 31.6189 57.8651C32.4688 57.7421 33.9664 57.66 34.9783 57.4549C36.0306 57.2088 37.2853 57.1677 38.2162 56.6754H38.1353C38.1758 56.6344 38.1758 56.6754 38.1758 56.6754C40.1995 56.1421 42.1828 55.3626 44.0446 54.296C45.2589 53.7217 46.4731 53.0243 47.5659 52.1627C47.6064 52.2038 47.7278 52.2038 47.9302 52.0397L48.0516 51.9166C48.0516 51.9166 47.9706 51.9986 47.9302 52.0397C48.0516 52.0397 48.173 52.0397 48.2945 51.9576C48.0111 52.1627 47.7278 52.4499 47.4445 52.614H47.485C47.2016 52.7781 46.7564 53.1063 46.4731 53.2294C45.8255 53.4755 45.1374 54.0909 44.4089 54.4601C44.247 54.5422 44.0041 54.6652 43.8018 54.7473C43.397 54.8704 42.8708 55.2396 42.4256 55.3627C42.1828 55.4447 42.0209 55.5267 41.859 55.6088C41.1304 55.978 40.4019 56.3062 39.5924 56.4703L39.471 56.5113L39.39 56.5524C37.083 57.1267 35.383 57.7421 33.6021 58.1523C37.002 57.7831 40.2805 56.7575 43.3161 55.2806C43.5184 55.1575 43.7208 55.0755 43.9637 54.9524C44.5303 54.8293 45.1374 54.4191 45.7041 54.0088C46.0279 53.8037 46.3112 53.6396 46.635 53.4345C46.9588 53.2704 47.3231 52.9832 47.6064 52.8191C47.7278 52.7371 47.8088 52.655 47.8897 52.614C48.173 52.4909 48.5373 52.2038 48.8611 51.9166C48.942 51.8345 49.1039 51.7525 49.1444 51.6704C49.2658 51.5884 49.4682 51.5063 49.5492 51.4243C49.7111 51.2602 49.8325 51.1371 49.9944 51.014C50.0753 50.973 50.1968 50.891 50.3991 50.6858H50.4396C50.4801 50.6858 50.6015 50.6038 50.8039 50.4397C50.8444 50.3577 50.9658 50.2346 51.0063 50.2346C51.9372 49.1269 52.7475 47.8551 53.5165 46.6244C53.7998 46.1731 54.0823 45.7219 54.2847 45.2706C54.4871 44.9834 54.6894 44.6552 54.8109 44.3681C54.8918 44.245 55.0133 44.1219 55.0942 43.9988C55.6608 42.4809 56.3084 40.881 56.5513 39.4041C56.7537 38.7067 57.1179 37.9272 57.037 37.3529C57.1989 36.3272 57.4822 35.2196 57.4417 34.276L57.4013 34.3581ZM51.9776 12.6971C51.9372 12.6971 51.9372 12.6971 51.9776 12.6971V12.6971ZM16.5218 2.64607C16.5218 2.64607 16.4813 2.60505 16.5623 2.56402C16.6027 2.523 16.6432 2.523 16.6837 2.523C16.6027 2.56402 16.5218 2.64607 16.5218 2.64607ZM20.0431 58.4395C20.0431 58.4395 20.0431 58.4805 19.9622 58.4805C19.9217 58.4805 19.8812 58.4395 19.8407 58.4395C19.9217 58.4395 20.0431 58.4395 20.0431 58.4395ZM55.4585 33.0453C55.4989 32.4299 55.5394 31.8145 55.4585 31.2402C55.5799 31.7325 55.4989 32.3889 55.4585 33.0453ZM55.4989 21.3123C55.4585 21.2712 55.418 21.1071 55.3775 21.1071C55.3775 21.0251 55.3371 20.943 55.3371 20.861C55.418 21.0251 55.4585 21.1892 55.4989 21.3123ZM55.2966 24.8814C55.2966 24.9224 55.2966 25.0045 55.2561 24.9634C55.2561 24.9634 55.2561 24.9224 55.2966 24.8814ZM54.0823 28.5326C54.0823 28.6557 54.1228 28.7377 54.1228 28.8197C54.1228 29.0659 54.0823 28.7787 54.0419 28.6557C54.0419 28.6557 54.0823 28.6557 54.0823 28.5326ZM53.7181 32.8812V32.9632C53.7181 33.0043 53.7181 32.8812 53.7181 32.8812ZM47.8897 48.1423C47.9302 48.0603 47.9707 47.9782 48.0516 47.8962C48.0921 47.4859 48.6182 46.7065 49.023 45.8449C48.8611 46.4603 48.4563 47.1988 48.0516 47.8962C48.0516 47.9372 48.0111 47.9782 48.0516 48.0193C47.9707 48.0193 47.9302 48.0603 47.8897 48.1423ZM11.9481 47.7321C11.9077 47.7321 11.8672 47.65 11.8267 47.65V47.609C11.7458 47.527 11.7862 47.568 11.7458 47.527C11.7458 47.527 11.7863 47.527 11.8267 47.609C11.8672 47.609 11.8672 47.609 11.8672 47.609L11.9077 47.65C11.9481 47.6911 11.9481 47.6911 11.9481 47.7321ZM7.0507 46.2552C7.0507 46.2142 7.01024 46.2142 7.01024 46.2142C7.05071 46.2552 7.09118 46.2142 7.0507 46.1731C7.0507 46.1731 7.0507 46.1731 7.0507 46.1321C7.0507 46.1321 7.05071 46.1321 7.09118 46.1731C6.84833 45.6809 6.60548 44.9834 6.84833 45.0655C7.09118 45.4347 7.3745 46.009 7.6983 46.3783C7.8602 46.5834 8.0221 46.8295 8.184 47.0757C8.42685 47.6911 8.46732 47.8141 8.3459 48.0193C8.184 47.7321 7.94115 47.4859 7.73878 47.1167C7.61735 46.8295 7.33403 46.5013 7.09118 46.1731C7.09118 46.2142 7.0507 46.2142 7.0507 46.2552ZM7.45545 38.7477C7.41498 38.7067 7.37451 38.7067 7.33403 38.7067C7.29356 38.8708 7.25309 39.0349 7.21261 39.1169C7.25309 38.9528 7.25308 38.7067 7.33403 38.7067C7.33403 38.5836 7.37451 38.5015 7.37451 38.3785C7.41498 38.5015 7.41498 38.5426 7.45545 38.7477ZM6.56501 43.7117C6.56501 43.7117 6.56501 43.6706 6.52454 43.6706C6.60549 43.7937 6.72692 43.9988 6.80787 44.1219H6.76739C6.72691 43.9988 6.64596 43.8758 6.56501 43.7117ZM6.11979 41.0451C6.03884 40.922 6.03885 40.881 5.99837 40.84C5.99837 40.7989 5.95789 40.7169 5.95789 40.6759C5.99837 40.7989 6.07932 40.922 6.11979 41.0451ZM5.22934 37.3529C5.18887 37.3529 5.1484 37.3118 5.10792 37.2298C5.10792 37.2298 5.10792 37.2298 5.10792 37.1477C5.1484 37.2708 5.22934 37.3939 5.22934 37.3529ZM2.71992 35.0145C2.71992 34.9734 2.67944 34.8914 2.67944 34.8914C2.67944 34.9734 2.67944 34.9734 2.71992 35.0145ZM3.44846 37.7221C3.40798 37.7221 3.40798 37.9272 3.48893 38.1323C3.40798 38.0093 3.36751 37.8452 3.32704 37.6811C3.32704 37.599 3.40798 37.6811 3.44846 37.7221ZM4.78413 36.1632C4.70318 36.0401 4.66271 35.917 4.58176 35.5888C4.66271 35.835 4.70318 35.9991 4.78413 36.1632ZM4.9865 37.6811C4.9865 37.4759 4.94602 37.3529 5.02697 37.3118C4.94602 37.3118 4.94603 37.4759 4.9865 37.6811ZM2.15327 29.9274C2.15327 29.9684 2.15327 29.9684 2.15327 29.9684C2.15327 30.1325 2.1128 30.2556 2.1128 30.3787C2.1128 30.4197 2.1128 30.4607 2.1128 30.5018C2.1128 30.4607 2.1128 30.4607 2.1128 30.4607C2.1128 30.4197 2.1128 30.4197 2.1128 30.4197C2.1128 30.2556 2.15327 30.1325 2.15327 30.0095C2.15327 29.9274 2.15327 29.9274 2.15327 29.9274ZM1.70805 34.4401C1.74852 34.4401 1.74852 34.4401 1.78899 34.3991C1.78899 34.4811 1.78899 34.5632 1.82947 34.6452C1.74852 34.5632 1.70805 34.4811 1.70805 34.4401C1.6271 34.4401 1.54615 34.317 1.4652 34.1529C1.54615 34.194 1.6271 34.317 1.70805 34.4401ZM5.3103 42.1527C5.39125 42.3168 5.39124 42.3989 5.47219 42.522C5.51267 42.6861 5.59361 42.8502 5.63409 42.9322V42.8502C5.67456 43.0143 5.71505 43.1373 5.796 43.2604C5.99837 43.7117 6.40311 44.3681 6.11979 44.286C6.03884 44.245 6.03884 44.286 6.03884 44.327C5.95789 44.1629 5.87695 43.9988 5.796 43.8758C5.796 43.6706 5.51267 43.3014 5.35077 42.9322C5.3103 42.6861 5.22935 42.3989 5.10792 42.1117C5.18887 42.1938 5.26982 42.1938 5.3103 42.1527ZM31.4165 4.3691C31.4165 4.45115 31.2546 4.41013 31.2546 4.45115C31.2546 4.41013 31.4165 4.41013 31.4165 4.3691ZM29.5547 4.12296C29.5142 4.12296 29.3928 4.12296 29.3928 4.12296H29.4737C29.5951 4.08193 29.7975 4.08193 29.9999 4.08193C29.8785 4.12296 29.6356 4.08193 29.5547 4.12296ZM29.9594 4.41013C29.9594 4.41013 29.9189 4.41013 29.8785 4.41013C29.838 4.41013 29.838 4.41013 29.838 4.41013H29.757C29.7165 4.41013 29.7166 4.41013 29.6761 4.41013C29.7166 4.41013 29.757 4.41013 29.7975 4.41013H29.838C29.9594 4.41013 29.9189 4.41013 29.9594 4.41013ZM49.9539 40.7989C49.9539 40.7579 50.0349 40.6759 50.0349 40.6348C49.9944 40.7169 49.9134 40.881 49.9539 40.7989ZM49.9944 41.0041C49.9539 41.0041 49.9539 41.0041 49.9539 41.0451C49.9539 41.0041 49.9944 41.0041 49.9944 41.0041C49.9944 40.963 49.9944 40.963 49.9944 41.0041ZM52.8681 32.6761C52.8681 32.7581 52.8681 32.7991 52.8276 32.9222C52.8276 32.7991 52.8276 32.7991 52.7871 32.7581C52.8276 32.6761 52.8681 32.7171 52.8681 32.6761ZM52.3419 18.3995C52.3419 18.3585 52.3014 18.3585 52.3014 18.3175C52.3014 18.2354 52.261 18.2354 52.261 18.2354C52.261 18.2764 52.3014 18.3175 52.3419 18.3995ZM52.2205 15.6098C52.2205 15.6509 52.2205 15.6509 52.2205 15.6098C52.18 15.5688 52.18 15.6098 52.2205 15.6098ZM43.397 7.73312C43.1946 7.61005 42.9923 7.528 42.8708 7.44595C42.9923 7.48697 43.1542 7.56902 43.397 7.73312ZM41.7375 6.95365C41.778 6.95365 41.8185 6.95365 41.859 6.99468C41.859 6.99468 41.859 6.99468 41.8994 7.0357C41.859 6.95365 41.778 6.95365 41.7375 6.95365ZM41.8994 6.83058C41.9399 6.78955 41.8185 6.66648 41.6566 6.54341C41.8185 6.66648 41.9399 6.74853 41.8994 6.83058ZM38.7019 5.0255C38.7424 5.06652 38.8234 5.06652 38.8234 5.10755C38.7424 5.06652 38.5805 5.0255 38.4591 4.98447C38.621 4.98447 38.7019 5.0255 38.7019 5.0255ZM35.8687 3.30246C35.9901 3.34349 36.1116 3.34349 36.3139 3.38451H36.3544C36.233 3.34349 35.9901 3.30246 35.8687 3.30246ZM30.5665 0.307671C30.526 0.307671 30.5261 0.307671 30.4856 0.348695L30.5665 0.307671ZM25.7905 0.471769C25.7905 0.471769 25.7905 0.471769 25.8714 0.471769C25.7905 0.471769 25.6691 0.471769 25.5881 0.471769H25.7905ZM6.60549 14.6663C6.56502 14.7073 6.52454 14.7073 6.48406 14.7073C6.56501 14.7073 6.60549 14.6663 6.60549 14.6663ZM1.34378 32.1017C1.34378 32.1427 1.3033 32.1838 1.3033 32.1427C1.3033 32.1427 1.3033 32.1427 1.3033 32.0607C1.34378 32.1427 1.34378 32.1427 1.34378 32.1017ZM1.99136 37.3939C2.03184 37.3939 2.03184 37.3939 1.99136 37.3939V37.3939ZM4.94603 43.1784C4.86508 42.9732 4.78412 42.8091 4.70318 42.604C4.74365 42.645 4.78413 42.6861 4.78413 42.7271C4.8246 42.8502 4.90555 43.0963 4.9865 43.2604C4.9865 43.2604 4.94603 43.2194 4.94603 43.1784ZM6.84833 46.9116C6.36263 46.2142 5.95789 45.4347 5.71504 44.6963C5.67457 44.6142 5.6341 44.4911 5.59362 44.4091C5.67457 44.5322 5.75552 44.6963 5.796 44.8193C5.87695 45.0245 6.07931 45.3527 6.24121 45.5988C6.28168 45.6398 6.32217 45.6809 6.36264 45.7219C6.96976 46.5424 7.49593 47.4039 8.26495 48.1423C8.26495 48.1833 8.22448 48.1833 8.22448 48.2244C7.98163 48.3064 7.41498 47.609 6.84833 46.9116ZM8.5078 41.4143C8.66969 41.4143 8.71018 41.2092 8.62923 40.84C8.6697 41.0861 8.71017 41.2912 8.75065 41.4963C8.87207 41.9066 8.62922 41.5784 8.5078 41.4143ZM8.8316 46.5013C8.87208 46.5013 8.79112 46.3783 8.87207 46.4603C8.95302 46.5424 8.87207 46.5424 8.91254 46.6244C8.91254 46.6244 8.87208 46.5834 8.8316 46.5013ZM10.7339 46.5424C10.7744 46.5013 10.8958 46.6244 10.8958 46.6244C10.8553 46.6244 10.7339 46.5013 10.7339 46.5424ZM11.5434 47.7731C11.6243 47.8141 11.7863 48.0193 11.8672 48.0193C11.9077 48.0603 11.8672 48.0193 11.8672 48.0603C11.9077 48.1013 11.9886 48.1833 11.9886 48.1833L11.9481 48.1423C11.8267 48.0603 11.6648 47.9372 11.5434 47.7731ZM11.9481 53.3114C11.9481 53.3114 11.9481 53.3114 11.9077 53.2704C11.9481 53.3114 12.0696 53.3935 12.11 53.4345L11.9481 53.3114ZM13.0814 52.8601C13.0814 52.8191 13.0814 52.8191 13.0814 52.8601C12.8791 52.614 12.7576 52.4499 12.5957 52.2448L12.5553 52.2038C12.5957 52.2448 12.5957 52.2448 12.5957 52.2448C13.041 52.573 13.0814 52.6961 13.0814 52.8601C13.1219 52.8601 13.1219 52.9012 13.1624 52.9422C13.1219 52.9012 13.1219 52.9012 13.0814 52.8601ZM15.0647 49.4551C15.1861 49.4961 15.1861 49.4961 15.3076 49.5372C15.2671 49.5372 15.3076 49.6192 15.3076 49.6602C15.2266 49.5782 15.1457 49.5372 15.0647 49.4551ZM19.5169 52.9832C19.6383 53.0243 19.6788 53.0242 19.7598 53.0653C19.6788 53.0242 19.6788 53.0653 19.5169 52.9832ZM20.974 53.7627C21.0145 53.8037 21.0145 53.8037 20.974 53.7627H20.9335C20.8121 53.8037 20.5693 53.7627 20.3264 53.6806C20.205 53.6396 20.0836 53.5986 19.9622 53.5165H19.9217C19.8002 53.4755 19.8002 53.4755 19.7193 53.4345C19.8002 53.4755 19.8812 53.5165 19.9622 53.5165C20.0836 53.5576 20.205 53.6396 20.3264 53.6806C20.5288 53.7217 20.7312 53.7217 20.9335 53.7627C20.9335 53.7627 20.9335 53.7627 20.974 53.7627C20.8526 53.6396 20.8121 53.5576 20.7312 53.4755C20.7312 53.4755 20.6907 53.4755 20.6907 53.4345C20.7312 53.4345 20.7312 53.4345 20.7312 53.4345C20.7312 53.4345 20.6907 53.3935 20.6502 53.3524C20.3669 53.1473 20.0836 52.9832 19.8812 52.7781C19.5979 52.614 19.2741 52.3679 19.2741 52.3679C19.2741 52.3679 19.5979 52.573 19.8407 52.6961C19.8812 52.7371 19.8812 52.7371 19.9217 52.7371C20.3264 52.9422 20.5288 53.1473 20.6907 53.3114C20.7312 53.3524 20.7716 53.3524 20.8121 53.3935C20.8121 53.3935 20.8121 53.3935 20.7716 53.3524C20.9335 53.5986 21.0954 53.7217 20.974 53.7627ZM21.7026 53.8858L21.3788 53.7627C21.5002 53.8037 21.6216 53.8858 21.743 53.9268C21.743 53.9268 21.743 53.9268 21.7026 53.8858ZM24.8596 55.2806C24.9001 55.2806 24.7786 55.2396 24.7786 55.1985C24.8191 55.2396 24.8596 55.2396 24.9405 55.2806C24.8596 55.2806 24.8596 55.2806 24.8596 55.2806ZM28.3404 55.978C28.219 55.896 28.0571 55.8139 27.8952 55.7729C28.0166 55.7729 28.219 55.7729 28.4214 55.8139C28.5428 55.8549 28.6237 55.937 28.3404 55.978ZM30.5665 54.214C30.607 54.255 30.6879 54.255 30.7689 54.255C30.6475 54.214 30.5665 54.214 30.4856 54.214C30.5665 54.214 30.5665 54.214 30.5665 54.214ZM30.8498 54.6242C30.8903 54.6242 30.8903 54.6242 30.8498 54.6242C30.8498 54.6652 30.7689 54.6652 30.688 54.6652C30.7689 54.6652 30.7689 54.6652 30.8498 54.6242ZM35.383 57.0447C35.3425 57.0857 35.3425 57.1267 35.2616 57.1267C35.3021 57.1267 35.3425 57.0857 35.383 57.0447C35.383 57.0447 35.464 57.0857 35.5449 57.0857C35.464 57.0857 35.464 57.0447 35.383 57.0447ZM37.771 54.214C37.6496 54.255 37.5282 54.296 37.4877 54.255C37.4472 54.255 37.4877 54.255 37.4067 54.255C37.4472 54.255 37.4472 54.255 37.4877 54.214V54.255H37.6496C37.6901 54.214 37.7306 54.214 37.771 54.214ZM43.2756 51.6704C42.9113 51.8345 42.5875 51.9986 42.4661 51.9166C42.2637 51.8756 42.6685 51.6294 42.9923 51.4243C43.1137 51.3422 43.3161 51.2192 43.1946 51.1781C42.9923 51.2192 42.6685 51.4653 42.5066 51.4243C42.7899 51.2192 43.1542 51.0961 43.4375 50.8499C43.3565 50.8499 43.3161 50.891 43.3161 50.8499H43.2756C43.3161 50.8499 43.3161 50.8499 43.3161 50.8499C43.397 50.8089 43.4375 50.8089 43.4375 50.8499C43.478 50.8089 43.5589 50.7679 43.5994 50.7269C43.9637 50.5628 44.3684 50.1936 44.7731 50.0295C45.3398 49.7423 45.7445 49.332 46.2302 48.8808H46.2707L46.3112 48.8397C46.2707 48.8397 46.2707 48.8397 46.2707 48.8397C46.5945 48.3475 46.1493 48.7577 45.866 48.9628L45.7445 49.0449L45.6636 49.0859C45.4207 49.1269 45.0565 49.4961 44.8136 49.5782C45.7445 48.7987 46.7159 48.0603 47.5659 47.1577C47.6064 47.1167 47.6873 47.0347 47.7683 46.9936V47.0347C47.7278 47.1577 47.8088 47.0757 47.8897 46.9526C47.9302 46.8706 48.0111 46.7885 48.0111 46.7885C48.173 46.6244 48.2945 46.4603 48.2945 46.3783C48.2945 46.2142 48.3754 46.0501 48.4968 45.886C48.6992 45.7629 49.023 45.4347 49.1849 45.4757C49.0635 45.6809 49.023 45.8039 49.023 45.886C48.5778 46.5424 48.4159 46.8706 48.173 47.3218C47.9302 47.7731 47.8492 48.0603 47.4445 48.5936C47.2016 48.8397 46.9993 49.1269 46.7969 49.3731C46.7564 49.4141 46.6755 49.4551 46.635 49.4961C45.5422 50.3166 44.4089 51.014 43.2756 51.6704ZM44.4898 51.4243C44.5303 51.4243 44.6113 51.3422 44.6113 51.3422C44.6517 51.3422 44.6922 51.3012 44.7327 51.3012C44.7731 51.2602 44.8541 51.2602 44.8946 51.2192C44.8541 51.2192 44.8136 51.2602 44.7327 51.3012C44.6517 51.3422 44.5708 51.4243 44.4898 51.4243Z" fill="#FFB142"/>
<path fill-rule="evenodd" clip-rule="evenodd" d="M8.26239 11.1382C8.18144 11.4254 7.45292 12.2048 7.33149 12.6151C8.42429 11.3023 8.50523 11.3433 8.26239 11.1382Z" fill="#FFB142"/>
<path fill-rule="evenodd" clip-rule="evenodd" d="M1.14071 26.3993C1.22166 26.0711 1.3026 25.5378 1.42403 25.2506C1.74783 24.5942 1.74783 23.6507 2.03115 22.9122C2.07162 22.7481 2.15257 22.502 2.23352 22.2558C2.4359 21.8456 2.51685 21.2302 2.7597 20.82C2.84065 20.5738 2.92159 20.4097 3.00254 20.2456C3.28587 19.4662 3.5692 18.6867 3.97395 18.0303L4.01441 17.9072L4.05489 17.8252C4.78343 16.6355 5.35008 15.5688 5.87625 14.5842L6.32148 13.8868C6.48338 13.6407 6.56433 13.4355 6.52385 13.3945C6.68575 13.1073 6.84765 12.8202 7.00955 12.574C5.10724 14.9535 3.60967 17.7021 2.51685 20.5328C2.47638 20.4507 2.39543 20.6148 2.31448 20.861C2.15258 21.4353 1.90972 21.9687 1.7883 22.543C1.58593 23.0353 1.42404 23.6096 1.34309 24.184C1.26214 24.5532 1.18119 24.8814 1.10024 25.2506C0.978811 25.5788 0.938334 26.0301 0.857384 26.3993C0.857384 26.5634 0.816907 26.6455 0.816907 26.7275C0.695483 27.0147 0.655008 27.466 0.614533 27.9172C0.614533 28.0403 0.574056 28.2044 0.574056 28.2864C0.533581 28.4505 0.493111 28.6146 0.452637 28.7377C0.452637 29.23 0.452637 29.6403 0.452637 30.1325C0.452637 30.1736 0.493114 30.2146 0.493114 30.2146C0.533589 30.2556 0.533591 30.2556 0.533591 30.1325C0.574066 30.0505 0.614533 29.9274 0.614533 29.7633C0.695483 29.5582 0.655013 29.189 0.695488 28.9018C0.695488 28.8198 0.695488 28.6967 0.695488 28.6146C0.776437 28.4095 0.81691 28.1634 0.857384 27.7941C0.81691 27.9172 0.816905 27.9993 0.77643 28.0813C0.77643 28.1223 0.735965 28.1634 0.735965 28.2044C0.735965 28.2044 0.735965 28.2044 0.735965 28.1634C0.735965 28.1223 0.77643 28.1223 0.77643 28.0813C0.816905 27.9993 0.81691 27.8762 0.857384 27.7941C1.01928 27.507 0.978814 26.8096 1.14071 26.3993Z" fill="#FFB142"/>
<path fill-rule="evenodd" clip-rule="evenodd" d="M51.2881 10.7689C50.681 9.82535 50.0334 9.37408 49.5073 8.96384C50.1144 9.41511 50.7215 10.3587 51.2881 10.7689Z" fill="#FFB142"/>
<path fill-rule="evenodd" clip-rule="evenodd" d="M54.407 15.2817C54.6093 15.6099 54.8117 16.0201 55.0141 16.4303C55.1355 16.5944 55.2165 16.8406 55.2974 16.9226C55.4593 17.1278 55.4188 16.8816 55.2569 16.6355C54.8522 15.856 54.5284 15.0355 54.0427 14.4612C54.0022 14.3791 53.9213 14.2971 53.8403 14.174C53.6784 13.9278 53.5165 13.7227 53.4356 13.7227C53.3546 13.6817 53.5165 13.9278 53.5975 14.133C53.9213 14.5022 54.1641 14.9535 54.407 15.2817Z" fill="#FFB142"/>
<path fill-rule="evenodd" clip-rule="evenodd" d="M10.5309 8.8408C10.45 8.8408 10.369 8.92284 10.2476 9.00489C10.1667 9.08694 10.0452 9.21002 9.96428 9.33309C10.0857 9.25104 10.1667 9.21002 10.2476 9.12797C10.45 9.04592 10.5714 8.88182 10.5309 8.8408Z" fill="#FFB142"/>
<path fill-rule="evenodd" clip-rule="evenodd" d="M9.31593 10.1126C9.3564 10.0715 9.35641 10.0305 9.39688 9.94846C9.31593 9.98948 9.19451 10.1126 9.11356 10.1536C9.11356 10.1536 9.03262 10.3177 9.11356 10.2767C9.15404 10.2767 9.27546 10.1536 9.31593 10.1126Z" fill="#FFB142"/>
<path fill-rule="evenodd" clip-rule="evenodd" d="M55.2166 43.9168C55.1356 43.9989 55.1356 43.8348 55.0142 44.163C54.9737 44.245 54.9737 44.3271 55.0142 44.3271C55.0547 44.286 55.1356 44.163 55.2166 44.0399C55.2975 43.9168 55.2975 43.7938 55.2166 43.9168Z" fill="#FFB142"/>
<path fill-rule="evenodd" clip-rule="evenodd" d="M57.4798 24.8404C57.5608 24.8814 57.4798 24.5122 57.4394 24.307L57.1965 23.0353C57.0751 22.7891 57.0346 22.8302 57.0346 23.0763L57.2775 24.307C57.3584 24.6352 57.4394 24.8404 57.4798 24.8404Z" fill="#FFB142"/>
<path fill-rule="evenodd" clip-rule="evenodd" d="M44.3276 6.58441L44.449 6.70749L44.3681 6.58441H44.3276Z" fill="#FFB142"/>
<path d="M35.0562 44.7784H22.9947C17.652 44.7784 13.2808 40.3887 13.2808 34.9325V24.184C13.2808 18.7688 17.6116 14.3381 22.9947 14.3381H35.0562C40.3988 14.3381 44.7701 18.7278 44.7701 24.184V34.9325C44.7296 40.3477 40.3988 44.7784 35.0562 44.7784ZM22.9947 16.5535C18.8258 16.5535 15.4664 19.9995 15.4664 24.184V34.9325C15.4664 39.158 18.8663 42.563 22.9947 42.563H35.0562C39.2251 42.563 42.5845 39.117 42.5845 34.9325V24.184C42.5845 19.9585 39.1846 16.5535 35.0562 16.5535H22.9947Z" fill="white"/>
<path d="M29.023 38.2965C24.247 38.2965 20.4019 34.3581 20.4019 29.5583C20.4019 24.7174 24.2874 20.82 29.023 20.82C33.799 20.82 37.6441 24.7584 37.6441 29.5583C37.6441 34.3992 33.799 38.2965 29.023 38.2965ZM29.023 22.9943C25.4612 22.9943 22.547 25.9481 22.547 29.5583C22.547 33.1684 25.4612 36.1222 29.023 36.1222C32.5848 36.1222 35.499 33.1684 35.499 29.5583C35.499 25.9481 32.5848 22.9943 29.023 22.9943Z" fill="white"/>
<path d="M37.5265 22.8713C38.5101 22.8713 39.3074 22.0631 39.3074 21.0662C39.3074 20.0693 38.5101 19.2611 37.5265 19.2611C36.5429 19.2611 35.7456 20.0693 35.7456 21.0662C35.7456 22.0631 36.5429 22.8713 37.5265 22.8713Z" fill="white"/>
</svg>
